<?xml version="1.0" standalone="no"?>
<!DOCTYPE svg PUBLIC "-//W3C//DTD SVG 1.1//EN" "http://www.w3.org/Graphics/SVG/1.1/DTD/svg11.dtd" >
<svg xmlns="http://www.w3.org/2000/svg" xmlns:xlink="http://www.w3.org/1999/xlink" version="1.1">
<metadata>
Created by FontForge 20150824 at Tue May 10 18:18:01 2016
 By Everything Fonts
Copyright 2000, 2004 , 2005Adobe Systems Incorporated. All Rights Reserved. U.S. Patent D454,582.Myriad is a registered trademark of Adobe Systems Incorporated.
</metadata>
<defs>
<font id="MyriadPro-LightIt" horiz-adv-x="375" >
  <font-face 
    font-family="Myriad Pro"
    font-weight="300"
    font-style="italic"
    font-stretch="normal"
    units-per-em="1000"
    panose-1="2 11 4 3 3 4 3 9 2 4"
    ascent="750"
    descent="-250"
    x-height="480"
    cap-height="674"
    bbox="-175 -250 1007 933"
    underline-thickness="50"
    underline-position="-100"
    slope="-11"
    stemh="37"
    stemv="48"
    unicode-range="U+0020-FB04"
  />
<missing-glyph horiz-adv-x="500" 
d="M0 0v700h500v-700h-500zM250 395l170 255h-340zM280 350l170 -255v510zM80 50h340l-170 255zM50 605v-510l170 255z" />
    <glyph glyph-name="f_f" unicode="ff" horiz-adv-x="518" 
d="M644 708l-14 -37c-13 7 -31 10 -50 10c-78 0 -112 -79 -129 -178l-4 -23h115l-8 -37h-115l-85 -443h-44l84 443h-219l-84 -443h-45l85 443h-66l8 37h65l5 24c11 60 32 123 73 164c26 25 58 41 100 41c22 0 41 -6 56 -14l-17 -37c-10 6 -28 11 -44 11
c-77 0 -108 -81 -124 -169l-4 -20h219l4 26c13 73 38 136 78 175c25 23 61 40 99 40c33 0 52 -7 61 -13z" />
    <glyph glyph-name="f_f_i" unicode="ffi" horiz-adv-x="723" 
d="M707 697l-18 -38c-19 11 -52 22 -89 22c-89 0 -133 -79 -149 -176l-5 -25h246l-92 -480h-45l84 443h-200l-84 -443h-45l84 443h-219l-84 -443h-45l85 443h-66l8 37h65l5 26c10 56 33 117 73 158c27 27 63 45 109 45c31 0 54 -10 70 -21l-19 -36c-16 10 -37 17 -58 17
c-30 0 -55 -10 -74 -29c-28 -29 -46 -77 -57 -137l-4 -23h219l5 28c22 129 91 213 206 213c38 0 81 -12 94 -24z" />
    <glyph glyph-name="f_f_j" unicode="ffj" horiz-adv-x="693" 
d="M707 697l-18 -38c-19 11 -52 22 -89 22c-89 0 -133 -79 -149 -176l-5 -25h246l-94 -488c-15 -78 -30 -128 -57 -157c-26 -29 -61 -44 -98 -44c-20 0 -33 1 -46 5l7 38c7 -3 22 -5 41 -5c48 0 83 31 104 139l91 475h-201l-84 -443h-45l84 443h-219l-84 -443h-45l85 443
h-66l8 37h65l5 26c10 56 33 117 73 158c27 27 63 45 109 45c31 0 54 -10 69 -21l-18 -36c-16 10 -37 17 -58 17c-30 0 -55 -10 -74 -29c-28 -29 -46 -77 -57 -137l-4 -23h219l5 28c22 129 91 213 206 213c38 0 81 -12 94 -24z" />
    <glyph glyph-name="f_f_l" unicode="ffl" horiz-adv-x="723" 
d="M399 689l-20 -36c-16 10 -37 16 -58 16c-32 0 -56 -12 -75 -31c-32 -32 -49 -84 -59 -135l-4 -23h219l4 21c13 76 39 136 91 177c34 27 83 43 129 43c43 0 86 -11 106 -25l-132 -696h-45l127 667c-14 8 -32 14 -70 14c-94 0 -141 -73 -160 -170l-6 -31h114l-8 -37h-113
l-84 -443h-45l84 443h-219l-84 -443h-45l85 443h-66l8 37h65l5 26c10 57 33 117 74 157c28 28 64 46 111 46c30 0 56 -10 71 -20z" />
    <glyph glyph-name="f_i" unicode="fi" horiz-adv-x="460" 
d="M91 0h-44l84 443h-65l7 37h66l5 28c23 130 91 213 205 213c39 0 81 -12 95 -24l-19 -38c-18 11 -51 22 -89 22c-88 0 -132 -79 -149 -176l-4 -25h245l-91 -480h-45l84 443h-201z" />
    <glyph glyph-name="f_j" unicode="fj" horiz-adv-x="430" 
d="M443 697l-18 -38c-19 11 -51 22 -89 22c-88 0 -132 -79 -149 -176l-4 -25h245l-93 -488c-15 -78 -31 -128 -58 -157c-25 -29 -61 -44 -97 -44c-20 0 -33 1 -45 5l6 38c8 -3 22 -5 41 -5c47 0 83 31 104 139l90 475h-201l-83 -443h-45l84 443h-65l7 37h66l5 28
c22 129 91 213 205 213c39 0 81 -12 94 -24z" />
    <glyph glyph-name="f_l" unicode="fl" horiz-adv-x="460" 
d="M91 0h-44l84 443h-65l7 37h66l4 21c14 76 39 136 91 177c34 27 83 43 129 43c43 0 86 -11 106 -25l-132 -696h-45l127 667c-15 8 -32 14 -70 14c-94 0 -141 -73 -160 -170l-6 -31h114l-8 -37h-114z" />
    <glyph glyph-name=".notdef" horiz-adv-x="500" 
d="M0 0v700h500v-700h-500zM250 395l170 255h-340zM280 350l170 -255v510zM80 50h340l-170 255zM50 605v-510l170 255z" />
    <glyph glyph-name="space" unicode=" " horiz-adv-x="180" 
 />
    <glyph glyph-name="exclam" unicode="!" horiz-adv-x="215" 
d="M117 177h-39l88 497h56zM68 -11h-1c-23 0 -38 20 -38 44c0 26 17 46 41 46c25 0 40 -20 40 -44s-17 -46 -42 -46z" />
    <glyph glyph-name="quotedbl" unicode="&#x22;" horiz-adv-x="253" 
d="M126 692h57l-55 -221h-32zM249 692h57l-55 -221h-32z" />
    <glyph glyph-name="numbersign" unicode="#" horiz-adv-x="462" 
d="M176 245h92l51 166h-92zM101 0h-41l64 207h-83l7 38h88l51 166h-88l7 37h93l63 202h39l-63 -202h93l63 202h39l-62 -202h83l-7 -37h-88l-51 -166h89l-7 -37h-93l-64 -208h-40l64 208h-92z" />
    <glyph glyph-name="dollar" unicode="$" horiz-adv-x="462" 
d="M186 -85h-39l20 104c-41 1 -92 20 -117 39l16 37c30 -20 68 -39 118 -39c81 0 149 55 149 136c0 51 -21 93 -85 128c-86 46 -119 94 -119 153c0 82 70 156 161 163l20 103h40l-20 -103c45 -2 82 -19 96 -32l-17 -34c-18 9 -47 29 -101 29c-82 0 -133 -53 -133 -120
c0 -53 22 -81 96 -122c75 -44 107 -93 107 -152c0 -103 -70 -174 -172 -186z" />
    <glyph glyph-name="percent" unicode="%" horiz-adv-x="714" 
d="M244 661h1c77 0 104 -68 104 -127c0 -142 -66 -271 -168 -271c-71 0 -107 59 -107 139c0 119 63 259 170 259zM238 627h-1c-72 0 -122 -120 -122 -226c0 -52 14 -104 72 -104c72 0 120 123 120 228c0 43 -12 102 -69 102zM148 -13h-44l496 676h44zM574 393h1
c76 0 103 -68 103 -128c0 -142 -66 -270 -168 -270c-71 0 -107 58 -107 139c0 118 64 259 171 259zM567 359h-1c-72 0 -121 -121 -121 -227c0 -51 13 -103 72 -103c71 0 119 123 119 228c0 42 -11 102 -69 102z" />
    <glyph glyph-name="ampersand" unicode="&#x26;" horiz-adv-x="542" 
d="M486 0h-53c-19 23 -34 44 -53 73c-64 -63 -126 -84 -195 -84c-111 0 -167 78 -167 163c0 107 89 183 171 222v4c-26 48 -37 88 -37 128c0 95 67 179 158 179c83 0 114 -61 114 -122c0 -81 -55 -147 -176 -202v-3c44 -76 100 -165 140 -223c40 52 74 121 107 221h45
c-38 -111 -78 -193 -131 -253c24 -32 46 -65 77 -103zM195 27h1c64 0 121 30 163 77c-30 49 -95 143 -152 241c-54 -30 -143 -87 -143 -188c0 -74 48 -130 131 -130zM305 648h-1c-60 0 -108 -58 -108 -136c0 -41 10 -79 33 -122c100 49 151 98 151 170c0 44 -19 88 -75 88z
" />
    <glyph glyph-name="quoteright" unicode="&#x2019;" horiz-adv-x="156" 
d="M157 682l58 10c-31 -75 -94 -189 -115 -217l-35 -5c24 42 71 150 92 212z" />
    <glyph glyph-name="parenleft" unicode="(" horiz-adv-x="265" 
d="M291 692h48c-106 -114 -222 -294 -222 -535c0 -87 18 -180 64 -277h-39c-45 85 -69 171 -69 283c0 244 127 429 218 529z" />
    <glyph glyph-name="parenright" unicode=")" horiz-adv-x="265" 
d="M-3 -120h-48c106 115 222 296 222 537c0 87 -18 179 -64 275h39c45 -83 69 -169 69 -282c0 -243 -127 -428 -218 -530z" />
    <glyph glyph-name="asterisk" unicode="*" horiz-adv-x="391" 
d="M332 685l40 -24l-101 -123v-2l145 11l-11 -46l-138 12v-2l74 -119l-45 -26l-53 132h-2l-83 -133l-35 27l100 120l1 2l-142 -13l8 46l137 -10v2l-73 120l46 25l52 -130h2z" />
    <glyph glyph-name="plus" unicode="+" horiz-adv-x="596" 
d="M289 532h40v-246h226v-38h-226v-248h-40v248h-227v38h227v246z" />
    <glyph glyph-name="comma" unicode="," horiz-adv-x="181" 
d="M5 -121l-39 -5c23 42 70 150 89 212l63 10c-30 -75 -92 -189 -113 -217z" />
    <glyph glyph-name="hyphen" unicode="-" horiz-adv-x="298" 
d="M50 296h227l-8 -42h-227z" />
    <glyph glyph-name="period" unicode="." horiz-adv-x="181" 
d="M62 -11h-1c-22 0 -38 20 -38 44c0 26 18 46 42 46c25 0 39 -20 39 -44s-16 -46 -42 -46z" />
    <glyph glyph-name="slash" unicode="/" horiz-adv-x="327" 
d="M-17 -40h-45l435 725h47z" />
    <glyph glyph-name="zero" unicode="0" horiz-adv-x="462" 
d="M317 661c114 0 144 -101 144 -192c0 -218 -101 -480 -269 -480c-109 0 -147 96 -147 216c0 224 118 456 272 456zM313 623c-124 0 -221 -224 -221 -422c0 -79 17 -173 108 -173c136 0 215 275 215 433c0 56 -8 162 -102 162z" />
    <glyph glyph-name="one" unicode="1" horiz-adv-x="462" 
d="M181 0l114 598h-2l-101 -56l-12 37l127 71h42l-124 -650h-44z" />
    <glyph glyph-name="two" unicode="2" horiz-adv-x="462" 
d="M362 0h-360l6 32l70 63c201 173 314 290 314 415c0 48 -21 111 -107 111c-59 0 -105 -31 -132 -53l-17 34c41 35 103 59 155 59c117 0 149 -84 149 -147c0 -142 -138 -279 -318 -432l-49 -41v-2h297z" />
    <glyph glyph-name="three" unicode="3" horiz-adv-x="462" 
d="M21 29l18 35c24 -14 60 -35 115 -35c129 0 182 98 182 174c0 95 -72 132 -143 132h-37l7 38h39c58 0 172 48 172 151c0 61 -33 97 -100 97c-44 0 -87 -16 -116 -39l-17 35c37 25 86 44 139 44c108 0 142 -73 142 -131c0 -90 -72 -153 -143 -174v-2
c73 -19 106 -85 106 -150c0 -114 -94 -215 -235 -215c-62 0 -111 22 -129 40z" />
    <glyph glyph-name="four" unicode="4" horiz-adv-x="462" 
d="M301 0h-43l36 192h-282l7 31l369 427h37l-80 -419h96l-8 -39h-96zM77 231h225l50 263c6 31 13 61 20 90l-3 1c-26 -37 -40 -64 -65 -95l-227 -257v-2z" />
    <glyph glyph-name="five" unicode="5" horiz-adv-x="462" 
d="M459 650l-8 -41h-218l-64 -204c11 2 22 3 34 3c23 0 67 -8 101 -26c58 -29 81 -90 81 -142c0 -155 -120 -251 -246 -251c-54 0 -104 20 -122 34l18 36c21 -13 64 -30 114 -30c107 0 189 94 189 198c0 77 -35 141 -155 141c-23 0 -43 -2 -68 -4l88 286h256z" />
    <glyph glyph-name="six" unicode="6" horiz-adv-x="462" 
d="M444 661l-6 -43c-16 0 -38 -1 -63 -7c-116 -26 -225 -131 -275 -288h2c40 59 112 101 175 101c106 0 152 -80 152 -173c0 -121 -94 -262 -226 -262c-111 0 -165 85 -165 204c0 153 86 297 165 365c60 54 125 85 184 96c22 6 42 7 57 7zM208 28h1c96 0 173 112 173 223
c0 88 -42 133 -117 133c-58 0 -123 -40 -165 -107c-5 -9 -10 -19 -11 -30c-3 -16 -6 -37 -6 -62c0 -92 42 -157 125 -157z" />
    <glyph glyph-name="seven" unicode="7" horiz-adv-x="462" 
d="M142 650h357l-6 -35c-128 -204 -257 -410 -390 -615h-49c131 203 260 406 388 608l-2 3h-305z" />
    <glyph glyph-name="eight" unicode="8" horiz-adv-x="462" 
d="M302 661h1c88 0 147 -59 147 -140s-55 -141 -134 -178v-3c72 -39 100 -99 100 -160c0 -119 -103 -191 -207 -191c-112 0 -181 68 -181 158c0 105 78 171 160 203v4c-55 39 -74 82 -74 130c0 96 82 177 188 177zM208 27h1c93 0 161 62 161 149c0 73 -38 120 -133 153
c-78 -20 -162 -77 -162 -178c0 -62 42 -124 133 -124zM294 623h-1c-77 0 -135 -63 -135 -135c0 -57 30 -99 108 -126c78 25 138 80 138 152c0 47 -21 109 -110 109z" />
    <glyph glyph-name="nine" unicode="9" horiz-adv-x="462" 
d="M62 -11l5 42c17 0 40 2 62 6c46 10 97 35 144 79c48 43 95 110 128 205h-3c-47 -56 -108 -86 -165 -86c-109 0 -147 91 -147 165c0 127 99 261 225 261c112 0 154 -91 154 -191c0 -167 -100 -324 -170 -387c-50 -43 -107 -73 -162 -86c-23 -5 -50 -9 -71 -8zM306 622h-1
c-95 0 -173 -105 -173 -218c0 -72 35 -129 111 -129c61 0 118 37 155 95c6 8 11 17 13 27c4 19 8 47 8 76c0 86 -30 149 -113 149z" />
    <glyph glyph-name="colon" unicode=":" horiz-adv-x="181" 
d="M133 361h-1c-22 0 -38 20 -38 44c0 26 18 46 42 46c25 0 39 -20 39 -45c0 -23 -16 -45 -42 -45zM62 -11h-1c-22 0 -38 20 -38 44c0 26 18 46 42 46c25 0 39 -20 39 -44s-16 -46 -42 -46z" />
    <glyph glyph-name="semicolon" unicode=";" horiz-adv-x="181" 
d="M5 -121l-39 -5c23 42 70 150 89 212l63 10c-30 -75 -92 -189 -113 -217zM139 361h-1c-23 0 -39 20 -39 44c0 26 18 46 42 46c25 0 39 -20 39 -45c0 -23 -16 -45 -41 -45z" />
    <glyph glyph-name="less" unicode="&#x3c;" horiz-adv-x="596" 
d="M95 249v34l431 249v-45l-385 -220v-2l385 -220v-45z" />
    <glyph glyph-name="equal" unicode="=" horiz-adv-x="596" 
d="M558 347h-493v38h493v-38zM558 155h-493v38h493v-38z" />
    <glyph glyph-name="greater" unicode="&#x3e;" horiz-adv-x="596" 
d="M534 283v-34l-431 -249v45l385 220v2l-385 220v45z" />
    <glyph glyph-name="question" unicode="?" horiz-adv-x="351" 
d="M169 175h-43c1 9 1 18 1 26c4 54 34 121 102 193c48 50 91 101 91 167c0 41 -20 84 -86 84c-34 0 -66 -10 -95 -28l-13 36c38 22 78 33 117 33c97 0 126 -71 126 -118c0 -77 -47 -138 -110 -202c-55 -58 -81 -106 -86 -161c0 -10 -2 -20 -4 -30zM118 -11h-1
c-22 0 -38 20 -38 44c0 26 18 46 42 46c25 0 39 -20 39 -44s-16 -46 -42 -46z" />
    <glyph glyph-name="at" unicode="@" horiz-adv-x="702" 
d="M445 258l25 124c-11 4 -32 10 -62 10c-101 0 -186 -95 -186 -205c0 -48 27 -84 78 -84c70 0 132 91 145 155zM488 -28l15 -35c-51 -31 -111 -42 -170 -42c-174 0 -300 121 -300 312c0 207 138 386 358 386c173 0 283 -123 283 -289c0 -153 -85 -238 -169 -238
c-36 0 -75 27 -68 94h-4c-38 -64 -85 -94 -149 -94c-54 0 -105 46 -105 122c0 126 103 241 238 241c42 0 74 -8 101 -19l-37 -179c-18 -87 -4 -127 33 -127c56 -2 116 75 116 191c0 155 -90 261 -246 261c-169 0 -308 -135 -308 -346c0 -166 105 -277 263 -277
c53 0 109 14 149 39z" />
    <glyph glyph-name="A" unicode="A" horiz-adv-x="537" 
d="M402 237h-257l-124 -237h-47l361 674h44l102 -674h-44zM168 276h227l-34 225c-4 34 -10 81 -13 119h-3c-18 -39 -34 -75 -56 -117z" />
    <glyph glyph-name="B" unicode="B" horiz-adv-x="480" 
d="M40 4l126 662c36 7 77 13 124 13c69 0 118 -18 149 -53c22 -27 29 -58 29 -94c0 -85 -72 -154 -151 -173v-3c59 -16 115 -65 114 -151c0 -67 -35 -122 -74 -154c-51 -41 -119 -56 -196 -56c-47 0 -90 3 -121 9zM205 634l-49 -257h70c108 0 195 60 195 157
c0 75 -55 107 -140 107c-33 0 -62 -2 -76 -7zM148 340l-56 -300c24 -4 52 -5 76 -5c111 -1 216 46 216 174c0 87 -73 131 -154 131h-82z" />
    <glyph glyph-name="C" unicode="C" horiz-adv-x="538" 
d="M470 62l10 -38c-39 -18 -101 -35 -173 -35c-164 0 -259 108 -259 277c0 111 42 234 128 316c70 66 158 103 258 103c76 0 130 -20 145 -35l-19 -36c-28 18 -77 31 -138 31c-78 0 -159 -33 -217 -90c-68 -67 -110 -174 -110 -281c0 -128 52 -245 221 -245
c53 0 114 11 154 33z" />
    <glyph glyph-name="D" unicode="D" horiz-adv-x="626" 
d="M40 1l125 665c48 8 101 13 156 13c117 0 204 -37 250 -100c25 -33 47 -90 47 -166c0 -117 -45 -243 -133 -321c-78 -67 -176 -97 -295 -97c-45 0 -100 2 -150 6zM204 632l-112 -592c38 -5 77 -5 101 -5c125 0 209 34 272 96c70 68 106 173 106 277
c0 127 -58 232 -256 232c-34 0 -81 -2 -111 -8z" />
    <glyph glyph-name="E" unicode="E" horiz-adv-x="441" 
d="M404 375l-8 -39h-248l-56 -297h280l-8 -39h-325l128 674h310l-8 -39h-264l-50 -260h249z" />
    <glyph glyph-name="F" unicode="F" horiz-adv-x="437" 
d="M39 0l128 674h310l-8 -39h-264l-52 -270h241l-8 -39h-240l-62 -326h-45z" />
    <glyph glyph-name="G" unicode="G" horiz-adv-x="592" 
d="M554 333l-57 -305c-31 -15 -97 -35 -172 -35c-97 0 -170 29 -218 91c-49 61 -58 134 -58 189c0 103 42 226 128 306c70 64 162 102 265 102c80 0 130 -20 147 -32l-17 -38c-37 20 -80 30 -141 30c-87 0 -169 -36 -232 -99c-66 -66 -103 -173 -103 -264
c0 -141 64 -245 241 -245c44 0 91 10 120 23l45 238h-156l7 39h201z" />
    <glyph glyph-name="H" unicode="H" horiz-adv-x="603" 
d="M167 674h46l-58 -297h351l57 297h45l-129 -674h-45l64 338h-350l-64 -338h-45z" />
    <glyph glyph-name="I" unicode="I" horiz-adv-x="208" 
d="M167 674h46l-129 -674h-45z" />
    <glyph glyph-name="J" unicode="J" horiz-adv-x="342" 
d="M220 203l89 471h45l-90 -475c-28 -150 -89 -210 -199 -210c-39 0 -79 10 -93 18l12 39c22 -11 50 -16 87 -16c76 0 124 41 149 173z" />
    <glyph glyph-name="K" unicode="K" horiz-adv-x="469" 
d="M39 0l128 674h46l-66 -344l5 1c25 28 49 52 70 74l268 269h57l-290 -289l184 -385h-49l-169 354l-86 -79l-53 -275h-45z" />
    <glyph glyph-name="L" unicode="L" horiz-adv-x="414" 
d="M39 0l128 674h46l-122 -635h280l-8 -39h-324z" />
    <glyph glyph-name="M" unicode="M" horiz-adv-x="754" 
d="M649 0h-45l53 417c7 59 22 161 31 206h-3c-27 -56 -62 -128 -99 -194l-239 -429h-33l-66 419c-13 79 -20 148 -26 204h-2c-11 -45 -33 -147 -48 -206l-107 -417h-45l178 674h52l73 -467c9 -53 17 -106 19 -141h3c16 35 41 84 70 137l261 471h55z" />
    <glyph glyph-name="N" unicode="N" horiz-adv-x="611" 
d="M83 0h-44l128 674h43l195 -458c31 -71 44 -114 57 -162l2 1c4 56 10 101 27 192l81 427h44l-128 -674h-41l-190 450c-35 79 -48 117 -61 170l-3 -2c-7 -61 -15 -111 -30 -194z" />
    <glyph glyph-name="O" unicode="O" horiz-adv-x="645" 
d="M393 685c184 0 244 -139 244 -273c0 -114 -42 -248 -124 -330c-58 -58 -132 -93 -220 -93c-174 0 -244 136 -244 270c0 117 47 255 131 338c54 54 136 88 213 88zM386 646c-69 0 -130 -30 -177 -78c-72 -72 -114 -199 -114 -301c0 -119 52 -239 205 -239
c67 0 130 29 179 79c71 70 112 198 112 302c0 102 -32 237 -205 237z" />
    <glyph glyph-name="P" unicode="P" horiz-adv-x="476" 
d="M39 0l127 666c35 7 80 13 128 13c68 0 126 -20 157 -57c23 -29 34 -63 34 -109c0 -69 -36 -132 -75 -166c-50 -45 -125 -66 -197 -66c-26 0 -49 1 -75 6l-54 -287h-45zM204 632l-58 -304c28 -7 50 -8 74 -8c131 0 219 80 219 192c0 90 -64 128 -154 128
c-36 0 -64 -3 -81 -8z" />
    <glyph glyph-name="Q" unicode="Q" horiz-adv-x="645" 
d="M562 -36l-19 -42c-87 18 -203 48 -223 56c-31 9 -41 11 -46 11c-124 6 -225 103 -225 270c0 116 46 253 128 335c55 56 138 91 216 91c184 0 244 -139 244 -273c0 -107 -41 -245 -121 -326c-42 -41 -100 -75 -148 -85v-3c70 -14 138 -27 194 -34zM386 646
c-68 0 -128 -29 -175 -76c-73 -73 -116 -202 -116 -304c0 -116 48 -238 200 -238c72 0 135 29 182 76c74 73 114 206 114 305c0 96 -30 237 -205 237z" />
    <glyph glyph-name="R" unicode="R" horiz-adv-x="486" 
d="M39 0l126 666c39 8 87 13 127 13c69 0 122 -20 151 -55c24 -28 34 -64 34 -100c0 -96 -80 -176 -164 -197v-2c51 -15 76 -69 80 -143c7 -105 11 -155 18 -182h-47c-3 12 -10 90 -14 165c-4 100 -42 146 -115 146h-92l-59 -311h-45zM205 632l-55 -283h84
c122 0 196 81 196 172c0 83 -60 120 -147 120c-37 0 -61 -3 -78 -9z" />
    <glyph glyph-name="S" unicode="S" horiz-adv-x="438" 
d="M19 36l19 36c34 -25 81 -43 133 -43c89 0 170 57 170 156c0 58 -27 103 -103 145c-95 52 -131 106 -131 170c0 111 94 185 204 185c56 0 106 -20 125 -37l-19 -35c-21 13 -60 33 -112 33c-93 0 -153 -68 -153 -135c0 -64 30 -99 109 -143c83 -45 125 -98 125 -182
c0 -96 -71 -197 -224 -197c-51 0 -117 21 -143 47z" />
    <glyph glyph-name="T" unicode="T" horiz-adv-x="441" 
d="M152 0l121 635h-209l8 39h462l-7 -39h-209l-121 -635h-45z" />
    <glyph glyph-name="U" unicode="U" horiz-adv-x="600" 
d="M167 674h46l-78 -407c-6 -30 -8 -60 -8 -87c0 -106 60 -151 142 -151c102 0 180 70 212 237l78 408h45l-79 -415c-39 -200 -145 -270 -264 -270c-94 0 -180 54 -180 189c0 29 3 61 9 92z" />
    <glyph glyph-name="V" unicode="V" horiz-adv-x="495" 
d="M214 0h-45l-83 674h45l60 -500c8 -68 12 -90 11 -119h4c12 27 25 64 64 135l254 484h48z" />
    <glyph glyph-name="W" unicode="W" horiz-adv-x="807" 
d="M183 0h-45l-37 674h45l23 -468c4 -91 2 -118 2 -149h3c11 30 22 59 63 143l227 474h46l24 -441c5 -92 7 -145 6 -176h3c18 51 35 93 60 148l222 469h47l-322 -674h-45l-25 449c-6 78 -6 98 -1 176h-3c-21 -60 -36 -99 -60 -146z" />
    <glyph glyph-name="X" unicode="X" horiz-adv-x="492" 
d="M435 0h-48l-76 187c-20 46 -36 88 -47 119h-2c-20 -28 -48 -66 -85 -114l-147 -192h-54l270 343l-131 331h48l78 -200c16 -39 27 -70 36 -96h2c19 26 45 62 71 95l160 201h55l-269 -330z" />
    <glyph glyph-name="Y" unicode="Y" horiz-adv-x="484" 
d="M212 0h-45l54 283l-129 391h48l79 -247c20 -61 27 -86 31 -107h2c14 23 38 61 74 111l172 243h52l-285 -392z" />
    <glyph glyph-name="Z" unicode="Z" horiz-adv-x="504" 
d="M-16 0l6 32l498 600v3h-350l8 39h410l-6 -32l-498 -600l2 -3h386l-7 -39h-449z" />
    <glyph glyph-name="bracketleft" unicode="[" horiz-adv-x="265" 
d="M191 -111h-159l152 797h159l-7 -36h-117l-138 -725h116z" />
    <glyph glyph-name="backslash" unicode="\" horiz-adv-x="324" 
d="M307 -40h-44l-197 725h44z" />
    <glyph glyph-name="bracketright" unicode="]" horiz-adv-x="265" 
d="M99 686h159l-152 -797h-159l6 36h118l138 725h-117z" />
    <glyph glyph-name="asciicircum" unicode="^" horiz-adv-x="596" 
d="M528 196h-43l-175 408h-2l-175 -408h-43l198 454l42 -1z" />
    <glyph glyph-name="underscore" unicode="_" horiz-adv-x="500" 
d="M-45 -75h500l-10 -50h-500z" />
    <glyph glyph-name="quoteleft" unicode="&#x2018;" horiz-adv-x="156" 
d="M138 480l-60 -10c32 75 95 189 116 217l35 5c-24 -42 -72 -150 -91 -212z" />
    <glyph glyph-name="a" unicode="a" horiz-adv-x="503" 
d="M402 0h-43c-1 30 5 83 13 142h-2c-56 -112 -126 -153 -201 -153c-84 0 -133 68 -133 153c0 171 132 349 324 349c39 0 82 -6 111 -14l-48 -250c-18 -97 -23 -178 -21 -227zM389 277l31 166c-12 5 -32 9 -69 9c-145 0 -268 -140 -269 -302c0 -58 18 -122 97 -122
c86 0 184 115 210 249z" />
    <glyph glyph-name="b" unicode="b" horiz-adv-x="503" 
d="M166 710h45l-67 -335l2 -1c47 79 114 117 182 117c108 0 145 -90 145 -175c0 -142 -109 -327 -287 -327c-66 0 -134 27 -134 117c0 20 4 47 7 67zM116 234l-12 -59c-4 -17 -7 -37 -7 -65c0 -53 30 -82 93 -82c151 0 237 168 237 289c0 68 -30 135 -110 135
c-84 0 -172 -88 -201 -218z" />
    <glyph glyph-name="c" unicode="c" horiz-adv-x="416" 
d="M341 60l12 -38c-20 -11 -71 -33 -141 -33c-127 0 -174 91 -174 179c0 160 117 323 283 323c47 0 91 -16 101 -25l-16 -38c-21 10 -51 22 -92 22c-140 0 -229 -147 -229 -275c0 -85 40 -146 135 -146c54 0 96 18 121 31z" />
    <glyph glyph-name="d" unicode="d" horiz-adv-x="503" 
d="M471 710h45l-111 -579c-8 -43 -16 -91 -19 -131h-41l16 106h-2c-45 -71 -106 -117 -183 -117c-99 0 -140 84 -140 171c0 173 131 331 294 331c37 0 76 -8 97 -19zM381 237l37 192c-20 13 -51 23 -93 23c-134 0 -243 -139 -243 -288c0 -59 17 -136 106 -136
c78 0 171 90 193 209z" />
    <glyph glyph-name="e" unicode="e" horiz-adv-x="423" 
d="M336 63l13 -35c-24 -16 -74 -39 -145 -39c-122 0 -167 93 -167 188c0 143 108 314 251 314c87 0 124 -54 124 -110c0 -129 -156 -155 -325 -152c-6 -26 -5 -85 7 -118c19 -55 61 -82 116 -82c60 0 102 20 126 34zM366 378v1c0 48 -37 73 -86 73c-87 0 -159 -91 -186 -185
c142 -2 272 17 272 111z" />
    <glyph glyph-name="f" unicode="f" horiz-adv-x="255" 
d="M91 0h-45l84 443h-65l8 37h65l5 26c13 73 37 136 77 175c25 23 61 40 100 40c32 0 51 -7 60 -13l-14 -37c-12 7 -31 10 -50 10c-77 0 -112 -79 -129 -178l-4 -23h115l-8 -37h-115z" />
    <glyph glyph-name="g" unicode="g" horiz-adv-x="503" 
d="M8 -173l17 37c31 -20 72 -35 128 -35c88 0 158 47 192 199l20 92h-2c-45 -82 -113 -122 -186 -122c-97 0 -141 84 -141 163c0 167 123 330 294 330c48 0 110 -17 139 -33l-74 -398c-21 -110 -49 -175 -94 -216c-46 -42 -108 -53 -157 -53c-55 0 -107 14 -136 36zM384 251
l35 180c-18 9 -54 21 -98 21c-142 0 -238 -145 -239 -281c0 -56 17 -134 109 -134c87 0 174 112 193 214z" />
    <glyph glyph-name="h" unicode="h" horiz-adv-x="516" 
d="M83 0h-45l135 710h46l-65 -329h2c43 68 105 110 184 110c42 0 118 -24 118 -128c0 -27 -2 -55 -7 -78l-54 -285h-45l54 287c4 16 7 40 7 70c0 52 -26 94 -91 94c-73 0 -171 -83 -192 -197z" />
    <glyph glyph-name="i" unicode="i" horiz-adv-x="206" 
d="M83 0h-45l92 480h45zM176 578h-1c-21 0 -33 19 -33 40c1 22 16 40 37 40c23 0 36 -18 36 -40c-2 -21 -15 -40 -39 -40z" />
    <glyph glyph-name="j" unicode="j" horiz-adv-x="197" 
d="M129 480h45l-94 -488c-15 -78 -30 -128 -57 -157c-26 -29 -62 -44 -98 -44c-20 0 -34 1 -46 5l6 38c8 -3 23 -5 42 -5c48 0 83 31 104 139zM171 578h-1c-21 0 -34 19 -33 40c1 22 16 40 37 40c22 0 35 -18 35 -40c-1 -21 -15 -40 -38 -40z" />
    <glyph glyph-name="k" unicode="k" horiz-adv-x="411" 
d="M83 0h-45l136 710h45l-88 -458h2c15 16 34 34 46 45l198 183h57l-213 -196l149 -284h-48l-135 257l-66 -56z" />
    <glyph glyph-name="l" unicode="l" horiz-adv-x="206" 
d="M83 0h-45l135 710h46z" />
    <glyph glyph-name="m" unicode="m" horiz-adv-x="794" 
d="M83 0h-45l66 351c10 49 16 91 21 129h42l-15 -97h2c46 70 107 108 173 108c71 0 108 -45 111 -117c43 74 104 116 183 117c44 0 116 -28 116 -124c0 -23 -2 -52 -7 -81l-55 -286h-45l54 286c4 18 7 44 7 65c0 62 -22 100 -88 100c-68 0 -154 -73 -175 -187l-49 -264h-45
l56 293c5 23 7 41 7 61c0 45 -12 97 -89 97c-67 0 -158 -87 -177 -194z" />
    <glyph glyph-name="n" unicode="n" horiz-adv-x="516" 
d="M83 0h-45l66 351c10 49 16 91 21 129h42l-15 -103h2c42 70 110 114 185 114c43 0 120 -23 120 -134c0 -22 -4 -49 -9 -76l-53 -281h-45l54 285c3 20 7 44 7 66c0 57 -23 100 -92 100c-68 0 -170 -78 -193 -205z" />
    <glyph glyph-name="o" unicode="o" horiz-adv-x="500" 
d="M292 491c130 0 178 -104 178 -201c0 -131 -96 -301 -254 -301c-119 0 -178 96 -178 196c0 154 107 306 254 306zM289 453c-118 0 -204 -132 -204 -264c0 -92 53 -161 137 -161c109 0 201 133 201 263c0 64 -30 162 -134 162z" />
    <glyph glyph-name="p" unicode="p" horiz-adv-x="503" 
d="M37 -198h-46l99 518c11 58 20 112 26 160h43l-16 -103h2c46 70 114 114 184 114c105 0 144 -86 144 -168c0 -170 -128 -334 -283 -334c-59 0 -93 12 -113 23h-2zM113 209l-28 -153c25 -18 62 -28 109 -28c125 0 232 147 232 292c0 58 -25 132 -110 132
c-73 0 -173 -83 -203 -243z" />
    <glyph glyph-name="q" unicode="q" horiz-adv-x="503" 
d="M343 -198h-45l57 297h-2c-42 -69 -113 -110 -178 -110c-100 0 -139 85 -139 170c0 165 128 332 292 332c61 0 112 -16 139 -33zM382 242l35 189c-17 10 -51 21 -95 21c-124 0 -239 -126 -239 -288c-1 -85 38 -136 97 -136c96 0 182 108 202 214z" />
    <glyph glyph-name="r" unicode="r" horiz-adv-x="287" 
d="M83 0h-45l62 324c10 57 18 110 24 156h41c-5 -34 -9 -68 -16 -108h3c30 67 80 119 143 119c7 0 17 -1 22 -2l-9 -46c-5 2 -12 2 -22 2c-60 0 -137 -90 -159 -212z" />
    <glyph glyph-name="s" unicode="s" horiz-adv-x="346" 
d="M16 20l17 37c20 -14 54 -28 90 -28c65 0 110 46 110 100c0 46 -17 74 -71 106c-55 33 -77 76 -77 119c0 74 63 137 151 137c35 0 70 -12 85 -23l-17 -39c-14 10 -42 23 -74 23c-58 0 -100 -41 -100 -91c0 -45 25 -70 70 -97c55 -33 79 -77 79 -123
c0 -95 -75 -152 -160 -152c-46 0 -85 17 -103 31z" />
    <glyph glyph-name="t" unicode="t" horiz-adv-x="292" 
d="M164 568l49 18l-20 -106h122l-7 -37h-123l-52 -278c-6 -32 -10 -56 -10 -86c0 -32 16 -51 48 -51c16 0 29 2 39 5l4 -36c-13 -5 -32 -8 -52 -8c-64 0 -86 45 -86 87c0 29 4 58 11 91l53 276h-73l7 37h74z" />
    <glyph glyph-name="u" unicode="u" horiz-adv-x="506" 
d="M428 480h45l-67 -351c-9 -48 -15 -91 -18 -129h-43l15 99h-2c-39 -63 -105 -110 -172 -110c-52 0 -129 21 -129 142c0 21 3 45 9 76l52 273h45l-52 -274c-6 -30 -9 -52 -9 -75c0 -61 25 -101 95 -101c67 0 161 78 182 189z" />
    <glyph glyph-name="v" unicode="v" horiz-adv-x="420" 
d="M55 480h45l54 -313c9 -52 15 -89 17 -110h2c10 20 21 49 50 101l178 322h48l-268 -480h-41z" />
    <glyph glyph-name="w" unicode="w" horiz-adv-x="691" 
d="M67 480h43l27 -311c6 -63 6 -85 6 -115h3c8 19 23 56 49 104l173 322h44l42 -318c7 -51 11 -88 12 -108h2c11 30 22 61 41 100l160 326h47l-240 -480h-41l-43 320c-6 41 -10 79 -9 112h-2c-17 -33 -32 -70 -55 -112l-173 -320h-42z" />
    <glyph glyph-name="x" unicode="x" horiz-adv-x="405" 
d="M72 480h48l58 -125c12 -26 22 -50 33 -74h3c19 27 28 40 53 70l111 129h53l-203 -234l115 -246h-49l-59 129c-18 36 -24 51 -37 84h-3c-15 -23 -30 -44 -50 -69l-122 -144h-53l212 247z" />
    <glyph glyph-name="y" unicode="y" horiz-adv-x="406" 
d="M51 480h46l59 -289c12 -59 19 -95 25 -134h3c14 32 30 67 56 121l146 302h48l-186 -377c-44 -90 -87 -173 -153 -240c-52 -54 -106 -77 -131 -83l-13 39c19 7 57 22 92 51c33 27 72 72 102 128c5 9 4 14 3 22z" />
    <glyph glyph-name="z" unicode="z" horiz-adv-x="393" 
d="M-19 0l5 29l282 317c41 47 65 69 89 93v4h-272l8 37h326l-7 -32l-279 -314c-43 -48 -65 -70 -88 -93v-3h292l-8 -38h-348z" />
    <glyph glyph-name="braceleft" unicode="{" horiz-adv-x="265" 
d="M34 271l6 34c69 -1 88 40 95 79c11 58 4 114 15 173c17 91 75 129 151 129h15l-7 -36h-18c-58 0 -88 -35 -100 -96c-10 -55 -2 -108 -12 -161c-10 -61 -42 -93 -82 -105v-2c36 -11 46 -41 46 -68c0 -37 -13 -79 -28 -118c-15 -37 -29 -74 -29 -103c0 -39 17 -71 67 -72
h18l-7 -36h-11c-65 0 -108 38 -108 100c0 40 14 81 28 120c14 38 29 75 29 106c0 13 1 58 -68 56z" />
    <glyph glyph-name="bar" unicode="|" horiz-adv-x="203" 
d="M100 750h40v-1000h-40v1000z" />
    <glyph glyph-name="braceright" unicode="}" horiz-adv-x="265" 
d="M244 302l-6 -34c-68 2 -87 -39 -94 -78c-12 -58 -5 -114 -16 -173c-16 -90 -75 -128 -151 -128h-15l7 36h18c58 0 88 34 100 95c10 55 3 108 12 161c11 59 42 93 83 104v2c-36 12 -46 43 -46 70c0 34 14 75 28 115c14 39 28 77 28 105c0 40 -17 71 -67 73h-18l7 36h11
c65 0 109 -38 109 -100c0 -43 -14 -84 -29 -123c-15 -38 -28 -73 -28 -104c0 -13 -1 -58 67 -57z" />
    <glyph glyph-name="asciitilde" unicode="~" horiz-adv-x="596" 
d="M111 224h-38c-5 77 46 124 106 124c30 0 70 -9 132 -40c50 -25 95 -43 139 -43c43 0 63 32 63 82h37c5 -90 -49 -124 -104 -124c-29 0 -73 9 -136 40c-46 23 -91 44 -136 44c-35 0 -63 -29 -63 -83z" />
    <glyph glyph-name="exclamdown" unicode="&#xa1;" horiz-adv-x="215" 
d="M55 -197h-57l104 493h39zM151 485h1c23 0 39 -21 39 -44c0 -26 -18 -46 -42 -46c-25 0 -40 20 -40 44c0 23 17 46 42 46z" />
    <glyph glyph-name="cent" unicode="&#xa2;" horiz-adv-x="462" 
d="M244 -16h-40l21 104c-55 9 -89 33 -113 68c-23 33 -32 76 -32 115c0 150 109 284 241 299l19 104h40l-20 -103c35 0 79 -15 94 -28l-20 -35c-23 13 -55 26 -103 26c-97 0 -205 -114 -205 -263c0 -80 42 -145 134 -145c48 0 86 14 110 25l9 -36c-18 -12 -69 -26 -115 -26z
" />
    <glyph glyph-name="sterling" unicode="&#xa3;" horiz-adv-x="462" 
d="M407 0h-376l6 33c72 36 121 108 135 185c5 27 6 59 8 95h-88l7 37h84c1 33 2 82 11 132c20 112 87 179 190 179c35 0 66 -11 81 -21l-16 -37c-18 10 -47 19 -76 19c-77 0 -122 -56 -136 -141c-8 -50 -10 -93 -11 -131h156l-7 -37h-150c-2 -28 -4 -59 -10 -92
c-13 -70 -49 -131 -109 -178v-3h309z" />
    <glyph glyph-name="fraction" unicode="&#x2044;" horiz-adv-x="141" 
d="M-130 -11h-45l486 672h45z" />
    <glyph glyph-name="yen" unicode="&#xa5;" horiz-adv-x="462" 
d="M204 0h-44l35 186h-144l7 35h144l15 79h-144l7 35h127l-101 315h45l72 -234c10 -31 17 -53 24 -81h4c13 25 32 54 53 84l167 231h49l-233 -315h125l-7 -35h-144l-16 -79h145l-7 -35h-144z" />
    <glyph glyph-name="florin" unicode="&#x192;" horiz-adv-x="462" 
d="M131 358l7 37h96l15 56c34 127 79 210 187 210c31 -1 48 -7 59 -15l-15 -36c-16 7 -33 13 -57 13c-74 0 -110 -81 -135 -186l-10 -42h125l-7 -37h-126l-56 -219c-35 -134 -77 -219 -174 -219c-25 0 -55 8 -67 17l12 34c15 -9 39 -13 60 -13c62 0 96 71 122 173l59 227
h-95z" />
    <glyph glyph-name="section" unicode="&#xa7;" horiz-adv-x="468" 
d="M134 359v-1c0 -39 13 -67 88 -106c41 -21 67 -38 88 -56c38 25 65 64 65 105c0 31 -9 66 -86 107c-27 14 -59 33 -84 52c-46 -25 -71 -65 -71 -101zM439 653l-18 -33c-21 15 -54 30 -101 30c-58 0 -115 -40 -115 -97c0 -53 38 -74 104 -107c67 -36 108 -71 108 -134
c0 -66 -37 -107 -84 -140c14 -19 21 -45 21 -70c0 -103 -86 -153 -176 -152c-54 0 -104 18 -124 35l17 36c23 -14 57 -35 112 -35c73 0 129 43 129 109c0 39 -17 73 -101 116c-78 39 -121 78 -121 137c0 50 33 98 93 136c-13 17 -21 37 -21 62c0 81 74 139 166 139
c50 0 94 -18 111 -32z" />
    <glyph glyph-name="currency" unicode="&#xa4;" horiz-adv-x="462" 
d="M252 524h1c46 0 90 -17 116 -43l66 69l30 -33l-70 -64c22 -28 36 -74 36 -121c0 -52 -15 -97 -35 -122l69 -67l-31 -32l-65 69c-31 -30 -77 -44 -117 -44c-42 0 -88 15 -113 40l-62 -65l-32 32l66 63c-21 27 -38 70 -38 120c0 52 17 97 41 127l-69 64l32 33l64 -69
c26 27 69 43 111 43zM252 487h-1c-87 0 -134 -76 -134 -158c0 -113 76 -156 135 -156c67 0 136 42 136 158c0 76 -42 156 -136 156z" />
    <glyph glyph-name="quotesingle" unicode="'" horiz-adv-x="147" 
d="M134 692h57l-54 -221h-32z" />
    <glyph glyph-name="quotedblleft" unicode="&#x201c;" horiz-adv-x="277" 
d="M137 480l-59 -10c32 75 95 189 116 217l35 5c-24 -42 -71 -150 -92 -212zM257 480l-58 -10c31 75 94 189 115 217l35 5c-24 -42 -71 -150 -92 -212z" />
    <glyph glyph-name="guillemotleft" unicode="&#xab;" horiz-adv-x="377" 
d="M245 432l-157 -181l105 -179h-46l-108 180l156 180h50zM390 432l-157 -181l106 -179h-46l-108 180l156 180h49z" />
    <glyph glyph-name="guilsinglleft" unicode="&#x2039;" horiz-adv-x="231" 
d="M245 432l-157 -181l105 -179h-46l-108 180l156 180h50z" />
    <glyph glyph-name="guilsinglright" unicode="&#x203a;" horiz-adv-x="231" 
d="M166 254l-106 178h46l108 -180l-156 -180h-49z" />
    <glyph glyph-name="fi" unicode="&#xe016;" horiz-adv-x="460" 
d="M91 0h-44l84 443h-65l7 37h66l5 28c23 130 91 213 205 213c39 0 81 -12 95 -24l-19 -38c-18 11 -51 22 -89 22c-88 0 -132 -79 -149 -176l-4 -25h245l-91 -480h-45l84 443h-201z" />
    <glyph glyph-name="fl" unicode="&#xe017;" horiz-adv-x="460" 
d="M91 0h-44l84 443h-65l7 37h66l4 21c14 76 39 136 91 177c34 27 83 43 129 43c43 0 86 -11 106 -25l-132 -696h-45l127 667c-15 8 -32 14 -70 14c-94 0 -141 -73 -160 -170l-6 -31h114l-8 -37h-114z" />
    <glyph glyph-name="endash" unicode="&#x2013;" horiz-adv-x="500" 
d="M40 273h441l-8 -38h-440z" />
    <glyph glyph-name="dagger" unicode="&#x2020;" horiz-adv-x="460" 
d="M293 674h46l-47 -217l166 4l-9 -44l-163 5l-86 -472h-46l95 472l-164 -5l8 44l163 -4z" />
    <glyph glyph-name="daggerdbl" unicode="&#x2021;" horiz-adv-x="460" 
d="M293 674h46l-45 -210l165 5l-9 -44l-162 4l-44 -231l164 5l-9 -44l-162 4l-37 -213h-46l45 213l-164 -4l9 44l162 -5l44 231l-164 -4l8 44l163 -5z" />
    <glyph glyph-name="periodcentered" unicode="&#xb7;" horiz-adv-x="181" 
d="M96 218h-1c-22 0 -38 20 -38 44c0 26 18 46 42 46c25 0 39 -20 39 -45c0 -23 -16 -45 -42 -45z" />
    <glyph glyph-name="paragraph" unicode="&#xb6;" horiz-adv-x="468" 
d="M209 -52h-40l61 316h-8c-54 1 -145 52 -145 175s99 235 294 235c41 0 70 -3 89 -7l-138 -719h-40l131 687h-73z" />
    <glyph glyph-name="bullet" unicode="&#x2022;" horiz-adv-x="240" 
d="M129 178h-1c-48 0 -88 39 -88 89c-1 49 40 89 89 89c50 0 90 -40 90 -89s-40 -89 -90 -89z" />
    <glyph glyph-name="quotesinglbase" unicode="&#x201a;" horiz-adv-x="156" 
d="M-17 -121l-35 -5c24 42 72 150 91 212l59 10c-31 -75 -94 -189 -115 -217z" />
    <glyph glyph-name="quotedblbase" unicode="&#x201e;" horiz-adv-x="277" 
d="M-17 -121l-35 -5c24 42 72 150 91 212l59 10c-31 -75 -94 -189 -115 -217zM104 -121l-35 -5c23 42 71 150 90 212l60 10c-31 -75 -95 -189 -115 -217z" />
    <glyph glyph-name="quotedblright" unicode="&#x201d;" horiz-adv-x="277" 
d="M157 682l58 10c-31 -75 -94 -189 -115 -217l-35 -5c24 42 72 150 92 212zM277 682l59 10c-32 -75 -95 -189 -116 -217l-35 -5c24 42 72 150 92 212z" />
    <glyph glyph-name="guillemotright" unicode="&#xbb;" horiz-adv-x="377" 
d="M166 254l-106 178h46l108 -180l-156 -180h-49zM311 254l-105 178h45l109 -180l-156 -180h-50z" />
    <glyph glyph-name="ellipsis" unicode="&#x2026;" horiz-adv-x="1000" 
d="M128 -11h-1c-22 0 -38 20 -38 44c0 26 18 46 42 46c25 0 39 -20 39 -44s-16 -46 -42 -46zM462 -11h-1c-23 0 -39 20 -39 44c0 26 18 46 42 46c25 0 39 -20 39 -44s-16 -46 -41 -46zM795 -11h-1c-23 0 -39 20 -39 44c0 26 18 46 42 46c25 0 40 -20 40 -44s-17 -46 -42 -46
z" />
    <glyph glyph-name="perthousand" unicode="&#x2030;" horiz-adv-x="1040" 
d="M246 661h1c77 0 103 -68 103 -127c0 -142 -65 -271 -168 -271c-70 0 -106 59 -106 139c0 119 63 259 170 259zM240 627h-1c-72 0 -122 -120 -122 -226c0 -52 14 -104 72 -104c72 0 120 123 120 228c0 43 -12 102 -69 102zM149 -13h-44l496 676h44zM573 393h1
c77 0 104 -68 104 -128c0 -142 -66 -270 -168 -270c-71 0 -107 58 -107 139c0 118 63 259 170 259zM567 359h-1c-72 0 -122 -121 -122 -227c0 -51 14 -103 72 -103c72 0 120 123 120 228c0 42 -12 102 -69 102zM903 393h1c76 0 103 -68 103 -128c0 -142 -66 -270 -168 -270
c-71 0 -107 58 -107 139c0 118 64 259 171 259zM896 359h-1c-72 0 -121 -121 -121 -227c0 -51 13 -103 72 -103c71 0 119 123 119 228c0 42 -11 102 -69 102z" />
    <glyph glyph-name="questiondown" unicode="&#xbf;" horiz-adv-x="351" 
d="M203 299h44c0 -9 -1 -17 -2 -27c-2 -54 -34 -120 -103 -191c-49 -50 -89 -104 -89 -168c0 -42 21 -84 87 -84c32 0 64 8 94 27l14 -38c-37 -20 -79 -31 -114 -31c-103 0 -129 76 -129 126c0 67 46 132 108 196c55 57 82 105 86 159zM252 485h1c23 0 39 -21 39 -44
c0 -26 -18 -46 -42 -46c-25 0 -40 20 -40 44c0 23 17 46 42 46z" />
    <glyph glyph-name="grave" unicode="`" 
d="M160 678h66l61 -138h-33z" />
    <glyph glyph-name="acute" unicode="&#xb4;" 
d="M317 678h74l-135 -138h-40z" />
    <glyph glyph-name="circumflex" unicode="&#x2c6;" 
d="M255 678h35l65 -138h-43l-44 100h-2l-77 -100h-47z" />
    <glyph glyph-name="tilde" unicode="&#x2dc;" 
d="M181 575h-34c5 43 26 83 65 83c25 0 37 -10 61 -23c14 -8 27 -16 41 -16c17 0 24 9 28 42h34c-6 -47 -21 -80 -64 -80c-21 0 -40 9 -57 20c-13 8 -27 18 -44 18c-20 0 -26 -18 -30 -44z" />
    <glyph glyph-name="macron" unicode="&#xaf;" 
d="M168 636h202l-7 -39h-202z" />
    <glyph glyph-name="breve" unicode="&#x2d8;" 
d="M164 678h36c-4 -41 19 -74 60 -74c52 0 79 39 88 74h39c-13 -69 -67 -114 -126 -114c-86 0 -105 62 -97 114z" />
    <glyph glyph-name="dotaccent" unicode="&#x2d9;" 
d="M262 580h-1c-21 0 -34 18 -34 38c0 21 16 40 37 40c22 0 35 -18 35 -38c0 -21 -13 -40 -37 -40z" />
    <glyph glyph-name="dieresis" unicode="&#xa8;" 
d="M178 580h-1c-21 0 -35 18 -35 38c0 21 17 40 38 40c22 0 36 -18 36 -38s-14 -40 -38 -40zM347 580h-1c-22 0 -34 18 -34 38c0 21 16 40 37 40c23 0 36 -18 36 -38s-14 -40 -38 -40z" />
    <glyph glyph-name="ring" unicode="&#x2da;" horiz-adv-x="377" 
d="M266 712h1c51 0 88 -38 88 -90c0 -53 -46 -90 -91 -90c-52 0 -90 38 -90 87c0 52 41 93 92 93zM265 682h-1c-29 0 -51 -27 -51 -62c0 -31 21 -58 50 -58c30 0 54 27 54 64c0 31 -21 56 -52 56z" />
    <glyph glyph-name="cedilla" unicode="&#xb8;" 
d="M139 1h38l-43 -56c31 -7 50 -30 50 -63c0 -46 -41 -80 -98 -80c-25 0 -48 7 -59 15l15 35c14 -9 32 -14 51 -14c26 0 48 16 48 41c0 24 -25 36 -62 41z" />
    <glyph glyph-name="hungarumlaut" unicode="&#x2dd;" 
d="M276 678h66l-129 -138h-36zM402 678h66l-128 -138h-37z" />
    <glyph glyph-name="ogonek" unicode="&#x2db;" 
d="M145 2h48c-42 -29 -91 -83 -91 -127c0 -23 14 -36 35 -36c15 0 29 4 43 11l9 -30c-22 -13 -42 -18 -66 -18c-41 0 -67 27 -67 64c0 62 61 114 89 136z" />
    <glyph glyph-name="caron" unicode="&#x2c7;" 
d="M268 540h-35l-67 138h43l45 -100h3l79 100h46z" />
    <glyph glyph-name="emdash" unicode="&#x2014;" horiz-adv-x="1000" 
d="M40 273h941l-8 -38h-940z" />
    <glyph glyph-name="AE" unicode="&#xc6;" horiz-adv-x="728" 
d="M-5 0h-48l469 674h317l-8 -39h-248l-31 -261h236l-8 -39h-233l-34 -296h260l-8 -39h-299l30 271h-207zM210 309h186l25 213c4 34 10 82 15 117h-4c-19 -32 -44 -71 -71 -111z" />
    <glyph glyph-name="ordfeminine" unicode="&#xaa;" horiz-adv-x="319" 
d="M299 266h-37c-1 19 1 46 5 72l-2 -1c-28 -47 -72 -76 -118 -76c-58 0 -90 49 -90 113c0 109 77 217 205 217c24 0 63 -6 82 -13l-38 -210c-6 -37 -7 -74 -7 -102zM280 431l22 118c-13 5 -30 8 -53 8c-78 0 -151 -71 -152 -178c0 -40 13 -83 62 -83c52 0 108 61 121 135z
" />
    <glyph glyph-name="Lslash" unicode="&#x141;" horiz-adv-x="417" 
d="M366 0h-324l55 291l-102 -68l9 44l101 68l65 339h45l-58 -305l145 97l-9 -45l-144 -97l-54 -285h279z" />
    <glyph glyph-name="Oslash" unicode="&#xd8;" horiz-adv-x="645" 
d="M40 -28l-24 24l81 90c-34 51 -48 101 -48 176c0 116 44 242 120 322c61 64 145 101 226 101c76 0 131 -22 171 -66l78 83l27 -23l-82 -89c36 -53 48 -113 48 -173c0 -116 -45 -249 -119 -329c-58 -62 -141 -99 -223 -99c-75 0 -133 23 -177 68zM130 123l408 462
c-32 37 -76 61 -151 61c-126 0 -233 -107 -273 -249c-25 -89 -27 -190 14 -274h2zM556 549l-407 -460c35 -39 80 -61 157 -61c110 0 217 96 261 236c26 84 36 194 -9 285h-2z" />
    <glyph glyph-name="OE" unicode="&#x152;" horiz-adv-x="841" 
d="M770 39l-7 -39h-304c-21 0 -43 -2 -68 -3c-18 -2 -38 -3 -66 -3c-196 0 -276 136 -276 284c0 194 128 402 406 402c24 0 44 0 69 -2c28 -3 45 -4 68 -4h283l-8 -39h-275l-49 -261h259l-8 -39h-259l-56 -296h291zM435 42l111 591c-22 5 -42 8 -95 8
c-237 0 -355 -177 -355 -359c0 -130 57 -248 247 -248c35 0 60 2 92 8z" />
    <glyph glyph-name="ordmasculine" unicode="&#xba;" horiz-adv-x="322" 
d="M220 591h1c93 0 128 -67 128 -133c0 -107 -75 -197 -171 -197c-89 0 -127 69 -127 131c0 112 81 199 169 199zM216 557h-1c-65 0 -122 -71 -122 -162c0 -65 38 -100 87 -100c62 0 126 62 126 165c0 41 -16 97 -90 97z" />
    <glyph glyph-name="ae" unicode="&#xe6;" horiz-adv-x="691" 
d="M602 63l14 -34c-23 -16 -70 -40 -146 -40c-81 0 -139 44 -155 120h-2c-37 -77 -108 -120 -184 -120c-82 0 -121 56 -122 117c0 119 116 193 316 184l4 23c10 59 -9 139 -101 139c-44 0 -79 -12 -119 -37l-14 33c56 36 107 43 139 43c81 0 128 -42 134 -116h2
c44 80 121 116 190 116c81 0 121 -50 121 -104c0 -131 -153 -141 -322 -136c-10 -49 -13 -99 3 -144c19 -53 63 -79 117 -79c67 0 101 21 125 35zM304 191l11 60c-103 6 -261 -17 -261 -141c0 -51 32 -82 82 -82c71 0 148 55 168 163zM633 385v1c0 34 -29 67 -80 67
c-99 0 -166 -96 -186 -163c140 -3 266 1 266 95z" />
    <glyph glyph-name="dotlessi" unicode="&#x131;" horiz-adv-x="206" 
d="M83 0h-45l92 480h45z" />
    <glyph glyph-name="lslash" unicode="&#x142;" horiz-adv-x="212" 
d="M87 0h-45l60 318l-77 -55l8 42l77 56l67 349h45l-59 -312l78 57l-9 -43l-78 -57z" />
    <glyph glyph-name="oslash" unicode="&#xf8;" horiz-adv-x="501" 
d="M49 -27l-25 23l54 62c-31 39 -40 87 -40 135c0 149 107 298 251 298c55 0 93 -16 119 -40l49 56l27 -22l-53 -60c31 -43 40 -92 40 -131c0 -158 -116 -305 -248 -305c-57 0 -95 17 -124 43zM111 95l268 322c-19 22 -51 36 -94 36c-120 0 -200 -138 -200 -258
c0 -43 6 -71 24 -101zM400 386l-271 -320c22 -24 55 -38 97 -38c97 0 198 124 198 260c0 38 -8 69 -23 98h-1z" />
    <glyph glyph-name="oe" unicode="&#x153;" horiz-adv-x="784" 
d="M697 64l14 -35c-23 -17 -77 -40 -143 -40c-83 0 -144 45 -159 131h-2c-44 -86 -120 -131 -198 -131c-110 0 -171 93 -171 195c0 152 102 307 254 307c90 0 145 -58 157 -136h2c46 91 132 136 203 136c95 0 120 -61 120 -105c0 -134 -163 -146 -323 -149
c-10 -41 -7 -91 6 -128c17 -49 56 -80 118 -80c56 0 99 20 122 35zM218 28h1c116 0 195 154 195 269c0 75 -28 156 -127 156c-121 0 -202 -135 -202 -264c0 -94 52 -161 133 -161zM728 383v1c0 42 -33 69 -83 69c-93 0 -161 -92 -187 -179c131 3 270 11 270 109z" />
    <glyph glyph-name="germandbls" unicode="&#xdf;" horiz-adv-x="513" 
d="M83 0h-45l89 468c25 132 82 253 223 253c91 0 137 -61 137 -131c0 -45 -23 -92 -40 -110c-52 -16 -97 -49 -97 -100c0 -36 16 -58 42 -91c33 -41 55 -82 55 -131c0 -99 -85 -169 -187 -169c-34 0 -68 8 -93 23l16 37c25 -14 56 -21 80 -21c76 0 137 51 137 128
c0 30 -9 65 -43 103c-39 46 -54 79 -54 110c0 68 51 115 113 139c12 11 25 41 26 81c-1 45 -26 93 -100 93c-84 0 -142 -71 -166 -198z" />
    <glyph glyph-name="onesuperior" unicode="&#xe018;" horiz-adv-x="200" 
d="M172 406h-39l67 350h-2l-68 -33l-5 32l86 41h35z" />
    <glyph glyph-name="logicalnot" unicode="&#xac;" horiz-adv-x="596" 
d="M60 384h493v-255h-41v217h-452v38z" />
    <glyph glyph-name="mu" unicode="&#xb5;" horiz-adv-x="505" 
d="M165 480l-55 -293c-16 -88 8 -157 98 -157c60 0 117 61 147 117c13 24 22 49 27 74l49 259h45l-67 -353c-13 -73 -6 -96 27 -99l-12 -38c-9 -1 -6 -1 -14 -1c-32 0 -59 22 -48 106h-3c-31 -54 -91 -105 -160 -105c-50 0 -96 24 -114 75l-14 -78
c-10 -54 -24 -144 -20 -185h-41c-6 31 1 99 16 179l95 499h44z" />
    <glyph glyph-name="trademark" unicode="&#x2122;" horiz-adv-x="651" 
d="M104 674h220v-31h-92v-241h-36v241h-92v31zM657 402h-38l-13 185c-1 16 -2 36 -3 58h-2c-6 -16 -15 -44 -22 -65l-63 -174h-41l-64 179c-5 17 -14 43 -20 60h-2c0 -18 -1 -37 -2 -58l-13 -185h-36l22 272h53l64 -174c8 -20 13 -39 19 -57h2c6 19 13 41 18 55l64 176h53z
" />
    <glyph glyph-name="Eth" unicode="&#xd0;" horiz-adv-x="629" 
d="M16 336l10 39h87l55 291c54 8 110 13 164 13c109 0 197 -37 242 -100c25 -33 47 -90 47 -164c0 -113 -48 -243 -139 -321c-75 -63 -175 -97 -289 -97c-45 0 -100 1 -150 7l63 332h-90zM347 375l-8 -39h-188l-56 -294c38 -5 77 -6 107 -6c107 0 197 36 261 97
c72 68 111 177 111 279c0 123 -57 228 -256 228c-34 0 -74 0 -110 -6l-49 -259h188z" />
    <glyph glyph-name="onehalf" unicode="&#xbd;" horiz-adv-x="705" 
d="M166 266h-40l67 350h-2l-68 -33l-5 32l86 41h36zM111 -11h-45l486 672h45zM613 0h-239l5 28l72 59c99 83 165 141 165 211c0 29 -14 62 -66 62c-33 0 -66 -19 -82 -32l-15 28c28 22 67 39 106 39c71 0 100 -49 100 -97c0 -79 -84 -151 -179 -227l-42 -34v-2h182z" />
    <glyph glyph-name="plusminus" unicode="&#xb1;" horiz-adv-x="596" 
d="M296 567h40v-208h227v-38h-227v-216h-40v216h-227v38h227v208zM69 38h494v-38h-494v38z" />
    <glyph glyph-name="Thorn" unicode="&#xde;" horiz-adv-x="475" 
d="M39 0l128 674h45l-27 -138c27 7 57 9 88 9c69 0 119 -18 151 -54c24 -28 35 -64 35 -103c0 -139 -127 -222 -264 -222c-24 0 -54 1 -79 5l-33 -171h-44zM178 497l-55 -285c29 -6 56 -7 78 -7c111 0 212 70 212 178c0 87 -63 124 -150 124c-33 0 -70 -5 -85 -10z" />
    <glyph glyph-name="onequarter" unicode="&#xbc;" horiz-adv-x="705" 
d="M570 0h-40l21 111h-191l4 24l245 260h36l-48 -251h61l-6 -33h-61zM557 144l28 145c4 23 9 41 13 56h-2c-15 -20 -25 -35 -39 -51l-140 -149v-1h140zM168 266h-40l67 350h-2l-68 -33l-4 32l86 41h36zM128 -11h-45l486 672h45z" />
    <glyph glyph-name="divide" unicode="&#xf7;" horiz-adv-x="596" 
d="M310 398h-1c-23 0 -40 20 -39 44c0 25 17 44 41 44s40 -19 40 -44c0 -24 -16 -44 -41 -44zM557 248h-494v38h494v-38zM310 48h-1c-23 0 -40 20 -39 44c0 25 17 44 41 44s40 -19 40 -44c0 -24 -16 -44 -41 -44z" />
    <glyph glyph-name="brokenbar" unicode="&#xa6;" horiz-adv-x="203" 
d="M100 174h40v-350h-40v350zM100 674h40v-350h-40v350z" />
    <glyph glyph-name="degree" unicode="&#xb0;" horiz-adv-x="294" 
d="M219 686h1c72 0 114 -58 114 -116c0 -76 -62 -125 -119 -125c-68 0 -115 55 -115 118c0 69 55 123 119 123zM217 653h-1c-52 0 -78 -51 -78 -89c0 -48 35 -86 77 -86c45 0 81 39 81 91c0 32 -20 84 -79 84z" />
    <glyph glyph-name="thorn" unicode="&#xfe;" horiz-adv-x="503" 
d="M-9 -198l164 863h46l-57 -288h2c48 73 114 114 183 114c102 0 144 -83 144 -169c0 -173 -132 -333 -284 -333c-37 0 -83 7 -110 23h-4l-38 -210h-46zM114 213l-30 -157c24 -19 68 -28 110 -28c125 0 232 148 232 290c0 61 -26 134 -107 134c-72 0 -174 -77 -205 -239z
" />
    <glyph glyph-name="threequarters" unicode="&#xbe;" horiz-adv-x="705" 
d="M163 -11h-45l486 672h45zM131 599l-11 30c21 16 60 32 95 32c71 0 95 -42 95 -83c0 -46 -37 -81 -86 -99v-2c43 -12 66 -50 66 -91c-2 -71 -56 -125 -150 -125c-40 0 -77 14 -92 26l15 31c14 -10 43 -24 81 -24c70 0 105 45 105 91c0 55 -50 75 -95 75h-21l5 32h24
c48 0 107 33 107 82c0 30 -16 53 -63 53c-28 0 -57 -13 -75 -28zM581 0h-40l21 111h-191l4 24l245 260h36l-48 -251h61l-6 -33h-61zM568 144l28 145c4 23 9 41 13 56h-2c-15 -20 -25 -35 -39 -51l-140 -149v-1h140z" />
    <glyph glyph-name="twosuperior" unicode="&#xe019;" horiz-adv-x="273" 
d="M287 406h-239l5 28l72 59c99 83 166 141 166 211c0 29 -14 62 -67 62c-33 0 -66 -19 -82 -32l-15 28c28 22 68 39 107 39c71 0 99 -49 99 -97c0 -79 -84 -151 -179 -227l-42 -34v-2h182z" />
    <glyph glyph-name="registered" unicode="&#xae;" horiz-adv-x="386" 
d="M219 505v-70h-31v167c17 3 35 5 58 5c28 0 42 -5 53 -13c10 -7 17 -20 17 -35c0 -21 -15 -34 -33 -40v-2c15 -6 23 -19 28 -40c5 -26 8 -36 12 -42h-32c-5 6 -9 21 -13 44c-4 18 -15 26 -39 26h-20zM219 581v-52h21c23 0 43 7 43 27c0 16 -10 27 -40 27
c-12 0 -19 -1 -24 -2zM248 682h1c90 0 161 -70 161 -159c0 -91 -71 -161 -162 -161s-163 70 -163 161c0 89 72 159 163 159zM248 654h-1c-72 0 -127 -59 -127 -131c0 -74 55 -132 129 -132c72 -1 125 58 125 131s-53 132 -126 132z" />
    <glyph glyph-name="minus" unicode="&#x2212;" horiz-adv-x="596" 
d="M63 286h494v-38h-494v38z" />
    <glyph glyph-name="eth" unicode="&#xf0;" horiz-adv-x="491" 
d="M212 28h1c112 0 201 139 202 288c0 25 -2 54 -20 80c-20 31 -53 57 -107 57c-122 0 -204 -141 -204 -271c0 -83 43 -154 128 -154zM173 525l-14 32l131 63c-25 28 -58 51 -92 69l23 32c44 -24 72 -49 107 -81l124 59l16 -32l-113 -54c67 -77 106 -162 106 -273
c0 -222 -133 -351 -250 -351c-129 0 -173 101 -173 189c0 165 112 313 252 313c36 0 89 -11 121 -63h4c-21 65 -52 117 -101 166z" />
    <glyph glyph-name="multiply" unicode="&#xd7;" horiz-adv-x="596" 
d="M81 496l29 30l212 -236l213 236l30 -29l-216 -234l216 -233l-30 -30l-215 236l-214 -236l-25 31l212 232z" />
    <glyph glyph-name="threesuperior" unicode="&#xe020;" horiz-adv-x="263" 
d="M141 739l-11 30c21 16 60 32 95 32c71 0 95 -42 95 -83c0 -46 -37 -81 -86 -99l-1 -2c43 -12 67 -50 67 -91c-1 -71 -57 -125 -150 -125c-41 0 -78 14 -93 26l15 31c15 -10 44 -24 82 -24c70 0 105 45 105 91c0 55 -50 75 -95 75h-22l6 32h23c48 0 108 33 108 82
c0 30 -16 53 -63 53c-28 0 -57 -13 -75 -28z" />
    <glyph glyph-name="copyright" unicode="&#xa9;" horiz-adv-x="677" 
d="M372 648h1c167 0 296 -138 296 -308c0 -172 -129 -310 -297 -310c-169 0 -300 138 -300 310c0 170 131 308 300 308zM372 616h-1c-147 0 -259 -120 -259 -280c0 -155 112 -274 260 -274c145 -2 257 119 257 278c0 156 -112 276 -257 276zM506 493l-10 -31
c-14 9 -49 25 -99 25c-103 0 -149 -68 -149 -150s49 -151 151 -151c41 0 79 11 103 28l10 -29c-35 -25 -82 -32 -123 -32c-115 0 -182 79 -182 181c0 113 89 186 189 186c54 0 96 -15 110 -27z" />
    <glyph glyph-name="Aacute" unicode="&#xc1;" horiz-adv-x="537" 
d="M402 237h-257l-124 -237h-47l361 674h44l102 -674h-44zM168 276h227l-34 225c-4 34 -10 81 -13 119h-3c-18 -39 -34 -75 -56 -117zM428 823h77l-140 -113h-44z" />
    <glyph glyph-name="Acircumflex" unicode="&#xc2;" horiz-adv-x="537" 
d="M402 237h-257l-124 -237h-47l361 674h44l102 -674h-44zM168 276h227l-34 225c-4 34 -10 81 -13 119h-3c-18 -39 -34 -75 -56 -117zM354 823h37l80 -113h-47l-55 78h-2l-81 -78h-51z" />
    <glyph glyph-name="Adieresis" unicode="&#xc4;" horiz-adv-x="537" 
d="M402 237h-257l-124 -237h-47l361 674h44l102 -674h-44zM168 276h227l-34 225c-4 34 -10 81 -13 119h-3c-18 -39 -34 -75 -56 -117zM281 726h-1c-21 0 -36 19 -36 39c0 19 17 40 39 40c23 0 36 -21 36 -39c0 -19 -15 -40 -38 -40zM451 726h-1c-20 0 -35 19 -35 39
c0 19 17 40 39 40s36 -21 36 -39c0 -19 -16 -40 -39 -40z" />
    <glyph glyph-name="Agrave" unicode="&#xc0;" horiz-adv-x="537" 
d="M402 237h-257l-124 -237h-47l361 674h44l102 -674h-44zM168 276h227l-34 225c-4 34 -10 81 -13 119h-3c-18 -39 -34 -75 -56 -117zM239 823h70l73 -113h-36z" />
    <glyph glyph-name="Aring" unicode="&#xc5;" horiz-adv-x="537" 
d="M402 237h-257l-124 -237h-47l361 674h44l102 -674h-44zM168 276h227l-34 225c-4 34 -10 81 -13 119h-3c-18 -39 -34 -75 -56 -117zM367 863h1c51 0 86 -36 86 -84c0 -51 -42 -85 -90 -85c-51 0 -87 36 -87 81c0 49 37 88 90 88zM366 836h-1c-29 0 -48 -26 -48 -60
c0 -29 19 -53 47 -53c29 0 50 24 50 57c0 31 -19 56 -48 56z" />
    <glyph glyph-name="Atilde" unicode="&#xc3;" horiz-adv-x="537" 
d="M402 237h-257l-124 -237h-47l361 674h44l102 -674h-44zM168 276h227l-34 225c-4 34 -10 81 -13 119h-3c-18 -39 -34 -75 -56 -117zM274 716h-32c8 44 34 85 71 85c27 0 40 -8 59 -21c15 -9 29 -17 46 -17c16 0 27 14 34 38h32c-9 -46 -31 -80 -72 -80c-24 0 -36 7 -58 20
c-17 10 -27 19 -44 18c-18 -1 -29 -18 -36 -43z" />
    <glyph glyph-name="Ccedilla" unicode="&#xc7;" horiz-adv-x="541" 
d="M470 62l10 -38c-35 -16 -91 -32 -151 -34l-35 -44c32 -8 50 -33 50 -62c0 -50 -45 -82 -97 -82c-25 0 -48 8 -60 16l15 34c14 -8 30 -13 48 -13c26 0 49 14 49 39c0 24 -24 38 -61 42l53 70c-154 7 -243 113 -243 276c0 110 42 235 128 317c71 65 159 102 259 102
c75 0 129 -20 144 -35l-19 -36c-28 18 -78 31 -138 31c-78 0 -159 -33 -217 -90c-69 -66 -110 -176 -110 -280c0 -129 52 -246 220 -246c53 0 115 11 155 33z" />
    <glyph glyph-name="Eacute" unicode="&#xc9;" horiz-adv-x="441" 
d="M404 375l-8 -39h-248l-56 -297h280l-8 -39h-325l128 674h310l-8 -39h-264l-50 -260h249zM399 823h77l-140 -113h-44z" />
    <glyph glyph-name="Ecircumflex" unicode="&#xca;" horiz-adv-x="441" 
d="M404 375l-8 -39h-248l-56 -297h280l-8 -39h-325l128 674h310l-8 -39h-264l-50 -260h249zM326 823h37l80 -113h-47l-55 78h-2l-80 -78h-51z" />
    <glyph glyph-name="Edieresis" unicode="&#xcb;" horiz-adv-x="441" 
d="M404 375l-8 -39h-248l-56 -297h280l-8 -39h-325l128 674h310l-8 -39h-264l-50 -260h249zM253 726h-1c-21 0 -36 19 -36 39c0 19 17 40 39 40c23 0 36 -21 36 -39c0 -19 -15 -40 -38 -40zM423 726h-1c-20 0 -35 19 -35 39c0 19 17 40 39 40s36 -21 36 -39
c0 -19 -16 -40 -39 -40z" />
    <glyph glyph-name="Egrave" unicode="&#xc8;" horiz-adv-x="441" 
d="M404 375l-8 -39h-248l-56 -297h280l-8 -39h-325l128 674h310l-8 -39h-264l-50 -260h249zM226 823h69l74 -113h-37z" />
    <glyph glyph-name="Iacute" unicode="&#xcd;" horiz-adv-x="208" 
d="M167 674h46l-129 -674h-45zM258 823h77l-140 -113h-44z" />
    <glyph glyph-name="Icircumflex" unicode="&#xce;" horiz-adv-x="208" 
d="M167 674h46l-129 -674h-45zM188 823h37l80 -113h-47l-55 78h-2l-80 -78h-51z" />
    <glyph glyph-name="Idieresis" unicode="&#xcf;" horiz-adv-x="208" 
d="M167 674h46l-129 -674h-45zM121 726h-1c-20 0 -35 19 -35 39c0 19 17 40 38 40c23 0 37 -21 37 -39c0 -19 -16 -40 -39 -40zM292 726h-1c-21 0 -36 19 -36 39c0 19 17 40 39 40c23 0 37 -21 37 -39c0 -19 -16 -40 -39 -40z" />
    <glyph glyph-name="Igrave" unicode="&#xcc;" horiz-adv-x="208" 
d="M167 674h46l-129 -674h-45zM91 823h69l74 -113h-37z" />
    <glyph glyph-name="Ntilde" unicode="&#xd1;" horiz-adv-x="611" 
d="M83 0h-44l128 674h43l195 -458c31 -71 44 -114 57 -162l2 1c4 56 10 101 27 192l81 427h44l-128 -674h-41l-190 450c-35 79 -48 117 -61 170l-3 -2c-7 -61 -15 -111 -30 -194zM319 716h-33c8 44 34 85 72 85c26 0 40 -8 58 -21c15 -9 30 -17 46 -17s28 14 35 38h32
c-9 -46 -32 -80 -73 -80c-23 0 -35 7 -57 20c-17 10 -28 19 -45 18s-29 -18 -35 -43z" />
    <glyph glyph-name="Oacute" unicode="&#xd3;" horiz-adv-x="645" 
d="M294 -11h-1c-174 0 -244 136 -244 270c0 117 47 255 131 338c54 54 136 88 213 88c184 0 244 -139 244 -273c0 -114 -42 -248 -124 -330c-58 -58 -132 -93 -219 -93zM299 28h1c67 0 130 29 179 79c71 70 112 198 112 302c0 102 -32 237 -205 237c-69 0 -130 -30 -177 -78
c-72 -72 -114 -199 -114 -301c0 -119 52 -239 204 -239zM481 823h77l-140 -113h-44z" />
    <glyph glyph-name="Ocircumflex" unicode="&#xd4;" horiz-adv-x="645" 
d="M294 -11h-1c-174 0 -244 136 -244 270c0 117 47 255 131 338c54 54 136 88 213 88c184 0 244 -139 244 -273c0 -114 -42 -248 -124 -330c-58 -58 -132 -93 -219 -93zM299 28h1c67 0 130 29 179 79c71 70 112 198 112 302c0 102 -32 237 -205 237c-69 0 -130 -30 -177 -78
c-72 -72 -114 -199 -114 -301c0 -119 52 -239 204 -239zM408 823h37l80 -113h-47l-55 78h-2l-81 -78h-51z" />
    <glyph glyph-name="Odieresis" unicode="&#xd6;" horiz-adv-x="645" 
d="M294 -11h-1c-174 0 -244 136 -244 270c0 117 47 255 131 338c54 54 136 88 213 88c184 0 244 -139 244 -273c0 -114 -42 -248 -124 -330c-58 -58 -132 -93 -219 -93zM299 28h1c67 0 130 29 179 79c71 70 112 198 112 302c0 102 -32 237 -205 237c-69 0 -130 -30 -177 -78
c-72 -72 -114 -199 -114 -301c0 -119 52 -239 204 -239zM337 726h-1c-20 0 -35 19 -35 39c0 19 17 40 38 40c23 0 37 -21 37 -39c0 -19 -16 -40 -39 -40zM508 726h-1c-21 0 -36 19 -36 39c0 19 17 40 39 40c23 0 37 -21 37 -39c0 -19 -16 -40 -39 -40z" />
    <glyph glyph-name="Ograve" unicode="&#xd2;" horiz-adv-x="645" 
d="M294 -11h-1c-174 0 -244 136 -244 270c0 117 47 255 131 338c54 54 136 88 213 88c184 0 244 -139 244 -273c0 -114 -42 -248 -124 -330c-58 -58 -132 -93 -219 -93zM299 28h1c67 0 130 29 179 79c71 70 112 198 112 302c0 102 -32 237 -205 237c-69 0 -130 -30 -177 -78
c-72 -72 -114 -199 -114 -301c0 -119 52 -239 204 -239zM302 823h70l73 -113h-36z" />
    <glyph glyph-name="Otilde" unicode="&#xd5;" horiz-adv-x="645" 
d="M294 -11h-1c-174 0 -244 136 -244 270c0 117 47 255 131 338c54 54 136 88 213 88c184 0 244 -139 244 -273c0 -114 -42 -248 -124 -330c-58 -58 -132 -93 -219 -93zM299 28h1c67 0 130 29 179 79c71 70 112 198 112 302c0 102 -32 237 -205 237c-69 0 -130 -30 -177 -78
c-72 -72 -114 -199 -114 -301c0 -119 52 -239 204 -239zM335 716h-32c8 44 34 85 72 85c26 0 39 -8 58 -21c15 -9 29 -17 46 -17c16 0 28 14 34 38h32c-8 -46 -31 -80 -72 -80c-24 0 -36 7 -57 20c-18 10 -28 19 -45 18s-29 -18 -36 -43z" />
    <glyph glyph-name="Scaron" unicode="&#x160;" horiz-adv-x="438" 
d="M19 36l19 36c34 -25 81 -43 133 -43c89 0 170 57 170 156c0 58 -27 103 -103 145c-95 52 -131 106 -131 170c0 111 94 185 204 185c56 0 106 -20 125 -37l-19 -35c-21 13 -60 33 -112 33c-93 0 -153 -68 -153 -135c0 -64 30 -99 109 -143c83 -45 125 -98 125 -182
c0 -96 -71 -197 -224 -197c-51 0 -117 21 -143 47zM323 710h-37l-80 113h49l52 -78h3l80 78h51z" />
    <glyph glyph-name="Uacute" unicode="&#xda;" horiz-adv-x="600" 
d="M167 674h46l-78 -407c-6 -30 -8 -60 -8 -87c0 -106 60 -151 142 -151c102 0 180 70 212 237l78 408h45l-79 -415c-39 -200 -145 -270 -264 -270c-94 0 -180 54 -180 189c0 29 3 61 9 92zM442 823h77l-139 -113h-44z" />
    <glyph glyph-name="Ucircumflex" unicode="&#xdb;" horiz-adv-x="600" 
d="M167 674h46l-78 -407c-6 -30 -8 -60 -8 -87c0 -106 60 -151 142 -151c102 0 180 70 212 237l78 408h45l-79 -415c-39 -200 -145 -270 -264 -270c-94 0 -180 54 -180 189c0 29 3 61 9 92zM396 823h37l80 -113h-47l-55 78h-2l-80 -78h-51z" />
    <glyph glyph-name="Udieresis" unicode="&#xdc;" horiz-adv-x="600" 
d="M167 674h46l-78 -407c-6 -30 -8 -60 -8 -87c0 -106 60 -151 142 -151c102 0 180 70 212 237l78 408h45l-79 -415c-39 -200 -145 -270 -264 -270c-94 0 -180 54 -180 189c0 29 3 61 9 92zM311 726h-1c-20 0 -35 19 -35 39c0 19 17 40 38 40c23 0 37 -21 37 -39
c0 -19 -16 -40 -39 -40zM482 726h-1c-21 0 -36 19 -36 39c0 19 17 40 39 40c23 0 37 -21 37 -39c0 -19 -16 -40 -39 -40z" />
    <glyph glyph-name="Ugrave" unicode="&#xd9;" horiz-adv-x="600" 
d="M167 674h46l-78 -407c-6 -30 -8 -60 -8 -87c0 -106 60 -151 142 -151c102 0 180 70 212 237l78 408h45l-79 -415c-39 -200 -145 -270 -264 -270c-94 0 -180 54 -180 189c0 29 3 61 9 92zM286 823h70l73 -113h-36z" />
    <glyph glyph-name="Yacute" unicode="&#xdd;" horiz-adv-x="484" 
d="M212 0h-45l54 283l-129 391h48l79 -247c20 -61 27 -86 31 -107h2c14 23 38 61 74 111l172 243h52l-285 -392zM392 823h77l-139 -113h-44z" />
    <glyph glyph-name="Ydieresis" unicode="&#x178;" horiz-adv-x="484" 
d="M212 0h-45l54 283l-129 391h48l79 -247c20 -61 27 -86 31 -107h2c14 23 38 61 74 111l172 243h52l-285 -392zM250 726h-1c-21 0 -36 19 -36 39c0 19 17 40 39 40c23 0 36 -21 36 -39c0 -19 -15 -40 -38 -40zM420 726h-1c-20 0 -35 19 -35 39c0 19 17 40 39 40
s36 -21 36 -39c0 -19 -16 -40 -39 -40z" />
    <glyph glyph-name="Zcaron" unicode="&#x17d;" horiz-adv-x="504" 
d="M-16 0l6 32l498 600v3h-350l8 39h410l-6 -32l-498 -600l2 -3h386l-7 -39h-449zM375 710h-37l-80 113h49l52 -78h4l79 78h51z" />
    <glyph glyph-name="aacute" unicode="&#xe1;" horiz-adv-x="503" 
d="M402 0h-43c-1 30 5 83 13 142h-2c-56 -112 -126 -153 -201 -153c-84 0 -133 68 -133 153c0 171 132 349 324 349c39 0 82 -6 111 -14l-48 -250c-18 -97 -23 -178 -21 -227zM389 277l31 166c-12 5 -32 9 -69 9c-145 0 -268 -140 -269 -302c0 -58 18 -122 97 -122
c86 0 184 115 210 249zM399 678h74l-135 -138h-40z" />
    <glyph glyph-name="acircumflex" unicode="&#xe2;" horiz-adv-x="503" 
d="M402 0h-43c-1 30 5 83 13 142h-2c-56 -112 -126 -153 -201 -153c-84 0 -133 68 -133 153c0 171 132 349 324 349c39 0 82 -6 111 -14l-48 -250c-18 -97 -23 -178 -21 -227zM389 277l31 166c-12 5 -32 9 -69 9c-145 0 -268 -140 -269 -302c0 -58 18 -122 97 -122
c86 0 184 115 210 249zM329 678h36l65 -138h-43l-45 100h-2l-77 -100h-46z" />
    <glyph glyph-name="adieresis" unicode="&#xe4;" horiz-adv-x="503" 
d="M402 0h-43c-1 30 5 83 13 142h-2c-56 -112 -126 -153 -201 -153c-84 0 -133 68 -133 153c0 171 132 349 324 349c39 0 82 -6 111 -14l-48 -250c-18 -97 -23 -178 -21 -227zM389 277l31 166c-12 5 -32 9 -69 9c-145 0 -268 -140 -269 -302c0 -58 18 -122 97 -122
c86 0 184 115 210 249zM248 580h-1c-22 0 -35 18 -35 38c0 21 16 40 37 40c22 0 36 -18 36 -38s-14 -40 -37 -40zM416 580h-1c-21 0 -34 18 -34 38c0 21 16 40 38 40s35 -18 35 -38s-13 -40 -38 -40z" />
    <glyph glyph-name="agrave" unicode="&#xe0;" horiz-adv-x="503" 
d="M402 0h-43c-1 30 5 83 13 142h-2c-56 -112 -126 -153 -201 -153c-84 0 -133 68 -133 153c0 171 132 349 324 349c39 0 82 -6 111 -14l-48 -250c-18 -97 -23 -178 -21 -227zM389 277l31 166c-12 5 -32 9 -69 9c-145 0 -268 -140 -269 -302c0 -58 18 -122 97 -122
c86 0 184 115 210 249zM243 678h66l61 -138h-33z" />
    <glyph glyph-name="aring" unicode="&#xe5;" horiz-adv-x="503" 
d="M402 0h-43c-1 30 5 83 13 142h-2c-56 -112 -126 -153 -201 -153c-84 0 -133 68 -133 153c0 171 132 349 324 349c39 0 82 -6 111 -14l-48 -250c-18 -97 -23 -178 -21 -227zM389 277l31 166c-12 5 -32 9 -69 9c-145 0 -268 -140 -269 -302c0 -58 18 -122 97 -122
c86 0 184 115 210 249zM334 712h1c50 0 87 -38 87 -90c0 -53 -45 -90 -91 -90c-51 0 -89 38 -89 87c0 52 40 93 92 93zM332 682h-1c-29 0 -51 -27 -51 -62c0 -31 21 -58 51 -58s53 27 53 64c0 31 -21 56 -52 56z" />
    <glyph glyph-name="atilde" unicode="&#xe3;" horiz-adv-x="503" 
d="M402 0h-43c-1 30 5 83 13 142h-2c-56 -112 -126 -153 -201 -153c-84 0 -133 68 -133 153c0 171 132 349 324 349c39 0 82 -6 111 -14l-48 -250c-18 -97 -23 -178 -21 -227zM389 277l31 166c-12 5 -32 9 -69 9c-145 0 -268 -140 -269 -302c0 -58 18 -122 97 -122
c86 0 184 115 210 249zM249 575h-34c5 43 26 83 65 83c25 0 37 -10 61 -23c14 -8 27 -16 41 -16c17 0 24 9 28 42h34c-6 -47 -21 -80 -64 -80c-21 0 -40 9 -57 20c-13 8 -27 18 -44 18c-20 0 -26 -18 -30 -44z" />
    <glyph glyph-name="ccedilla" unicode="&#xe7;" horiz-adv-x="416" 
d="M341 60l12 -36c-18 -9 -57 -29 -113 -32l-35 -46c31 -7 50 -31 50 -63c0 -46 -42 -81 -99 -81c-23 0 -46 8 -58 16l16 34c14 -9 31 -13 50 -13c26 0 49 15 48 41c0 23 -25 36 -62 40l52 70c-119 4 -164 94 -164 178c0 160 116 323 283 323c47 0 91 -17 101 -25l-16 -38
c-21 10 -52 22 -92 22c-140 0 -229 -146 -229 -276c0 -82 39 -145 134 -145c58 0 97 19 122 31z" />
    <glyph glyph-name="eacute" unicode="&#xe9;" horiz-adv-x="423" 
d="M336 63l13 -35c-24 -16 -74 -39 -145 -39c-122 0 -167 93 -167 188c0 143 108 314 251 314c87 0 124 -54 124 -110c0 -129 -156 -155 -325 -152c-6 -26 -5 -85 7 -118c19 -55 61 -82 116 -82c60 0 102 20 126 34zM366 378v1c0 48 -37 73 -86 73c-87 0 -159 -91 -186 -185
c142 -2 272 17 272 111zM350 678h73l-134 -138h-41z" />
    <glyph glyph-name="ecircumflex" unicode="&#xea;" horiz-adv-x="423" 
d="M336 63l13 -35c-24 -16 -74 -39 -145 -39c-122 0 -167 93 -167 188c0 143 108 314 251 314c87 0 124 -54 124 -110c0 -129 -156 -155 -325 -152c-6 -26 -5 -85 7 -118c19 -55 61 -82 116 -82c60 0 102 20 126 34zM366 378v1c0 48 -37 73 -86 73c-87 0 -159 -91 -186 -185
c142 -2 272 17 272 111zM299 678h36l65 -138h-43l-45 100h-2l-77 -100h-46z" />
    <glyph glyph-name="edieresis" unicode="&#xeb;" horiz-adv-x="423" 
d="M336 63l13 -35c-24 -16 -74 -39 -145 -39c-122 0 -167 93 -167 188c0 143 108 314 251 314c87 0 124 -54 124 -110c0 -129 -156 -155 -325 -152c-6 -26 -5 -85 7 -118c19 -55 61 -82 116 -82c60 0 102 20 126 34zM366 378v1c0 48 -37 73 -86 73c-87 0 -159 -91 -186 -185
c142 -2 272 17 272 111zM221 580h-1c-22 0 -35 18 -35 38c0 21 16 40 37 40c22 0 36 -18 36 -38s-14 -40 -37 -40zM389 580h-1c-21 0 -34 18 -34 38c0 21 16 40 38 40s35 -18 35 -38s-13 -40 -38 -40z" />
    <glyph glyph-name="egrave" unicode="&#xe8;" horiz-adv-x="423" 
d="M336 63l13 -35c-24 -16 -74 -39 -145 -39c-122 0 -167 93 -167 188c0 143 108 314 251 314c87 0 124 -54 124 -110c0 -129 -156 -155 -325 -152c-6 -26 -5 -85 7 -118c19 -55 61 -82 116 -82c60 0 102 20 126 34zM366 378v1c0 48 -37 73 -86 73c-87 0 -159 -91 -186 -185
c142 -2 272 17 272 111zM203 678h66l61 -138h-32z" />
    <glyph glyph-name="iacute" unicode="&#xed;" horiz-adv-x="206" 
d="M83 0h-45l92 480h45zM225 678h74l-135 -138h-40z" />
    <glyph glyph-name="icircumflex" unicode="&#xee;" horiz-adv-x="206" 
d="M83 0h-45l92 480h45zM161 678h36l64 -138h-43l-44 100h-2l-77 -100h-46z" />
    <glyph glyph-name="idieresis" unicode="&#xef;" horiz-adv-x="206" 
d="M83 0h-45l92 480h45zM86 580h-1c-22 0 -35 18 -35 38c0 21 17 40 38 40c22 0 36 -18 36 -38s-14 -40 -38 -40zM255 580h-1c-22 0 -34 18 -34 38c0 21 16 40 37 40c22 0 35 -18 35 -38s-13 -40 -37 -40z" />
    <glyph glyph-name="igrave" unicode="&#xec;" horiz-adv-x="206" 
d="M83 0h-45l92 480h45zM61 678h66l61 -138h-33z" />
    <glyph glyph-name="ntilde" unicode="&#xf1;" horiz-adv-x="516" 
d="M83 0h-45l66 351c10 49 16 91 21 129h42l-15 -103h2c42 70 110 114 185 114c43 0 120 -23 120 -134c0 -22 -4 -49 -9 -76l-53 -281h-45l54 285c3 20 7 44 7 66c0 57 -23 100 -92 100c-68 0 -170 -78 -193 -205zM242 575h-34c5 43 26 83 65 83c25 0 37 -10 61 -23
c14 -8 27 -16 41 -16c17 0 24 9 28 42h34c-6 -47 -21 -80 -64 -80c-21 0 -40 9 -57 20c-13 8 -27 18 -44 18c-20 0 -26 -18 -30 -44z" />
    <glyph glyph-name="oacute" unicode="&#xf3;" horiz-adv-x="500" 
d="M217 -11h-1c-119 0 -178 96 -178 196c0 154 107 306 254 306c130 0 178 -104 178 -201c0 -131 -96 -301 -253 -301zM221 28h1c109 0 201 133 201 263c0 64 -30 162 -134 162c-118 0 -204 -132 -204 -264c0 -92 53 -161 136 -161zM371 678h73l-135 -138h-40z" />
    <glyph glyph-name="ocircumflex" unicode="&#xf4;" horiz-adv-x="500" 
d="M217 -11h-1c-119 0 -178 96 -178 196c0 154 107 306 254 306c130 0 178 -104 178 -201c0 -131 -96 -301 -253 -301zM221 28h1c109 0 201 133 201 263c0 64 -30 162 -134 162c-118 0 -204 -132 -204 -264c0 -92 53 -161 136 -161zM317 678h36l65 -138h-43l-45 100h-2
l-77 -100h-46z" />
    <glyph glyph-name="odieresis" unicode="&#xf6;" horiz-adv-x="500" 
d="M217 -11h-1c-119 0 -178 96 -178 196c0 154 107 306 254 306c130 0 178 -104 178 -201c0 -131 -96 -301 -253 -301zM221 28h1c109 0 201 133 201 263c0 64 -30 162 -134 162c-118 0 -204 -132 -204 -264c0 -92 53 -161 136 -161zM241 580h-1c-22 0 -35 18 -35 38
c0 21 17 40 38 40c22 0 36 -18 36 -38s-14 -40 -38 -40zM410 580h-1c-22 0 -34 18 -34 38c0 21 16 40 37 40c22 0 35 -18 35 -38s-13 -40 -37 -40z" />
    <glyph glyph-name="ograve" unicode="&#xf2;" horiz-adv-x="500" 
d="M217 -11h-1c-119 0 -178 96 -178 196c0 154 107 306 254 306c130 0 178 -104 178 -201c0 -131 -96 -301 -253 -301zM221 28h1c109 0 201 133 201 263c0 64 -30 162 -134 162c-118 0 -204 -132 -204 -264c0 -92 53 -161 136 -161zM208 678h66l61 -138h-33z" />
    <glyph glyph-name="otilde" unicode="&#xf5;" horiz-adv-x="500" 
d="M217 -11h-1c-119 0 -178 96 -178 196c0 154 107 306 254 306c130 0 178 -104 178 -201c0 -131 -96 -301 -253 -301zM221 28h1c109 0 201 133 201 263c0 64 -30 162 -134 162c-118 0 -204 -132 -204 -264c0 -92 53 -161 136 -161zM226 575h-33c4 43 26 83 65 83
c24 0 37 -10 60 -23c14 -8 27 -16 41 -16c17 0 24 9 29 42h33c-5 -47 -21 -80 -64 -80c-21 0 -40 9 -57 20c-13 8 -27 18 -44 18c-20 0 -25 -18 -30 -44z" />
    <glyph glyph-name="scaron" unicode="&#x161;" horiz-adv-x="346" 
d="M16 20l17 37c20 -14 54 -28 90 -28c65 0 110 46 110 100c0 46 -17 74 -71 106c-55 33 -77 76 -77 119c0 74 63 137 151 137c35 0 70 -12 85 -23l-17 -39c-14 10 -42 23 -74 23c-58 0 -100 -41 -100 -91c0 -45 25 -70 70 -97c55 -33 79 -77 79 -123
c0 -95 -75 -152 -160 -152c-46 0 -85 17 -103 31zM250 540h-35l-67 138h43l45 -100h3l79 100h46z" />
    <glyph glyph-name="uacute" unicode="&#xfa;" horiz-adv-x="506" 
d="M428 480h45l-67 -351c-9 -48 -15 -91 -18 -129h-43l15 99h-2c-39 -63 -105 -110 -172 -110c-52 0 -129 21 -129 142c0 21 3 45 9 76l52 273h45l-52 -274c-6 -30 -9 -52 -9 -75c0 -61 25 -101 95 -101c67 0 161 78 182 189zM361 678h74l-135 -138h-40z" />
    <glyph glyph-name="ucircumflex" unicode="&#xfb;" horiz-adv-x="506" 
d="M428 480h45l-67 -351c-9 -48 -15 -91 -18 -129h-43l15 99h-2c-39 -63 -105 -110 -172 -110c-52 0 -129 21 -129 142c0 21 3 45 9 76l52 273h45l-52 -274c-6 -30 -9 -52 -9 -75c0 -61 25 -101 95 -101c67 0 161 78 182 189zM318 678h35l65 -138h-43l-44 100h-2l-77 -100
h-46z" />
    <glyph glyph-name="udieresis" unicode="&#xfc;" horiz-adv-x="506" 
d="M428 480h45l-67 -351c-9 -48 -15 -91 -18 -129h-43l15 99h-2c-39 -63 -105 -110 -172 -110c-52 0 -129 21 -129 142c0 21 3 45 9 76l52 273h45l-52 -274c-6 -30 -9 -52 -9 -75c0 -61 25 -101 95 -101c67 0 161 78 182 189zM237 580h-1c-21 0 -35 18 -35 38
c0 21 17 40 38 40c22 0 36 -18 36 -38s-14 -40 -38 -40zM406 580h-1c-22 0 -34 18 -34 38c0 21 16 40 37 40c23 0 36 -18 36 -38s-14 -40 -38 -40z" />
    <glyph glyph-name="ugrave" unicode="&#xf9;" horiz-adv-x="506" 
d="M428 480h45l-67 -351c-9 -48 -15 -91 -18 -129h-43l15 99h-2c-39 -63 -105 -110 -172 -110c-52 0 -129 21 -129 142c0 21 3 45 9 76l52 273h45l-52 -274c-6 -30 -9 -52 -9 -75c0 -61 25 -101 95 -101c67 0 161 78 182 189zM205 678h66l61 -138h-32z" />
    <glyph glyph-name="yacute" unicode="&#xfd;" horiz-adv-x="406" 
d="M51 480h46l59 -289c12 -59 19 -95 25 -134h3c14 32 30 67 56 121l146 302h48l-186 -377c-44 -90 -87 -173 -153 -240c-52 -54 -106 -77 -131 -83l-13 39c19 7 57 22 92 51c33 27 72 72 102 128c5 9 4 14 3 22zM315 678h73l-134 -138h-41z" />
    <glyph glyph-name="ydieresis" unicode="&#xff;" horiz-adv-x="406" 
d="M51 480h46l59 -289c12 -59 19 -95 25 -134h3c14 32 30 67 56 121l146 302h48l-186 -377c-44 -90 -87 -173 -153 -240c-52 -54 -106 -77 -131 -83l-13 39c19 7 57 22 92 51c33 27 72 72 102 128c5 9 4 14 3 22zM184 580h-1c-22 0 -35 18 -35 38c0 21 17 40 37 40
c23 0 36 -18 36 -38s-14 -40 -37 -40zM353 580h-1c-22 0 -35 18 -35 38c0 21 16 40 38 40s35 -18 35 -38s-13 -40 -37 -40z" />
    <glyph glyph-name="zcaron" unicode="&#x17e;" horiz-adv-x="393" 
d="M-19 0l5 29l282 317c41 47 65 69 89 93v4h-272l8 37h326l-7 -32l-279 -314c-43 -48 -65 -70 -88 -93v-3h292l-8 -38h-348zM284 540h-36l-66 138h43l45 -100h3l79 100h46z" />
    <glyph glyph-name="Dcroat" unicode="&#x110;" horiz-adv-x="629" 
d="M16 336l10 39h87l55 291c54 8 110 13 164 13c109 0 197 -37 242 -100c25 -33 47 -90 47 -164c0 -113 -48 -243 -139 -321c-75 -63 -175 -97 -289 -97c-45 0 -100 1 -150 7l63 332h-90zM347 375l-8 -39h-188l-56 -294c38 -5 77 -6 107 -6c107 0 197 36 261 97
c72 68 111 177 111 279c0 123 -57 228 -256 228c-34 0 -74 0 -110 -6l-49 -259h188z" />
    <glyph glyph-name="Eng" unicode="&#x14a;" horiz-adv-x="611" 
d="M293 -186v37c81 6 128 42 153 152l-189 447c-35 79 -48 117 -61 170l-3 -2c-7 -61 -15 -111 -30 -194l-80 -424h-44l128 674h43l195 -458c31 -71 44 -114 57 -162l2 1c4 56 9 101 27 192l81 427h44l-125 -659c-31 -164 -106 -198 -198 -201z" />
    <glyph glyph-name="Hbar" unicode="&#x126;" horiz-adv-x="603" 
d="M526 485h-350l-22 -114h350zM69 522h69l29 152h46l-30 -152h351l29 152h45l-29 -152h61l-7 -37h-61l-93 -485h-45l63 332h-351l-62 -332h-45l93 485h-70z" />
    <glyph glyph-name="Tbar" unicode="&#x166;" horiz-adv-x="441" 
d="M399 340h-137l-65 -340h-45l65 340h-131l8 38h130l49 257h-209l8 39h462l-7 -39h-209l-49 -257h138z" />
    <glyph glyph-name="uni021C" unicode="&#x21c;" horiz-adv-x="434" 
d="M-14 -107l-6 38c202 28 373 127 373 284c0 64 -48 122 -149 122c-27 0 -57 -7 -89 -16l-7 33c126 28 244 99 244 200c0 59 -48 92 -107 92c-54 0 -107 -27 -129 -39l-13 32c27 17 90 46 152 46c84 0 147 -53 147 -126c0 -92 -82 -158 -151 -186l-1 -3
c71 -11 151 -55 151 -156c0 -137 -136 -284 -415 -321z" />
    <glyph glyph-name="dcroat" unicode="&#x111;" horiz-adv-x="503" 
d="M381 237l37 192c-20 13 -51 23 -93 23c-134 0 -243 -139 -243 -288c0 -59 17 -136 106 -136c78 0 171 90 193 209zM249 595h201l21 115h45l-23 -115h83l-7 -36h-82l-82 -428c-8 -43 -16 -91 -19 -131h-41l16 106h-2c-45 -71 -106 -117 -183 -117c-99 0 -140 84 -140 171
c0 173 131 331 294 331c37 0 76 -8 97 -19l16 87h-201z" />
    <glyph glyph-name="eng" unicode="&#x14b;" horiz-adv-x="516" 
d="M199 -168l-5 39c78 14 142 43 170 192l42 222c3 20 7 44 7 66c0 57 -23 100 -92 100c-68 0 -170 -78 -193 -205l-45 -246h-45l66 351c9 49 16 91 21 129h42l-15 -103h2c42 70 110 114 185 114c43 0 120 -23 120 -134c0 -22 -4 -49 -9 -76l-44 -230
c-28 -149 -103 -205 -207 -219z" />
    <glyph glyph-name="hbar" unicode="&#x127;" horiz-adv-x="516" 
d="M67 596h85l21 114h46l-23 -114h198l-7 -36h-197l-36 -179h2c43 68 105 110 184 110c42 0 118 -24 118 -128c0 -27 -2 -55 -7 -78l-54 -285h-45l54 287c4 16 7 40 7 70c0 52 -26 94 -91 94c-73 0 -171 -83 -192 -197l-47 -254h-45l107 560h-85z" />
    <glyph glyph-name="kgreenlandic" unicode="&#x138;" horiz-adv-x="411" 
d="M83 0h-45l92 480h45l-44 -228h2c15 16 34 34 46 45l198 183h57l-213 -196l149 -284h-48l-135 257l-66 -56z" />
    <glyph glyph-name="napostrophe" unicode="&#x149;" horiz-adv-x="516" 
d="M83 0h-45l66 351c10 49 16 91 21 129h42l-15 -103h2c42 70 110 114 185 114c43 0 120 -23 120 -134c0 -22 -4 -49 -9 -76l-53 -281h-45l54 285c3 20 7 44 7 66c0 57 -23 100 -92 100c-68 0 -170 -78 -193 -205zM79 546l-8 26c27 10 59 32 59 76c0 22 -13 43 -27 54l42 11
c14 -9 29 -34 29 -59c0 -67 -52 -100 -95 -108z" />
    <glyph glyph-name="tbar" unicode="&#x167;" horiz-adv-x="292" 
d="M47 299h65l28 144h-73l7 37h74l16 88l49 18l-20 -106h122l-7 -37h-123l-27 -144h93l-7 -37h-93l-18 -97c-6 -32 -10 -56 -10 -86c0 -32 16 -51 48 -51c16 0 29 2 39 5l4 -36c-13 -5 -32 -8 -52 -8c-64 0 -86 45 -86 87c0 29 4 58 11 91l18 95h-65z" />
    <glyph glyph-name="uni021D" unicode="&#x21d;" horiz-adv-x="365" 
d="M-60 -208l-5 36c78 10 348 59 348 240c0 64 -57 110 -141 109c-21 0 -44 -5 -81 -15l-7 34c121 32 227 86 227 175c0 46 -39 81 -105 81c-53 0 -100 -24 -122 -36l-10 31c27 16 81 44 147 44c77 0 134 -50 134 -115c0 -82 -67 -136 -134 -161l-1 -3
c69 -10 138 -60 138 -143c0 -144 -146 -255 -388 -277z" />
    <glyph glyph-name="IJ" unicode="&#x132;" horiz-adv-x="550" 
d="M167 674h46l-129 -674h-45zM428 203l89 471h45l-90 -475c-28 -150 -89 -210 -199 -210c-39 0 -79 10 -93 18l12 39c22 -11 50 -16 87 -16c76 0 124 41 149 173z" />
    <glyph glyph-name="ij" unicode="&#x133;" horiz-adv-x="403" 
d="M83 0h-45l92 480h45zM176 578h-1c-21 0 -33 19 -33 40c1 22 16 40 37 40c23 0 36 -18 36 -40c-2 -21 -15 -40 -39 -40zM335 480h45l-93 -488c-15 -78 -31 -128 -58 -157c-26 -29 -61 -44 -97 -44c-20 0 -34 1 -46 5l6 38c8 -3 23 -5 42 -5c47 0 83 31 103 139zM377 578
h-1c-21 0 -33 19 -33 40c1 22 16 40 37 40c23 0 36 -18 36 -40c-2 -21 -15 -40 -39 -40z" />
    <glyph glyph-name="zero.slash" unicode="&#xf638;" horiz-adv-x="462" 
d="M100 126l298 439c-14 33 -40 58 -85 58c-124 0 -221 -224 -221 -422c0 -24 2 -50 8 -75zM410 520l-297 -438c16 -32 42 -54 86 -54c137 0 216 275 216 433c0 16 -1 38 -5 59zM505 653l-60 -81c12 -32 16 -69 16 -103c0 -218 -101 -480 -268 -480c-50 0 -84 20 -108 52
l-45 -65l-30 25l55 76c-14 35 -20 80 -20 128c0 224 118 456 272 456c52 0 87 -21 109 -53l47 68z" />
    <glyph glyph-name="Euro" unicode="&#x20ac;" horiz-adv-x="462" 
d="M397 57l12 -32c-24 -17 -74 -36 -130 -36c-152 0 -223 133 -213 272h-61l8 37h56c2 23 7 46 14 68h-59l9 37h62c44 137 160 258 304 258c51 0 89 -15 114 -29l-18 -35c-26 14 -58 26 -101 26c-127 0 -217 -112 -253 -220h284l-8 -37h-288c-6 -19 -11 -42 -14 -68h289
l-8 -37h-285c-6 -115 45 -233 176 -233c45 0 88 17 110 29z" />
    <glyph glyph-name="afii61352" unicode="&#x2116;" horiz-adv-x="851" 
d="M691 297h-1c-65 0 -114 43 -114 125c0 101 63 220 177 220c73 0 113 -49 113 -128c0 -103 -63 -217 -175 -217zM795 252l-7 -38h-232l7 38h232zM557 656l-126 -656h-47l-126 376c-25 75 -49 144 -64 218l-3 -1c-13 -85 -26 -155 -48 -272l-61 -321h-43l126 656h50
l127 -377c28 -83 50 -150 64 -216l2 1c12 96 25 169 45 273l62 319h42zM697 331h1c83 0 125 100 125 178c0 52 -18 99 -76 99c-82 0 -128 -105 -128 -176c0 -63 30 -101 78 -101z" />
    <glyph glyph-name="estimated" unicode="&#x212e;" horiz-adv-x="817" 
d="M782 316h-605c-3 0 -5 -1 -5 -4v-183c0 -8 4 -15 9 -21c57 -61 139 -99 229 -99c96 0 182 43 240 111h55c-68 -79 -176 -131 -296 -131c-206 0 -374 150 -374 336s168 336 374 336s373 -150 373 -336v-9zM646 340v184c0 9 -4 16 -10 22c-58 58 -138 95 -226 95
c-90 0 -170 -38 -228 -98c-6 -6 -10 -14 -10 -23v-180c0 -3 2 -5 5 -5h464c3 0 5 2 5 5z" />
    <glyph glyph-name="zero.oldstyle" unicode="&#xf730;" horiz-adv-x="487" 
d="M207 -11h-1c-88 0 -166 70 -166 195c0 140 95 309 248 309c83 0 167 -70 167 -196c0 -142 -94 -308 -248 -308zM215 28h1c121 0 193 151 193 266c0 95 -50 161 -129 161c-124 0 -194 -153 -194 -268c0 -94 49 -159 129 -159z" />
    <glyph glyph-name="one.oldstyle" unicode="&#xf731;" horiz-adv-x="322" 
d="M267 484l-92 -484h-44l83 436h-2l-142 -71l-8 37l164 82h41z" />
    <glyph glyph-name="two.oldstyle" unicode="&#xf732;" horiz-adv-x="419" 
d="M363 39l-7 -39h-369l5 27l112 78c159 111 217 176 217 252c0 69 -47 101 -101 101s-102 -32 -126 -48l-17 27c32 26 86 59 153 59c74 0 137 -47 137 -138c0 -87 -66 -157 -226 -271l-67 -47v-2c20 1 49 1 67 1h222z" />
    <glyph glyph-name="three.oldstyle" unicode="&#xf733;" horiz-adv-x="406" 
d="M-23 -83l12 36c26 -13 68 -22 105 -22c116 0 201 61 201 150c0 75 -64 113 -135 113c-27 0 -46 -1 -62 -3l5 38c5 1 11 1 15 1c88 7 193 56 193 146c0 52 -42 79 -98 79c-48 0 -87 -17 -111 -31l-15 30c28 18 81 39 138 39c64 0 132 -37 132 -118
c0 -77 -64 -131 -140 -153l-1 -2c72 -13 125 -59 125 -133c0 -129 -130 -194 -241 -194c-52 0 -102 11 -123 24z" />
    <glyph glyph-name="four.oldstyle" unicode="&#xf734;" horiz-adv-x="467" 
d="M317 62l-32 -169h-42l32 169h-274l6 32l354 398h37l-73 -390h95l-8 -40h-95zM282 102l45 239c6 30 12 60 20 86l-4 1c-20 -31 -41 -59 -62 -84l-215 -239l1 -3h215z" />
    <glyph glyph-name="five.oldstyle" unicode="&#xf735;" horiz-adv-x="400" 
d="M-10 -88l12 38c24 -10 63 -18 98 -18c108 0 199 60 199 162c0 34 -12 62 -34 84c-45 43 -131 47 -200 40l84 264h246l-14 -40h-204l-60 -184c66 5 141 -9 186 -54c28 -27 43 -63 43 -106c0 -125 -114 -205 -246 -205c-46 0 -92 11 -110 19z" />
    <glyph glyph-name="six.oldstyle" unicode="&#xf736;" horiz-adv-x="486" 
d="M220 28h1c85 0 168 85 168 192c0 81 -53 127 -117 127c-76 0 -127 -41 -153 -86c-19 -26 -24 -53 -24 -81c0 -90 48 -152 125 -152zM457 598l5 -37c-120 -13 -200 -57 -253 -110c-47 -47 -76 -93 -93 -145h2c32 40 90 79 167 79s150 -58 150 -158
c0 -131 -100 -238 -221 -238c-88 0 -165 61 -165 199c0 74 34 195 122 282c67 66 157 117 286 128z" />
    <glyph glyph-name="seven.oldstyle" unicode="&#xf737;" horiz-adv-x="423" 
d="M422 482l-6 -32c-71 -148 -242 -400 -371 -557l-46 13c103 116 306 406 366 533v3h-294l6 40h345z" />
    <glyph glyph-name="eight.oldstyle" unicode="&#xf738;" horiz-adv-x="487" 
d="M296 600h1c89 0 153 -59 153 -136c0 -70 -53 -112 -132 -152v-2c71 -38 111 -87 111 -149c0 -107 -105 -172 -207 -172c-108 0 -182 61 -182 155c0 86 82 138 161 174v2c-54 28 -87 71 -87 124c0 89 84 156 182 156zM288 563h-1c-66 0 -129 -40 -129 -110
c0 -59 47 -95 119 -123c72 31 127 69 127 134c0 50 -35 99 -116 99zM221 27h1c90 0 161 57 161 128c0 66 -52 107 -141 145c-71 -27 -156 -76 -156 -158c0 -69 57 -115 135 -115z" />
    <glyph glyph-name="nine.oldstyle" unicode="&#xf739;" horiz-adv-x="486" 
d="M218 133h1c62 0 125 42 160 93c11 17 20 46 20 79c0 102 -57 150 -128 150c-86 0 -164 -87 -164 -192c0 -85 50 -130 111 -130zM45 -109l-5 38c28 2 54 5 77 10c164 35 234 141 267 240l-3 1c-32 -42 -98 -84 -170 -84c-87 0 -151 61 -151 159c0 127 102 238 226 238
c89 0 160 -71 160 -196c0 -166 -97 -357 -338 -399c-20 -4 -41 -7 -63 -7z" />
    <glyph glyph-name="percent.oldstyle" unicode="&#xf642;" horiz-adv-x="724" 
d="M209 600h1c77 0 103 -68 103 -127c0 -142 -65 -271 -168 -271c-70 0 -106 59 -106 139c0 119 63 259 170 259zM203 566h-1c-72 0 -122 -120 -122 -226c0 -52 14 -104 72 -104c72 0 120 123 120 228c0 43 -12 102 -69 102zM158 -13h-44l450 613h44zM584 393h1
c76 0 103 -68 103 -128c0 -142 -65 -270 -168 -270c-71 0 -107 58 -107 139c0 118 64 259 171 259zM577 359h-1c-71 0 -121 -121 -121 -227c0 -51 14 -103 72 -103c71 0 120 123 120 228c0 42 -12 102 -70 102z" />
    <glyph glyph-name="zero.fitted" unicode="&#xf639;" horiz-adv-x="462" 
d="M193 -11h-1c-109 0 -147 96 -147 216c0 224 118 456 272 456c114 0 144 -101 144 -192c0 -218 -101 -480 -268 -480zM199 28h1c136 0 215 275 215 433c0 56 -8 162 -102 162c-124 0 -221 -224 -221 -422c0 -79 17 -173 107 -173z" />
    <glyph glyph-name="one.fitted" unicode="&#xf6dc;" horiz-adv-x="314" 
d="M116 0l114 598h-2l-101 -56l-12 37l127 71h42l-124 -650h-44z" />
    <glyph glyph-name="two.fitted" unicode="&#xf63a;" horiz-adv-x="411" 
d="M334 0h-361l7 32l70 63c201 173 314 290 314 415c0 48 -21 111 -107 111c-59 0 -105 -31 -132 -53l-17 34c41 35 103 59 155 59c117 0 149 -84 149 -147c0 -142 -138 -279 -318 -432l-49 -41v-2h297z" />
    <glyph glyph-name="three.fitted" unicode="&#xf63b;" horiz-adv-x="392" 
d="M-12 29l19 35c23 -14 59 -35 114 -35c129 0 182 98 182 174c0 95 -72 132 -143 132h-37l8 38h38c59 0 172 48 172 151c0 61 -33 97 -100 97c-44 0 -87 -16 -116 -39l-17 35c37 25 86 44 139 44c108 0 142 -73 142 -131c0 -90 -72 -153 -143 -174v-2
c74 -19 106 -85 106 -150c0 -114 -94 -215 -235 -215c-62 0 -110 22 -129 40z" />
    <glyph glyph-name="four.fitted" unicode="&#xf63c;" horiz-adv-x="462" 
d="M301 0h-43l36 192h-282l7 31l369 427h37l-80 -419h96l-8 -39h-96zM77 231h225l50 263c6 31 13 61 20 90l-3 1c-26 -37 -40 -64 -65 -95l-227 -257v-2z" />
    <glyph glyph-name="five.fitted" unicode="&#xf63d;" horiz-adv-x="403" 
d="M434 650l-8 -41h-218l-64 -204c11 2 22 3 34 3c23 0 67 -8 101 -26c58 -29 81 -90 81 -142c0 -155 -120 -251 -246 -251c-54 0 -104 20 -123 34l19 36c21 -13 64 -30 114 -30c107 0 189 94 189 198c0 77 -35 141 -155 141c-23 0 -43 -2 -68 -4l88 286h256z" />
    <glyph glyph-name="six.fitted" unicode="&#xf63e;" horiz-adv-x="460" 
d="M444 661l-6 -43c-16 0 -38 -1 -63 -7c-116 -26 -225 -131 -275 -288h2c40 59 112 101 175 101c106 0 152 -80 152 -173c0 -121 -94 -262 -226 -262c-111 0 -165 85 -165 204c0 153 86 297 165 365c60 54 125 85 184 96c22 6 42 7 57 7zM208 28h1c96 0 173 112 173 223
c0 88 -42 133 -117 133c-58 0 -123 -40 -165 -107c-5 -9 -10 -19 -11 -30c-3 -16 -6 -37 -6 -62c0 -92 42 -157 125 -157z" />
    <glyph glyph-name="seven.fitted" unicode="&#xf63f;" horiz-adv-x="370" 
d="M90 650h357l-6 -35c-128 -204 -258 -410 -390 -615h-49c131 203 259 406 387 608l-1 3h-306z" />
    <glyph glyph-name="eight.fitted" unicode="&#xf640;" horiz-adv-x="459" 
d="M301 661h1c89 0 147 -59 147 -140s-55 -141 -134 -178v-3c73 -39 101 -99 101 -160c0 -119 -104 -191 -208 -191c-112 0 -181 68 -181 158c0 105 78 171 161 203v4c-56 39 -75 82 -75 130c0 96 82 177 188 177zM207 27h1c93 0 161 62 161 149c0 73 -38 120 -133 153
c-78 -20 -162 -77 -162 -178c0 -62 42 -124 133 -124zM293 623h-1c-76 0 -134 -63 -134 -135c0 -57 30 -99 107 -126c78 25 138 80 138 152c0 47 -21 109 -110 109z" />
    <glyph glyph-name="nine.fitted" unicode="&#xf641;" horiz-adv-x="460" 
d="M60 -11l5 42c17 0 40 2 62 6c46 10 97 35 144 79c48 43 95 110 128 205h-3c-47 -56 -108 -86 -165 -86c-109 0 -147 91 -147 165c0 127 99 261 225 261c112 0 154 -91 154 -191c0 -167 -100 -324 -170 -387c-50 -43 -107 -73 -162 -86c-23 -5 -50 -9 -71 -8zM304 622h-1
c-95 0 -173 -105 -173 -218c0 -72 35 -129 111 -129c61 0 118 37 155 95c6 8 11 17 13 27c4 19 8 47 8 76c0 86 -30 149 -113 149z" />
    <glyph glyph-name="zero.slashfitted" unicode="&#xe008;" horiz-adv-x="462" 
d="M100 126l298 439c-14 33 -40 58 -85 58c-124 0 -221 -224 -221 -422c0 -24 2 -50 8 -75zM410 520l-297 -438c16 -32 42 -54 86 -54c137 0 216 275 216 433c0 16 -1 38 -5 59zM505 653l-60 -81c12 -32 16 -69 16 -103c0 -218 -101 -480 -268 -480c-50 0 -84 20 -108 52
l-45 -65l-30 25l55 76c-14 35 -20 80 -20 128c0 224 118 456 272 456c52 0 87 -21 109 -53l47 68z" />
    <glyph glyph-name="zero.taboldstyle" unicode="&#xf643;" horiz-adv-x="487" 
d="M207 -11h-1c-88 0 -166 70 -166 195c0 140 95 309 248 309c83 0 167 -70 167 -196c0 -142 -94 -308 -248 -308zM215 28h1c121 0 193 151 193 266c0 95 -50 161 -129 161c-124 0 -194 -153 -194 -268c0 -94 49 -159 129 -159z" />
    <glyph glyph-name="one.taboldstyle" unicode="&#xf644;" horiz-adv-x="487" 
d="M362 484l-92 -484h-44l84 440h-2l-194 -76l-5 37l212 83h41z" />
    <glyph glyph-name="two.taboldstyle" unicode="&#xf645;" horiz-adv-x="487" 
d="M402 39l-7 -39h-369l5 27l112 78c159 111 216 176 216 252c0 69 -46 101 -100 101s-102 -32 -126 -48l-17 27c32 26 85 59 153 59c74 0 137 -47 137 -138c0 -87 -66 -157 -227 -271l-66 -47v-2c20 1 48 1 66 1h223z" />
    <glyph glyph-name="three.taboldstyle" unicode="&#xf646;" horiz-adv-x="487" 
d="M27 -83l13 36c25 -13 68 -22 105 -22c115 0 200 61 200 150c0 75 -64 113 -135 113c-26 0 -45 -1 -62 -3l6 38c5 1 10 1 15 1c88 7 192 56 192 146c0 52 -41 79 -97 79c-49 0 -88 -17 -112 -31l-14 30c27 18 80 39 137 39c64 0 133 -37 133 -118
c0 -77 -64 -131 -141 -153v-2c71 -13 125 -59 125 -133c0 -129 -130 -194 -241 -194c-53 0 -102 11 -124 24z" />
    <glyph glyph-name="four.taboldstyle" unicode="&#xf647;" horiz-adv-x="487" 
d="M331 62l-33 -169h-42l32 169h-274l7 32l354 398h37l-73 -390h94l-8 -40h-94zM295 102l46 239c6 30 12 60 19 86l-3 1c-20 -31 -42 -59 -62 -84l-216 -239l1 -3h215z" />
    <glyph glyph-name="five.taboldstyle" unicode="&#xf648;" horiz-adv-x="487" 
d="M35 -88l12 38c24 -10 63 -18 98 -18c108 0 199 60 199 162c0 34 -12 62 -34 84c-45 43 -131 47 -200 40l84 264h246l-14 -40h-204l-60 -184c66 5 141 -9 186 -54c28 -27 43 -63 43 -106c0 -125 -114 -205 -246 -205c-46 0 -92 11 -110 19z" />
    <glyph glyph-name="six.taboldstyle" unicode="&#xf649;" horiz-adv-x="487" 
d="M227 28h1c85 0 167 85 167 192c0 81 -52 127 -117 127c-75 0 -126 -41 -153 -86c-19 -26 -24 -53 -24 -81c0 -90 49 -152 126 -152zM464 598l4 -37c-120 -13 -199 -57 -252 -110c-48 -47 -76 -93 -94 -145h2c33 40 90 79 168 79c77 0 150 -58 150 -158
c0 -131 -101 -238 -222 -238c-87 0 -165 61 -165 199c0 74 34 195 122 282c68 66 158 117 287 128z" />
    <glyph glyph-name="seven.taboldstyle" unicode="&#xf64a;" horiz-adv-x="487" 
d="M450 482l-6 -32c-71 -148 -242 -400 -372 -557l-46 13c103 116 307 406 366 533v3h-293l6 40h345z" />
    <glyph glyph-name="eight.taboldstyle" unicode="&#xf64b;" horiz-adv-x="487" 
d="M299 600h1c89 0 153 -59 153 -136c0 -70 -53 -112 -132 -152v-2c71 -38 111 -87 111 -149c0 -107 -106 -172 -207 -172c-108 0 -183 61 -183 155c0 86 82 138 162 174v2c-55 28 -88 71 -88 124c0 89 84 156 183 156zM290 563h-1c-66 0 -128 -40 -128 -110
c0 -59 46 -95 118 -123c72 31 128 69 128 134c0 50 -36 99 -117 99zM224 27h1c89 0 160 57 160 128c0 66 -51 107 -140 145c-71 -27 -156 -76 -156 -158c0 -69 57 -115 135 -115z" />
    <glyph glyph-name="nine.taboldstyle" unicode="&#xf64c;" horiz-adv-x="487" 
d="M219 133h1c62 0 125 42 160 93c11 17 20 46 20 79c0 102 -57 150 -128 150c-87 0 -165 -87 -165 -192c0 -85 51 -130 112 -130zM46 -109l-5 38c28 2 54 5 77 10c164 35 234 141 266 240l-3 1c-31 -42 -97 -84 -169 -84c-87 0 -151 61 -151 159c0 127 102 238 225 238
c90 0 160 -71 160 -196c0 -166 -96 -357 -337 -399c-20 -4 -41 -7 -63 -7z" />
    <glyph glyph-name="dollar.taboldstyle" unicode="&#xf653;" horiz-adv-x="487" 
d="M206 -77h-35l14 77c-48 1 -97 20 -124 40l23 34c19 -16 61 -35 114 -35c74 0 138 39 138 97c0 33 -18 66 -99 99c-81 35 -108 69 -108 116c0 72 73 124 153 128l16 81h35l-15 -80c42 -5 81 -22 102 -39l-21 -33c-27 19 -64 34 -105 34c-70 0 -117 -37 -117 -86
c0 -38 18 -56 96 -88c71 -31 109 -72 109 -123c0 -86 -78 -138 -162 -144z" />
    <glyph glyph-name="cent.taboldstyle" unicode="&#xf654;" horiz-adv-x="487" 
d="M341 116l10 -36c-20 -10 -61 -26 -108 -29l-13 -71h-35l14 72c-84 9 -141 68 -141 149c0 119 91 226 214 242l12 66h35l-12 -65c41 -2 78 -19 96 -32l-21 -33c-18 13 -50 27 -87 27c-112 0 -191 -97 -191 -197c0 -73 45 -119 126 -119c40 0 75 13 101 26z" />
    <glyph glyph-name="Euro.taboldstyle" unicode="&#xf64e;" horiz-adv-x="487" 
d="M404 60l10 -35c-27 -19 -81 -36 -146 -36c-112 0 -191 82 -193 197h-51l7 37h46c3 18 6 36 11 56h-47l7 36h51c46 119 147 197 271 197c55 0 92 -15 116 -28l-17 -36c-24 13 -58 25 -100 25c-103 0 -185 -66 -225 -158h263l-7 -36h-267c-6 -19 -9 -37 -10 -56h267l-7 -37
h-262c6 -96 64 -158 162 -158c45 0 99 18 121 32z" />
    <glyph glyph-name="florin.taboldstyle" unicode="&#xf64f;" horiz-adv-x="487" 
d="M500 586l-16 -36c-15 6 -27 10 -47 10c-79 0 -117 -68 -142 -169l-14 -57h125l-5 -37h-129l-47 -192c-33 -136 -84 -216 -179 -216c-26 0 -52 7 -65 16l15 36c17 -10 35 -13 54 -13c51 0 98 44 128 167l49 202h-95l4 37h100l13 54c26 108 79 212 194 212
c22 0 44 -7 57 -14z" />
    <glyph glyph-name="sterling.taboldstyle" unicode="&#xf651;" horiz-adv-x="487" 
d="M427 488l-16 -36c-13 8 -43 20 -80 20c-86 0 -140 -72 -136 -198v-14h152l-6 -37h-144c4 -74 -16 -138 -80 -183v-2h286l-6 -38h-371l5 30c87 37 128 94 121 193h-88l6 37h79v9c-3 138 64 243 191 243c41 0 71 -14 87 -24z" />
    <glyph glyph-name="yen.taboldstyle" unicode="&#xf652;" horiz-adv-x="487" 
d="M220 0h-44l24 121h-147l7 36h146l12 64h-147l7 36h131l-99 244h48l65 -171c9 -26 17 -48 23 -67h3c14 20 34 46 53 70l135 168h53l-202 -244h128l-7 -36h-148l-12 -64h147l-7 -36h-147z" />
    <glyph glyph-name="numbersign.taboldstyle" unicode="&#xf650;" horiz-adv-x="487" 
d="M185 220h92l51 166h-92zM117 0h-40l56 182h-83l7 38h88l51 166h-88l7 37h92l56 177h39l-55 -177h93l55 177h39l-55 -177h83l-6 -37h-88l-51 -166h89l-7 -38h-93l-57 -182h-40l57 182h-93z" />
    <glyph glyph-name="zero.superior" unicode="&#x2070;" horiz-adv-x="297" 
d="M189 400h-1c-71 0 -97 57 -97 134c0 138 73 269 171 269c74 0 96 -61 96 -121c0 -136 -65 -282 -169 -282zM194 432h1c77 0 123 156 123 244c0 33 -6 94 -60 94c-71 0 -126 -127 -126 -238c0 -43 10 -100 62 -100z" />
    <glyph glyph-name="one.superior" unicode="&#xb9;" horiz-adv-x="200" 
d="M172 406h-39l67 350h-2l-68 -33l-5 32l86 41h35z" />
    <glyph glyph-name="two.superior" unicode="&#xb2;" horiz-adv-x="273" 
d="M287 406h-239l5 28l72 59c99 83 166 141 166 211c0 29 -14 62 -67 62c-33 0 -66 -19 -82 -32l-15 28c28 22 68 39 107 39c71 0 99 -49 99 -97c0 -79 -84 -151 -179 -227l-42 -34v-2h182z" />
    <glyph glyph-name="three.superior" unicode="&#xb3;" horiz-adv-x="263" 
d="M141 739l-11 30c21 16 60 32 95 32c71 0 95 -42 95 -83c0 -46 -37 -81 -86 -99l-1 -2c43 -12 67 -50 67 -91c-1 -71 -57 -125 -150 -125c-41 0 -78 14 -93 26l15 31c15 -10 44 -24 82 -24c70 0 105 45 105 91c0 55 -50 75 -95 75h-22l6 32h23c48 0 108 33 108 82
c0 30 -16 53 -63 53c-28 0 -57 -13 -75 -28z" />
    <glyph glyph-name="four.superior" unicode="&#x2074;" horiz-adv-x="289" 
d="M262 406h-38l21 112h-176l6 26l222 253h40l-47 -246h57l-6 -33h-58zM252 551l27 145c4 20 9 40 13 55l-2 1c-16 -21 -26 -39 -41 -57l-126 -142v-2h129z" />
    <glyph glyph-name="five.superior" unicode="&#x2075;" horiz-adv-x="269" 
d="M344 796l-7 -35h-138l-34 -109c7 1 13 2 21 2c15 0 43 -4 65 -16c36 -18 51 -55 51 -87c0 -97 -77 -151 -157 -151c-38 0 -72 13 -84 22l13 31c15 -9 43 -19 76 -19c59 0 110 49 110 107c0 41 -19 79 -97 79c-16 0 -28 -2 -45 -3l54 179h172z" />
    <glyph glyph-name="six.superior" unicode="&#x2076;" horiz-adv-x="297" 
d="M351 803l-6 -36c-11 0 -26 -1 -42 -5c-76 -18 -133 -74 -160 -155l1 -1c24 34 66 57 104 57c66 0 98 -48 98 -107c0 -76 -62 -156 -145 -156c-74 0 -110 52 -110 127c0 93 52 176 101 216c30 25 64 43 104 52c17 4 36 7 55 8zM204 432h1c55 0 99 60 99 122
c0 50 -26 76 -69 76c-35 0 -71 -23 -94 -60c-4 -6 -7 -13 -8 -20s-2 -19 -2 -30c0 -51 25 -88 73 -88z" />
    <glyph glyph-name="seven.superior" unicode="&#x2077;" horiz-adv-x="261" 
d="M126 796h232l-5 -30c-54 -85 -167 -258 -235 -360h-45c71 106 173 263 234 354v2h-187z" />
    <glyph glyph-name="eight.superior" unicode="&#x2078;" horiz-adv-x="298" 
d="M260 803h1c55 0 97 -34 97 -88c0 -46 -31 -81 -79 -103v-1c44 -23 60 -59 60 -94c0 -76 -69 -117 -135 -117c-74 0 -118 41 -118 97c0 60 44 99 94 118v2c-32 22 -44 49 -44 77c0 62 55 109 124 109zM205 431h1c51 0 91 33 91 82c0 42 -23 68 -78 85
c-45 -10 -92 -41 -92 -97c0 -34 25 -70 78 -70zM253 772h-1c-43 0 -77 -36 -77 -75c0 -32 19 -56 64 -70c43 12 78 41 78 83c0 26 -12 62 -64 62z" />
    <glyph glyph-name="nine.superior" unicode="&#x2079;" horiz-adv-x="290" 
d="M91 400l5 35c11 0 25 1 40 3c29 5 59 19 89 43c28 25 55 61 74 112l-2 1c-27 -33 -65 -50 -98 -50c-68 0 -96 54 -96 102c0 80 64 157 144 157c74 0 104 -57 104 -122c0 -102 -61 -191 -105 -228c-32 -27 -71 -44 -109 -50c-17 -3 -33 -4 -46 -3zM243 770h-1
c-52 0 -98 -56 -98 -120c0 -38 21 -72 66 -72c36 0 67 21 88 52c4 5 7 10 8 16c2 10 5 26 5 40c0 48 -20 84 -68 84z" />
    <glyph glyph-name="period.superior" unicode="&#xf6e8;" horiz-adv-x="120" 
d="M106 400h-1c-17 0 -29 14 -29 31c0 20 13 35 33 35c18 0 29 -13 29 -32s-13 -34 -32 -34z" />
    <glyph glyph-name="comma.superior" unicode="&#xf6e2;" horiz-adv-x="120" 
d="M67 335l-33 -4c17 31 46 96 58 137l51 6c-21 -49 -59 -116 -76 -139z" />
    <glyph glyph-name="dollar.superior" unicode="&#xf6e4;" horiz-adv-x="252" 
d="M169 355h-31l11 61c-27 1 -60 13 -77 26l14 32c20 -14 45 -25 79 -25c45 0 85 29 85 74c0 26 -13 50 -53 69c-54 27 -78 56 -78 94c0 52 46 98 105 103l12 60h32l-13 -60c30 -1 54 -12 64 -20l-14 -31c-12 6 -30 19 -67 19c-47 0 -76 -30 -76 -66c0 -27 14 -43 60 -67
c49 -25 70 -55 70 -94c0 -64 -47 -106 -111 -114z" />
    <glyph glyph-name="cent.superior" unicode="&#xf6e0;" horiz-adv-x="267" 
d="M211 396h-31l12 63c-34 5 -57 19 -72 40c-16 21 -22 48 -22 74c0 93 70 168 152 177l11 62h32l-12 -61c21 0 49 -9 59 -16l-15 -32c-15 9 -34 16 -64 16c-57 0 -121 -59 -121 -144c0 -47 28 -85 82 -85c30 0 53 9 68 16l5 -31c-12 -8 -43 -17 -72 -17z" />
    <glyph glyph-name="hyphen.superior" unicode="&#xf6e6;" horiz-adv-x="183" 
d="M96 603h141l-7 -33h-140z" />
    <glyph glyph-name="parenleft.superior" unicode="&#x207d;" horiz-adv-x="168" 
d="M238 831h37c-61 -66 -130 -176 -130 -322c0 -50 10 -104 37 -164h-32c-27 50 -41 101 -41 167c0 149 74 260 129 319z" />
    <glyph glyph-name="parenright.superior" unicode="&#x207e;" horiz-adv-x="168" 
d="M77 345h-37c61 69 131 177 131 324c0 50 -11 103 -38 162h32c27 -49 42 -99 42 -166c0 -149 -75 -259 -130 -320z" />
    <glyph glyph-name="zero.inferior" unicode="&#x2080;" horiz-adv-x="297" 
d="M83 -151h-1c-71 0 -97 58 -97 135c0 138 73 269 171 269c74 0 96 -61 96 -121c0 -137 -65 -283 -169 -283zM88 -118h1c77 0 123 156 123 244c0 33 -6 94 -60 94c-71 0 -126 -127 -126 -239c0 -43 10 -99 62 -99z" />
    <glyph glyph-name="one.inferior" unicode="&#x2081;" horiz-adv-x="200" 
d="M66 -144h-39l67 350h-2l-68 -33l-5 32l86 41h35z" />
    <glyph glyph-name="two.inferior" unicode="&#x2082;" horiz-adv-x="273" 
d="M181 -144h-239l5 28l72 59c99 83 166 141 166 211c0 29 -14 62 -67 62c-33 0 -66 -19 -82 -32l-15 28c28 22 68 39 107 39c71 0 99 -49 99 -97c0 -79 -84 -151 -179 -227l-42 -34v-2h182z" />
    <glyph glyph-name="three.inferior" unicode="&#x2083;" horiz-adv-x="263" 
d="M35 189l-11 30c21 16 60 32 95 32c71 0 95 -42 95 -83c0 -46 -37 -81 -86 -99l-1 -2c43 -12 67 -50 67 -91c-1 -71 -57 -125 -150 -125c-41 0 -78 13 -93 26l15 31c15 -10 44 -24 82 -24c70 0 105 44 105 90c0 56 -50 76 -95 76h-22l6 32h23c48 0 108 33 108 82
c0 30 -16 53 -63 53c-28 0 -57 -13 -75 -28z" />
    <glyph glyph-name="four.inferior" unicode="&#x2084;" horiz-adv-x="289" 
d="M156 -144h-38l21 112h-176l5 26l223 253h40l-47 -246h57l-6 -33h-58zM146 1l27 145c4 20 9 40 13 55l-2 1c-16 -21 -26 -39 -41 -57l-126 -142v-2h129z" />
    <glyph glyph-name="five.inferior" unicode="&#x2085;" horiz-adv-x="269" 
d="M238 246l-7 -35h-138l-34 -109c7 1 13 2 21 2c15 0 43 -4 65 -16c36 -18 51 -55 51 -87c0 -97 -77 -152 -157 -152c-38 0 -72 13 -84 23l13 31c15 -9 43 -19 76 -19c59 0 110 48 110 106c0 42 -19 80 -97 80c-16 0 -28 -2 -45 -3l54 179h172z" />
    <glyph glyph-name="six.inferior" unicode="&#x2086;" horiz-adv-x="297" 
d="M245 253l-6 -36c-11 0 -26 -1 -42 -5c-76 -18 -133 -74 -160 -155l1 -1c24 34 66 57 104 57c66 0 98 -48 98 -107c0 -77 -62 -157 -145 -157c-74 0 -110 53 -110 127c0 94 52 177 101 217c30 25 64 43 104 52c17 4 36 7 55 8zM98 -118h1c55 0 99 60 99 122
c0 50 -26 76 -69 76c-35 0 -71 -23 -94 -60c-4 -6 -7 -13 -8 -20s-2 -19 -2 -30c0 -52 25 -88 73 -88z" />
    <glyph glyph-name="seven.inferior" unicode="&#x2087;" horiz-adv-x="261" 
d="M20 246h232l-5 -30c-54 -85 -167 -258 -235 -360h-45c71 106 173 263 234 354v2h-187z" />
    <glyph glyph-name="eight.inferior" unicode="&#x2088;" horiz-adv-x="298" 
d="M154 253h1c55 0 97 -34 97 -88c0 -46 -31 -81 -79 -103v-1c44 -23 60 -59 60 -94c0 -77 -69 -118 -135 -118c-74 0 -119 42 -119 97c0 61 45 100 95 119v2c-32 22 -44 49 -44 77c0 62 55 109 124 109zM99 -120h1c51 0 91 34 91 83c0 42 -23 68 -78 85
c-45 -10 -92 -41 -92 -97c0 -34 25 -71 78 -71zM147 222h-1c-43 0 -77 -36 -77 -75c0 -32 19 -56 64 -70c43 12 78 41 78 83c0 26 -12 62 -64 62z" />
    <glyph glyph-name="nine.inferior" unicode="&#x2089;" horiz-adv-x="290" 
d="M-15 -151l5 36c11 -1 25 0 40 3c29 5 59 18 89 43c28 25 55 61 74 112l-2 1c-27 -33 -65 -50 -98 -50c-68 0 -96 54 -96 102c0 80 64 157 144 157c74 0 104 -57 104 -122c0 -102 -61 -192 -105 -228c-32 -27 -71 -44 -109 -50c-17 -3 -33 -4 -46 -4zM137 220h-1
c-52 0 -98 -56 -98 -120c0 -38 21 -72 66 -72c36 0 67 21 88 52c4 5 7 10 8 16c2 10 5 26 5 40c0 48 -20 84 -68 84z" />
    <glyph glyph-name="period.inferior" unicode="&#xf6e7;" horiz-adv-x="120" 
d="M-1 -151h-1c-16 0 -28 15 -28 32c0 20 13 35 33 35c18 0 29 -13 29 -32s-13 -35 -33 -35z" />
    <glyph glyph-name="comma.inferior" unicode="&#xf6e1;" horiz-adv-x="120" 
d="M-39 -215l-33 -4c17 31 45 96 58 137l51 6c-21 -49 -59 -116 -76 -139z" />
    <glyph glyph-name="dollar.inferior" unicode="&#xf6e3;" horiz-adv-x="252" 
d="M63 -195h-31l11 61c-27 0 -60 13 -77 26l14 32c19 -14 45 -25 79 -25c45 0 85 28 85 73c0 27 -13 51 -53 70c-54 27 -78 56 -78 94c0 52 46 98 105 103l12 60h32l-13 -60c30 -1 54 -12 64 -20l-14 -31c-12 6 -30 19 -67 19c-47 0 -76 -30 -76 -66c0 -27 14 -43 60 -67
c49 -25 70 -55 70 -94c0 -64 -47 -106 -111 -114z" />
    <glyph glyph-name="cent.inferior" unicode="&#xf6df;" horiz-adv-x="267" 
d="M105 -155h-31l12 63c-34 5 -57 19 -72 41c-16 21 -22 47 -22 74c0 93 70 168 152 177l11 62h32l-12 -61c21 0 49 -9 59 -16l-15 -32c-15 9 -34 16 -64 16c-57 0 -121 -59 -121 -144c0 -48 28 -85 82 -85c30 0 53 9 68 16l5 -32c-12 -7 -43 -16 -72 -16z" />
    <glyph glyph-name="hyphen.inferior" unicode="&#xf6e5;" horiz-adv-x="183" 
d="M-10 53h141l-7 -33h-140z" />
    <glyph glyph-name="parenleft.inferior" unicode="&#x208d;" horiz-adv-x="168" 
d="M132 281h37c-61 -66 -130 -176 -130 -322c0 -50 10 -104 37 -164h-32c-27 50 -41 101 -41 167c0 149 74 260 129 319z" />
    <glyph glyph-name="parenright.inferior" unicode="&#x208e;" horiz-adv-x="168" 
d="M-29 -205h-37c61 68 131 177 131 324c0 50 -11 103 -38 162h32c27 -49 42 -99 42 -166c0 -149 -75 -259 -130 -320z" />
    <glyph glyph-name="zero.numerator" unicode="&#xf661;" horiz-adv-x="297" 
d="M161 260h-1c-71 0 -97 57 -97 134c0 138 73 269 171 269c74 0 96 -61 96 -121c0 -136 -65 -282 -169 -282zM166 292h1c77 0 123 156 123 244c0 33 -6 94 -60 94c-71 0 -126 -127 -126 -238c0 -43 10 -100 62 -100z" />
    <glyph glyph-name="one.numerator" unicode="&#xf662;" horiz-adv-x="200" 
d="M144 266h-39l67 350h-2l-68 -33l-5 32l86 41h35z" />
    <glyph glyph-name="two.numerator" unicode="&#xf663;" horiz-adv-x="273" 
d="M259 266h-239l5 28l72 59c99 83 166 141 166 211c0 29 -14 62 -67 62c-33 0 -66 -19 -82 -32l-15 28c28 22 68 39 107 39c71 0 99 -49 99 -97c0 -79 -84 -151 -179 -227l-42 -34v-2h182z" />
    <glyph glyph-name="three.numerator" unicode="&#xf664;" horiz-adv-x="263" 
d="M113 599l-11 30c21 16 60 32 95 32c71 0 95 -42 95 -83c0 -46 -37 -81 -86 -99l-1 -2c43 -12 67 -50 67 -91c-1 -71 -57 -125 -150 -125c-41 0 -78 14 -93 26l15 31c15 -10 44 -24 82 -24c70 0 105 45 105 91c0 55 -50 75 -95 75h-22l6 32h23c48 0 108 33 108 82
c0 30 -16 53 -63 53c-28 0 -57 -13 -75 -28z" />
    <glyph glyph-name="four.numerator" unicode="&#xf665;" horiz-adv-x="289" 
d="M234 266h-38l21 112h-176l6 26l222 253h40l-47 -246h57l-6 -33h-58zM224 411l27 145c4 20 9 40 13 55l-2 1c-16 -21 -26 -39 -41 -57l-126 -142v-2h129z" />
    <glyph glyph-name="five.numerator" unicode="&#xf666;" horiz-adv-x="269" 
d="M316 656l-7 -35h-138l-34 -109c7 1 13 2 21 2c15 0 43 -4 65 -16c36 -18 51 -55 51 -87c0 -97 -77 -151 -157 -151c-38 0 -72 13 -84 22l13 31c15 -9 43 -19 76 -19c59 0 110 49 110 107c0 41 -19 79 -97 79c-16 0 -28 -2 -45 -3l54 179h172z" />
    <glyph glyph-name="six.numerator" unicode="&#xf667;" horiz-adv-x="297" 
d="M323 663l-6 -36c-11 0 -26 -1 -42 -5c-76 -18 -133 -74 -160 -155l1 -1c24 34 66 57 104 57c66 0 98 -48 98 -107c0 -76 -62 -156 -145 -156c-74 0 -110 52 -110 127c0 93 52 176 101 216c30 25 64 43 104 52c17 4 36 7 55 8zM176 292h1c55 0 99 60 99 122
c0 50 -26 76 -69 76c-35 0 -71 -23 -94 -60c-4 -6 -7 -13 -8 -20s-2 -19 -2 -30c0 -51 25 -88 73 -88z" />
    <glyph glyph-name="seven.numerator" unicode="&#xf668;" horiz-adv-x="261" 
d="M98 656h232l-5 -30c-54 -85 -167 -258 -235 -360h-45c71 106 173 263 234 354v2h-187z" />
    <glyph glyph-name="eight.numerator" unicode="&#xf669;" horiz-adv-x="298" 
d="M232 663h1c55 0 97 -34 97 -88c0 -46 -31 -81 -79 -103v-1c44 -23 60 -59 60 -94c0 -76 -69 -117 -135 -117c-74 0 -118 41 -118 97c0 60 44 99 94 118v2c-32 22 -44 49 -44 77c0 62 55 109 124 109zM177 291h1c51 0 91 33 91 82c0 42 -23 68 -78 85
c-45 -10 -92 -41 -92 -97c0 -34 25 -70 78 -70zM225 632h-1c-43 0 -77 -36 -77 -75c0 -32 19 -56 64 -70c43 12 78 41 78 83c0 26 -12 62 -64 62z" />
    <glyph glyph-name="nine.numerator" unicode="&#xf66a;" horiz-adv-x="290" 
d="M63 260l5 35c11 0 25 1 40 3c29 5 59 19 89 43c28 25 55 61 74 112l-2 1c-27 -33 -65 -50 -98 -50c-68 0 -96 54 -96 102c0 80 64 157 144 157c74 0 104 -57 104 -122c0 -102 -61 -191 -105 -228c-32 -27 -71 -44 -109 -50c-17 -3 -33 -4 -46 -3zM215 630h-1
c-52 0 -98 -56 -98 -120c0 -38 21 -72 66 -72c36 0 67 21 88 52c4 5 7 10 8 16c2 10 5 26 5 40c0 48 -20 84 -68 84z" />
    <glyph glyph-name="period.numerator" unicode="&#xf66c;" horiz-adv-x="120" 
d="M78 260h-1c-17 0 -29 14 -29 31c0 20 13 35 33 35c18 0 29 -13 29 -32s-13 -34 -32 -34z" />
    <glyph glyph-name="comma.numerator" unicode="&#xf66b;" horiz-adv-x="120" 
d="M39 195l-33 -4c17 31 46 96 58 137l51 6c-21 -49 -59 -116 -76 -139z" />
    <glyph glyph-name="dollar.numerator" unicode="&#xf62f;" horiz-adv-x="252" 
d="M141 215h-31l11 61c-27 1 -60 13 -77 26l14 32c20 -14 45 -25 79 -25c45 0 85 29 85 74c0 26 -13 50 -53 69c-54 27 -78 56 -78 94c0 52 46 98 105 103l12 60h32l-13 -60c30 -1 54 -12 64 -20l-14 -31c-12 6 -30 19 -67 19c-47 0 -76 -30 -76 -66c0 -27 14 -43 60 -67
c49 -25 70 -55 70 -94c0 -64 -47 -106 -111 -114z" />
    <glyph glyph-name="cent.numerator" unicode="&#xf62e;" horiz-adv-x="267" 
d="M183 256h-31l12 63c-34 5 -57 19 -72 40c-16 21 -22 48 -22 74c0 93 70 168 152 177l11 62h32l-12 -61c21 0 49 -9 59 -16l-15 -32c-15 9 -34 16 -64 16c-57 0 -121 -59 -121 -144c0 -47 28 -85 82 -85c30 0 53 9 68 16l5 -31c-12 -8 -43 -17 -72 -17z" />
    <glyph glyph-name="hyphen.numerator" unicode="&#xf630;" horiz-adv-x="183" 
d="M68 463h141l-7 -33h-140z" />
    <glyph glyph-name="parenleft.numerator" unicode="&#xf631;" horiz-adv-x="168" 
d="M210 691h37c-61 -66 -130 -176 -130 -322c0 -50 10 -104 37 -164h-32c-27 50 -41 101 -41 167c0 149 74 260 129 319z" />
    <glyph glyph-name="parenright.numerator" unicode="&#xf632;" horiz-adv-x="168" 
d="M49 205h-37c61 69 131 177 131 324c0 50 -11 103 -38 162h32c27 -49 42 -99 42 -166c0 -149 -75 -259 -130 -320z" />
    <glyph glyph-name="zero.denominator" unicode="&#xf655;" horiz-adv-x="297" 
d="M108 -7h-1c-71 0 -97 58 -97 135c0 138 73 269 172 269c73 0 96 -61 96 -121c0 -136 -66 -283 -170 -283zM113 26h1c78 0 123 156 123 244c0 33 -6 94 -60 94c-71 0 -126 -127 -126 -238c0 -43 10 -100 62 -100z" />
    <glyph glyph-name="one.denominator" unicode="&#xf656;" horiz-adv-x="200" 
d="M91 0h-39l67 350h-2l-68 -33l-5 32l86 41h36z" />
    <glyph glyph-name="two.denominator" unicode="&#xf657;" horiz-adv-x="273" 
d="M206 0h-239l5 28l72 59c100 83 166 141 166 211c0 29 -14 62 -66 62c-34 0 -67 -19 -83 -32l-14 28c28 22 67 39 106 39c71 0 99 -49 99 -97c0 -79 -84 -151 -178 -227l-42 -34v-2h181z" />
    <glyph glyph-name="three.denominator" unicode="&#xf658;" horiz-adv-x="263" 
d="M60 333l-11 30c21 16 60 32 95 32c71 0 95 -42 95 -83c0 -46 -37 -81 -86 -99v-2c43 -12 67 -50 66 -91c-1 -71 -56 -125 -150 -125c-40 0 -78 14 -93 26l15 31c16 -10 44 -24 82 -24c70 0 105 45 105 91c0 55 -50 75 -95 75h-21l5 32h24c48 0 107 33 107 82
c0 30 -16 53 -63 53c-28 0 -57 -13 -75 -28z" />
    <glyph glyph-name="four.denominator" unicode="&#xf659;" horiz-adv-x="289" 
d="M181 0h-38l21 112h-176l6 26l222 253h40l-47 -246h58l-7 -33h-57zM171 145l27 145c4 20 9 40 13 55l-2 1c-15 -21 -25 -39 -40 -57l-126 -142l-1 -2h129z" />
    <glyph glyph-name="five.denominator" unicode="&#xf65a;" horiz-adv-x="269" 
d="M263 390l-7 -35h-138l-34 -109c8 1 13 2 21 2c15 0 43 -4 65 -16c37 -18 51 -55 51 -87c0 -97 -76 -152 -157 -152c-38 0 -72 14 -84 23l13 31c15 -9 43 -19 77 -19c58 0 110 49 110 107c0 41 -20 79 -97 79c-16 0 -29 -2 -46 -3l55 179h171z" />
    <glyph glyph-name="six.denominator" unicode="&#xf65b;" horiz-adv-x="297" 
d="M270 397l-6 -36c-10 0 -26 -1 -42 -5c-76 -18 -133 -74 -160 -155l1 -1c24 34 66 57 104 57c66 0 98 -48 98 -107c0 -76 -62 -157 -145 -157c-73 0 -110 53 -110 128c0 93 52 176 102 216c30 25 64 43 103 52c18 4 36 7 55 8zM124 26h1c54 0 98 60 98 122
c0 50 -26 76 -69 76c-35 0 -71 -23 -94 -60c-4 -6 -7 -13 -8 -20s-1 -19 -1 -30c0 -51 24 -88 73 -88z" />
    <glyph glyph-name="seven.denominator" unicode="&#xf65c;" horiz-adv-x="261" 
d="M46 390h232l-5 -30c-55 -85 -168 -258 -236 -360h-45c71 106 173 263 234 354v2h-187z" />
    <glyph glyph-name="eight.denominator" unicode="&#xf65d;" horiz-adv-x="298" 
d="M179 397h1c56 0 97 -34 97 -88c0 -46 -31 -81 -79 -103v-1c45 -23 60 -59 60 -94c0 -76 -69 -118 -135 -118c-74 0 -118 42 -118 98c0 60 44 99 95 118v2c-33 22 -44 49 -44 77c0 62 55 109 123 109zM124 25h1c51 0 92 33 92 82c0 42 -23 68 -79 85
c-45 -10 -91 -41 -91 -97c0 -34 25 -70 77 -70zM173 366h-1c-44 0 -77 -36 -77 -75c0 -32 18 -56 64 -70c42 12 78 41 78 83c0 26 -13 62 -64 62z" />
    <glyph glyph-name="nine.denominator" unicode="&#xf65e;" horiz-adv-x="290" 
d="M10 -7l5 36c12 0 25 1 40 3c29 5 60 19 89 43c28 25 55 61 74 112l-1 1c-28 -33 -66 -50 -99 -50c-68 0 -95 54 -95 102c0 80 64 157 143 157c74 0 105 -57 105 -122c0 -102 -62 -191 -105 -228c-33 -27 -72 -44 -110 -50c-16 -3 -33 -4 -46 -4zM162 364h-1
c-51 0 -97 -56 -97 -120c0 -38 20 -72 65 -72c36 0 68 21 89 52c3 5 6 10 7 16c3 10 5 26 5 40c0 48 -20 84 -68 84z" />
    <glyph glyph-name="period.denominator" unicode="&#xf660;" horiz-adv-x="120" 
d="M25 -7h-1c-17 0 -29 15 -29 32c0 20 14 35 33 35c18 0 30 -13 30 -32s-14 -35 -33 -35z" />
    <glyph glyph-name="comma.denominator" unicode="&#xf65f;" horiz-adv-x="120" 
d="M-14 -71l-33 -4c17 31 46 96 58 137l51 6c-21 -49 -59 -116 -76 -139z" />
    <glyph glyph-name="dollar.denominator" unicode="&#xf62a;" horiz-adv-x="252" 
d="M88 -51h-31l12 61c-27 1 -61 13 -78 26l14 32c20 -14 45 -25 79 -25c46 0 85 29 85 74c0 26 -13 50 -53 69c-54 27 -77 56 -77 94c0 52 45 98 104 103l13 60h31l-12 -60c29 -1 54 -12 64 -20l-15 -31c-11 6 -30 19 -67 19c-47 0 -76 -30 -76 -66c0 -27 14 -43 60 -67
c49 -25 71 -55 71 -94c0 -64 -47 -106 -112 -114z" />
    <glyph glyph-name="cent.denominator" unicode="&#xf629;" horiz-adv-x="267" 
d="M130 -11h-31l12 64c-34 5 -57 19 -72 40s-22 48 -22 74c0 93 71 168 153 177l11 62h31l-12 -61c21 0 49 -9 60 -16l-16 -32c-15 9 -33 16 -64 16c-57 0 -120 -59 -120 -144c0 -47 27 -85 82 -85c29 0 52 9 67 16l6 -31c-13 -8 -44 -17 -73 -17z" />
    <glyph glyph-name="hyphen.denominator" unicode="&#xf62b;" horiz-adv-x="183" 
d="M15 197h141l-7 -33h-140z" />
    <glyph glyph-name="parenleft.denominator" unicode="&#xf62c;" horiz-adv-x="168" 
d="M158 425h36c-61 -66 -130 -176 -130 -322c0 -50 10 -104 37 -164h-32c-26 50 -41 101 -41 167c0 149 74 260 130 319z" />
    <glyph glyph-name="parenright.denominator" unicode="&#xf62d;" horiz-adv-x="168" 
d="M-4 -61h-37c61 69 132 177 132 324c0 50 -11 103 -38 162h32c26 -49 42 -99 42 -166c0 -149 -76 -259 -131 -320z" />
    <glyph glyph-name="at.cap" unicode="&#xf633;" horiz-adv-x="702" 
d="M463 351l25 124c-12 4 -32 10 -62 10c-102 0 -186 -95 -186 -205c0 -48 27 -84 78 -84c70 0 132 91 145 155zM506 65l15 -35c-51 -31 -111 -42 -170 -42c-174 0 -301 121 -301 312c0 207 138 386 359 386c173 0 283 -123 283 -289c0 -153 -85 -238 -170 -238
c-35 0 -74 27 -67 94h-4c-38 -64 -85 -94 -149 -94c-54 0 -105 46 -105 122c0 126 103 241 238 241c42 0 74 -8 100 -19l-36 -179c-18 -87 -4 -127 33 -127c56 -2 116 75 116 191c0 155 -90 261 -246 261c-169 0 -308 -135 -308 -346c0 -166 105 -277 263 -277
c52 0 109 14 149 39z" />
    <glyph glyph-name="emdash.cap" unicode="&#xf6bc;" horiz-adv-x="1000" 
d="M54 348h941l-8 -38h-940z" />
    <glyph glyph-name="endash.cap" unicode="&#xf6bb;" horiz-adv-x="500" 
d="M54 348h441l-8 -38h-440z" />
    <glyph glyph-name="exclamdown.cap" unicode="&#xf6b4;" horiz-adv-x="215" 
d="M91 0h-56l103 493h39zM187 682h1c23 0 39 -21 39 -44c0 -26 -18 -46 -42 -46c-25 0 -40 20 -40 44c0 23 17 46 42 46z" />
    <glyph glyph-name="guillemotleft.cap" unicode="&#xf6b6;" horiz-adv-x="377" 
d="M259 507l-157 -181l105 -179h-46l-108 180l156 180h50zM404 507l-157 -181l106 -179h-46l-108 180l156 180h49z" />
    <glyph glyph-name="guillemotright.cap" unicode="&#xf6b7;" horiz-adv-x="377" 
d="M180 329l-106 178h46l108 -180l-156 -180h-49zM325 329l-105 178h45l109 -180l-156 -180h-50z" />
    <glyph glyph-name="guilsinglleft.cap" unicode="&#xf6b8;" horiz-adv-x="231" 
d="M259 507l-157 -181l105 -179h-46l-108 180l156 180h50z" />
    <glyph glyph-name="guilsinglright.cap" unicode="&#xf6b9;" horiz-adv-x="231" 
d="M180 329l-106 178h46l108 -180l-156 -180h-49z" />
    <glyph glyph-name="hyphen.cap" unicode="&#xf6ba;" horiz-adv-x="298" 
d="M64 371h227l-8 -42h-227z" />
    <glyph glyph-name="questiondown.cap" unicode="&#xf6b5;" horiz-adv-x="351" 
d="M239 496h44c0 -9 -1 -17 -2 -27c-2 -54 -34 -120 -103 -191c-49 -50 -89 -104 -89 -167c0 -43 21 -85 87 -85c32 0 64 9 94 27l14 -38c-37 -20 -79 -31 -114 -31c-103 0 -129 76 -129 127c0 66 46 131 108 195c55 57 82 105 86 159zM288 682h1c23 0 39 -21 39 -44
c0 -26 -18 -46 -42 -46c-25 0 -40 20 -40 44c0 23 17 46 42 46z" />
    <glyph glyph-name="braceleft.cap" unicode="&#xf6b2;" horiz-adv-x="265" 
d="M42 312l6 34c69 -2 88 39 95 78c11 58 4 115 15 173c17 92 75 130 151 130h15l-7 -37h-18c-58 0 -88 -34 -100 -95c-10 -56 -2 -108 -12 -162c-10 -60 -42 -93 -82 -104v-2c36 -11 46 -41 46 -69c0 -36 -13 -78 -28 -117c-15 -38 -29 -75 -29 -103c0 -39 17 -71 67 -73
h18l-7 -36h-11c-65 0 -108 38 -108 100c0 41 14 82 28 120c14 39 29 76 29 106c0 13 1 58 -68 57z" />
    <glyph glyph-name="braceright.cap" unicode="&#xf6b3;" horiz-adv-x="265" 
d="M252 343l-6 -34c-68 1 -87 -40 -94 -79c-12 -57 -5 -113 -16 -172c-16 -91 -75 -129 -151 -129h-15l7 36h18c58 0 88 35 100 95c10 56 3 108 12 162c11 58 42 92 83 104v2c-36 11 -46 42 -46 69c0 35 14 75 28 116c14 39 28 77 28 104c0 40 -17 72 -67 73h-18l7 37h11
c65 0 109 -39 109 -100c0 -43 -14 -84 -29 -123s-28 -73 -28 -105c0 -13 -1 -58 67 -56z" />
    <glyph glyph-name="bracketleft.cap" unicode="&#xf6b0;" horiz-adv-x="265" 
d="M199 -71h-159l152 798h159l-7 -37h-117l-138 -725h116z" />
    <glyph glyph-name="bracketright.cap" unicode="&#xf6b1;" horiz-adv-x="265" 
d="M107 727h159l-152 -798h-159l6 36h118l138 725h-117z" />
    <glyph glyph-name="parenleft.cap" unicode="&#xf6ae;" horiz-adv-x="265" 
d="M299 733h48c-106 -114 -222 -295 -222 -535c0 -87 18 -180 64 -278h-39c-45 85 -69 171 -69 284c0 243 127 428 218 529z" />
    <glyph glyph-name="parenright.cap" unicode="&#xf6af;" horiz-adv-x="265" 
d="M5 -80h-48c106 116 222 296 222 537c0 87 -18 180 -64 276h39c45 -84 69 -169 69 -282c0 -243 -127 -429 -218 -531z" />
    <glyph glyph-name="periodcentered.cap" unicode="&#xf6bd;" horiz-adv-x="181" 
d="M110 293h-1c-22 0 -38 20 -38 44c0 26 18 46 42 46c25 0 39 -20 39 -45c0 -23 -16 -45 -42 -45z" />
    <glyph glyph-name="lessequal" unicode="&#x2264;" horiz-adv-x="596" 
d="M525 88l-454 203v38l454 203v-45l-401 -176v-2l401 -176v-45zM525 0h-451v40h451v-40z" />
    <glyph glyph-name="greaterequal" unicode="&#x2265;" horiz-adv-x="596" 
d="M525 291l-454 -203v45l401 176v2l-401 176v45l454 -203v-38zM522 0h-451v40h451v-40z" />
    <glyph glyph-name="approxequal" unicode="&#x2248;" horiz-adv-x="596" 
d="M541 405l25 -30c-30 -31 -88 -66 -146 -66c-61 0 -98 23 -131 36c-30 12 -65 34 -117 34c-44 0 -93 -28 -121 -56l-25 30c30 31 88 66 146 66c61 0 98 -23 131 -36c30 -12 65 -34 117 -34c44 0 93 28 121 56zM547 215l25 -30c-30 -31 -88 -66 -146 -66
c-61 0 -98 23 -131 36c-30 12 -65 34 -117 34c-44 0 -93 -28 -121 -56l-25 30c30 31 88 66 146 66c61 0 98 -23 131 -36c30 -12 65 -34 117 -34c44 0 93 28 121 56z" />
    <glyph glyph-name="notequal" unicode="&#x2260;" horiz-adv-x="596" 
d="M556 155h-310l-85 -134h-44l86 134h-163v40h188l97 150h-285v40h310l85 134h45l-87 -134h163v-40h-188l-97 -150h285v-40z" />
    <glyph glyph-name="infinity" unicode="&#x221e;" horiz-adv-x="713" 
d="M533 128h-1c-74 0 -126 62 -175 109c-51 -51 -105 -109 -184 -109c-77 0 -133 55 -133 136c0 74 62 136 141 136c75 0 128 -62 176 -109c51 52 105 109 184 109c77 0 133 -55 133 -136c0 -74 -62 -136 -141 -136zM535 168h1c55 0 96 45 96 96c0 55 -39 96 -94 96
c-63 0 -115 -55 -154 -96c43 -40 87 -96 151 -96zM176 168h1c63 0 114 54 153 96c-43 40 -86 96 -151 96c-56 0 -97 -45 -97 -96c0 -55 39 -96 94 -96z" />
    <glyph glyph-name="lozenge" unicode="&#x25ca;" horiz-adv-x="475" 
d="M448 325l-238 -352h-43l-113 352l238 352h43zM401 324l-90 292c-2 5 -4 11 -5 19h-2c-3 -8 -7 -14 -11 -19l-192 -290l90 -292c2 -5 4 -11 5 -19h2c3 8 7 14 11 19z" />
    <glyph glyph-name="integral" unicode="&#x222b;" horiz-adv-x="263" 
d="M345 780l-15 -35c-6 2 -17 4 -26 4c-80 0 -100 -125 -110 -187c-23 -136 -46 -342 -70 -481c-16 -93 -48 -222 -155 -222c-19 0 -32 4 -40 8l10 35c8 -2 20 -5 33 -5c80 0 101 131 110 186c23 139 48 349 70 482c14 91 48 222 158 222c16 0 28 -3 35 -7z" />
    <glyph glyph-name="partialdiff" unicode="&#x2202;" horiz-adv-x="488" 
d="M125 641l-16 32c37 27 91 50 159 50c112 0 216 -97 216 -290c0 -225 -116 -444 -291 -444c-107 0 -158 86 -158 177c0 142 105 267 245 267c72 0 134 -52 152 -97h1c5 32 8 66 8 98c0 173 -93 248 -176 248c-64 0 -111 -20 -140 -41zM199 30h1c112 0 192 118 221 252
c-18 59 -79 110 -148 110c-107 0 -189 -97 -189 -224c0 -83 43 -138 115 -138z" />
    <glyph glyph-name="product" unicode="&#x220f;" horiz-adv-x="595" 
d="M631 610h-77l-143 -700h-45l144 700h-288l-144 -700h-44l143 700h-79l8 40h534z" />
    <glyph glyph-name="radical" unicode="&#x221a;" horiz-adv-x="523" 
d="M608 819l-376 -923h-38l-76 438l-73 -30l-9 32l117 48l61 -376c3 -16 5 -37 6 -53h1c5 15 13 37 19 53l327 811h41z" />
    <glyph glyph-name="summation" unicode="&#x2211;" horiz-adv-x="520" 
d="M436 -90h-470l5 31l317 341l-185 335l6 33h422l-6 -40h-368l-1 -3l182 -328l-301 -326l-1 -3h407z" />
    <glyph glyph-name="Delta" unicode="&#x2206;" horiz-adv-x="476" 
d="M506 0h-501l6 32l340 626h46l115 -626zM64 40h401l-73 403c-9 50 -21 120 -27 165h-2c-17 -37 -45 -92 -71 -143z" />
    <glyph glyph-name="Omega" unicode="&#x2126;" horiz-adv-x="655" 
d="M151 39l1 4c-52 51 -95 141 -95 241c0 223 143 401 338 401c152 0 248 -117 248 -267c0 -174 -102 -309 -199 -375v-4h145l-7 -39h-218l6 34c102 58 226 202 226 378c0 112 -64 235 -206 235c-188 0 -287 -203 -287 -349c0 -131 53 -220 112 -264l-7 -34h-218l8 39h153z
" />
    <glyph glyph-name="pi" unicode="&#x3c0;" horiz-adv-x="500" 
d="M509 442h-71l-56 -301c-16 -90 -15 -119 -11 -141h-42c-5 14 -9 44 7 135l57 307h-182c-8 -33 -16 -70 -26 -108c-34 -127 -85 -272 -129 -334h-45c46 69 95 201 129 331c10 38 19 76 27 111c-50 0 -83 -4 -107 -11l-2 29c18 13 51 20 113 20h348z" />
    <glyph glyph-name="afii61289" unicode="&#x2113;" horiz-adv-x="445" 
d="M192 526l-51 -265c91 80 215 214 215 341c0 51 -21 75 -57 75c-43 0 -88 -48 -107 -151zM360 127l27 -24c-42 -72 -102 -112 -177 -112c-104 0 -139 80 -131 171l2 12c-23 -15 -42 -28 -61 -40l-16 28c29 20 58 39 86 60l55 290c28 148 96 204 164 204
c56 0 94 -43 94 -109c0 -153 -157 -306 -272 -399l-3 -17c-16 -121 29 -158 89 -158c71 0 115 54 143 94z" />
    <glyph glyph-name="Abreve" unicode="&#x102;" horiz-adv-x="537" 
d="M402 237h-257l-124 -237h-47l361 674h44l102 -674h-44zM168 276h227l-34 225c-4 34 -10 81 -13 119h-3c-18 -39 -34 -75 -56 -117zM269 828h35c0 -29 15 -56 66 -56c48 0 73 24 82 56h37c-9 -49 -48 -95 -120 -95c-79 0 -107 46 -100 95z" />
    <glyph glyph-name="Amacron" unicode="&#x100;" horiz-adv-x="537" 
d="M402 237h-257l-124 -237h-47l361 674h44l102 -674h-44zM168 276h227l-34 225c-4 34 -10 81 -13 119h-3c-18 -39 -34 -75 -56 -117zM261 772h217l-7 -39h-217z" />
    <glyph glyph-name="Aogonek" unicode="&#x104;" horiz-adv-x="537" 
d="M379 674l102 -674h-9c-36 -39 -64 -84 -64 -120c0 -25 16 -41 38 -41c13 0 26 4 41 11l9 -28c-18 -16 -43 -20 -65 -20c-44 0 -69 29 -69 70c0 54 56 113 74 134l-34 231h-257l-124 -237h-47l361 674h44zM168 276h227l-34 225c-4 34 -10 81 -13 119h-3
c-18 -39 -34 -75 -56 -117z" />
    <glyph glyph-name="uni01FA" unicode="&#x1fa;" horiz-adv-x="537" 
d="M367 691c-48 0 -76 30 -76 67c0 42 37 75 86 75c42 0 74 -26 74 -66c0 -48 -40 -76 -84 -76zM368 720c29 0 48 18 48 44c0 22 -15 42 -43 42c-27 0 -47 -22 -47 -46s17 -40 42 -40zM456 925h75l-122 -73h-48zM402 237h-257l-124 -237h-47l361 674h44l102 -674h-44z
M168 276h227l-34 225c-4 34 -10 81 -13 119h-3c-18 -39 -34 -75 -56 -117z" />
    <glyph glyph-name="Cacute" unicode="&#x106;" horiz-adv-x="538" 
d="M470 62l10 -38c-39 -18 -101 -35 -173 -35c-164 0 -259 108 -259 277c0 111 42 234 128 316c70 66 158 103 258 103c76 0 130 -20 145 -35l-19 -36c-28 18 -77 31 -138 31c-78 0 -159 -33 -217 -90c-68 -67 -110 -174 -110 -281c0 -128 52 -245 221 -245
c53 0 114 11 154 33zM472 827h77l-140 -112h-44z" />
    <glyph glyph-name="Ccaron" unicode="&#x10c;" horiz-adv-x="538" 
d="M470 62l10 -38c-39 -18 -101 -35 -173 -35c-164 0 -259 108 -259 277c0 111 42 234 128 316c70 66 158 103 258 103c76 0 130 -20 145 -35l-19 -36c-28 18 -77 31 -138 31c-78 0 -159 -33 -217 -90c-68 -67 -110 -174 -110 -281c0 -128 52 -245 221 -245
c53 0 114 11 154 33zM429 715h-37l-80 112h49l52 -77h4l79 77h51z" />
    <glyph glyph-name="Ccircumflex" unicode="&#x108;" horiz-adv-x="538" 
d="M470 62l10 -38c-39 -18 -101 -35 -173 -35c-164 0 -259 108 -259 277c0 111 42 234 128 316c70 66 158 103 258 103c76 0 130 -20 145 -35l-19 -36c-28 18 -77 31 -138 31c-78 0 -159 -33 -217 -90c-68 -67 -110 -174 -110 -281c0 -128 52 -245 221 -245
c53 0 114 11 154 33zM407 823h37l80 -113h-47l-55 78h-2l-80 -78h-51z" />
    <glyph glyph-name="Cdotaccent" unicode="&#x10a;" horiz-adv-x="538" 
d="M470 62l10 -38c-39 -18 -101 -35 -173 -35c-164 0 -259 108 -259 277c0 111 42 234 128 316c70 66 158 103 258 103c76 0 130 -20 145 -35l-19 -36c-28 18 -77 31 -138 31c-78 0 -159 -33 -217 -90c-68 -67 -110 -174 -110 -281c0 -128 52 -245 221 -245
c53 0 114 11 154 33zM426 726h-1c-20 0 -35 19 -35 39c0 19 17 40 38 40c23 0 37 -21 37 -39c0 -19 -16 -40 -39 -40z" />
    <glyph glyph-name="Dcaron" unicode="&#x10e;" horiz-adv-x="626" 
d="M40 1l125 665c48 8 101 13 156 13c117 0 204 -37 250 -100c25 -33 47 -90 47 -166c0 -117 -45 -243 -133 -321c-78 -67 -176 -97 -295 -97c-45 0 -100 2 -150 6zM204 632l-112 -592c38 -5 77 -5 101 -5c125 0 209 34 272 96c70 68 106 173 106 277
c0 127 -58 232 -256 232c-34 0 -81 -2 -111 -8zM386 710h-37l-80 113h49l52 -78h3l80 78h51z" />
    <glyph glyph-name="Ebreve" unicode="&#x114;" horiz-adv-x="441" 
d="M404 375l-8 -39h-248l-56 -297h280l-8 -39h-325l128 674h310l-8 -39h-264l-50 -260h249zM227 825h35c0 -30 15 -57 66 -57c48 0 73 25 82 57h37c-9 -50 -48 -95 -120 -95c-79 0 -107 45 -100 95z" />
    <glyph glyph-name="Ecaron" unicode="&#x11a;" horiz-adv-x="441" 
d="M404 375l-8 -39h-248l-56 -297h280l-8 -39h-325l128 674h310l-8 -39h-264l-50 -260h249zM336 710h-37l-80 113h50l51 -78h4l80 78h51z" />
    <glyph glyph-name="Edotaccent" unicode="&#x116;" horiz-adv-x="441" 
d="M404 375l-8 -39h-248l-56 -297h280l-8 -39h-325l128 674h310l-8 -39h-264l-50 -260h249zM331 726h-1c-21 0 -36 19 -36 39c0 19 17 40 39 40c23 0 36 -21 36 -39c0 -19 -15 -40 -38 -40z" />
    <glyph glyph-name="Emacron" unicode="&#x112;" horiz-adv-x="441" 
d="M404 375l-8 -39h-248l-56 -297h280l-8 -39h-325l128 674h310l-8 -39h-264l-50 -260h249zM225 772h217l-7 -39h-217z" />
    <glyph glyph-name="Eogonek" unicode="&#x118;" horiz-adv-x="441" 
d="M39 0l128 674h310l-8 -39h-264l-50 -260h249l-8 -39h-248l-56 -297h280l-8 -39h-15c-47 -30 -95 -83 -95 -128c0 -21 13 -34 34 -34c15 0 30 3 44 10l10 -30c-22 -13 -42 -18 -67 -18c-41 0 -67 27 -67 64c0 62 65 116 94 136h-263z" />
    <glyph glyph-name="Gbreve" unicode="&#x11e;" horiz-adv-x="592" 
d="M554 333l-57 -305c-31 -15 -97 -35 -172 -35c-97 0 -170 29 -218 91c-49 61 -58 134 -58 189c0 103 42 226 128 306c70 64 162 102 265 102c80 0 130 -20 147 -32l-17 -38c-37 20 -80 30 -141 30c-87 0 -169 -36 -232 -99c-66 -66 -103 -173 -103 -264
c0 -141 64 -245 241 -245c44 0 91 10 120 23l45 238h-156l7 39h201zM312 824h35c0 -30 15 -57 66 -57c48 0 73 25 82 57h37c-9 -50 -48 -95 -120 -95c-79 0 -107 45 -100 95z" />
    <glyph glyph-name="Gcircumflex" unicode="&#x11c;" horiz-adv-x="592" 
d="M554 333l-57 -305c-31 -15 -97 -35 -172 -35c-97 0 -170 29 -218 91c-49 61 -58 134 -58 189c0 103 42 226 128 306c70 64 162 102 265 102c80 0 130 -20 147 -32l-17 -38c-37 20 -80 30 -141 30c-87 0 -169 -36 -232 -99c-66 -66 -103 -173 -103 -264
c0 -141 64 -245 241 -245c44 0 91 10 120 23l45 238h-156l7 39h201zM420 823h37l80 -113h-47l-55 78h-2l-81 -78h-51z" />
    <glyph glyph-name="Gcommaaccent" unicode="&#x122;" horiz-adv-x="592" 
d="M554 333l-57 -305c-31 -15 -97 -35 -172 -35c-97 0 -170 29 -218 91c-49 61 -58 134 -58 189c0 103 42 226 128 306c70 64 162 102 265 102c80 0 130 -20 147 -32l-17 -38c-37 20 -80 30 -141 30c-87 0 -169 -36 -232 -99c-66 -66 -103 -173 -103 -264
c0 -141 64 -245 241 -245c44 0 91 10 120 23l45 238h-156l7 39h201zM170 -209l-8 26c45 7 94 30 94 80c0 21 -12 39 -26 50l41 11c14 -10 29 -32 29 -57c0 -69 -67 -103 -130 -110z" />
    <glyph glyph-name="Gdotaccent" unicode="&#x120;" horiz-adv-x="592" 
d="M554 333l-57 -305c-31 -15 -97 -35 -172 -35c-97 0 -170 29 -218 91c-49 61 -58 134 -58 189c0 103 42 226 128 306c70 64 162 102 265 102c80 0 130 -20 147 -32l-17 -38c-37 20 -80 30 -141 30c-87 0 -169 -36 -232 -99c-66 -66 -103 -173 -103 -264
c0 -141 64 -245 241 -245c44 0 91 10 120 23l45 238h-156l7 39h201zM430 726h-1c-20 0 -35 19 -35 39c0 19 17 40 38 40c23 0 37 -21 37 -39c0 -19 -16 -40 -39 -40z" />
    <glyph glyph-name="G_tildecomb" unicode="&#xe000;" horiz-adv-x="592" 
d="M554 333l-57 -305c-31 -15 -97 -35 -172 -35c-97 0 -170 29 -218 91c-49 61 -58 134 -58 189c0 103 42 226 128 306c70 64 162 102 265 102c80 0 130 -20 147 -32l-17 -38c-37 20 -80 30 -141 30c-87 0 -169 -36 -232 -99c-66 -66 -103 -173 -103 -264
c0 -141 64 -245 241 -245c44 0 91 10 120 23l45 238h-156l7 39h201zM310 716h-32c8 44 34 85 72 85c26 0 39 -8 58 -21c15 -9 29 -17 46 -17c16 0 28 14 34 38h32c-8 -46 -31 -80 -72 -80c-24 0 -36 7 -57 20c-18 10 -28 19 -45 18s-29 -18 -36 -43z" />
    <glyph glyph-name="Hcircumflex" unicode="&#x124;" horiz-adv-x="603" 
d="M167 674h46l-58 -297h351l57 297h45l-129 -674h-45l64 338h-350l-64 -338h-45zM395 823h37l80 -113h-47l-55 78h-2l-80 -78h-51z" />
    <glyph glyph-name="Ibreve" unicode="&#x12c;" horiz-adv-x="208" 
d="M167 674h46l-129 -674h-45zM109 826h35c0 -30 15 -57 66 -57c48 0 73 25 82 57h37c-9 -50 -48 -95 -120 -95c-79 0 -107 45 -100 95z" />
    <glyph glyph-name="Idotaccent" unicode="&#x130;" horiz-adv-x="208" 
d="M167 674h46l-129 -674h-45zM207 726h-1c-21 0 -36 19 -36 39c0 19 17 40 39 40c23 0 36 -21 36 -39c0 -19 -15 -40 -38 -40z" />
    <glyph glyph-name="Imacron" unicode="&#x12a;" horiz-adv-x="208" 
d="M167 674h46l-129 -674h-45zM101 772h217l-7 -39h-217z" />
    <glyph glyph-name="Iogonek" unicode="&#x12e;" horiz-adv-x="208" 
d="M213 674l-129 -674h-8c-36 -39 -64 -84 -64 -120c0 -25 16 -41 38 -41c13 0 27 4 41 11l10 -28c-19 -16 -44 -20 -66 -20c-44 0 -69 29 -69 70c0 54 57 113 74 134l127 668h46z" />
    <glyph glyph-name="Itilde" unicode="&#x128;" horiz-adv-x="208" 
d="M167 674h46l-129 -674h-45zM119 716h-32c8 44 34 85 72 85c26 0 39 -8 58 -21c15 -9 29 -17 46 -17c16 0 28 14 34 38h32c-8 -46 -31 -80 -72 -80c-24 0 -36 7 -57 20c-18 10 -28 19 -45 18s-29 -18 -36 -43z" />
    <glyph glyph-name="Jcircumflex" unicode="&#x134;" horiz-adv-x="342" 
d="M220 203l89 471h45l-90 -475c-28 -150 -89 -210 -199 -210c-39 0 -79 10 -93 18l12 39c22 -11 50 -16 87 -16c76 0 124 41 149 173zM339 823h37l80 -113h-47l-55 78h-2l-80 -78h-51z" />
    <glyph glyph-name="Kcommaaccent" unicode="&#x136;" horiz-adv-x="469" 
d="M39 0l128 674h46l-66 -344l5 1c25 28 49 52 70 74l268 269h57l-290 -289l184 -385h-49l-169 354l-86 -79l-53 -275h-45zM93 -209l-8 26c45 7 94 30 94 80c0 21 -12 39 -26 50l41 11c14 -10 29 -32 29 -57c0 -69 -67 -103 -130 -110z" />
    <glyph glyph-name="Lacute" unicode="&#x139;" horiz-adv-x="414" 
d="M39 0l128 674h46l-122 -635h280l-8 -39h-324zM288 823h77l-140 -113h-44z" />
    <glyph glyph-name="Lcaron" unicode="&#x13d;" horiz-adv-x="414" 
d="M39 0l128 674h46l-122 -635h280l-8 -39h-324zM261 510l-8 27c45 7 94 30 94 79c0 22 -13 40 -27 50l42 12c14 -10 29 -32 29 -57c0 -69 -67 -103 -130 -111z" />
    <glyph glyph-name="Lcommaaccent" unicode="&#x13b;" horiz-adv-x="414" 
d="M39 0l128 674h46l-122 -635h280l-8 -39h-324zM85 -209l-8 26c45 7 93 30 93 80c0 21 -12 39 -26 50l41 11c15 -10 29 -32 29 -57c0 -69 -67 -103 -129 -110z" />
    <glyph glyph-name="Ldot" unicode="&#x13f;" horiz-adv-x="414" 
d="M39 0l128 674h46l-122 -635h280l-8 -39h-324zM306 320h-1c-20 0 -35 19 -35 39s17 41 39 41s36 -21 36 -39c0 -20 -16 -41 -39 -41z" />
    <glyph glyph-name="M_uni0302" unicode="&#xe001;" horiz-adv-x="754" 
d="M649 0h-45l53 417c7 59 22 161 31 206h-3c-27 -56 -62 -128 -99 -194l-239 -429h-33l-66 419c-13 79 -20 148 -26 204h-2c-11 -45 -33 -147 -48 -206l-107 -417h-45l178 674h52l73 -467c9 -53 17 -106 19 -141h3c16 35 41 84 70 137l261 471h55zM471 823h37l80 -113h-47
l-55 78h-2l-81 -78h-51z" />
    <glyph glyph-name="Nacute" unicode="&#x143;" horiz-adv-x="611" 
d="M83 0h-44l128 674h43l195 -458c31 -71 44 -114 57 -162l2 1c4 56 10 101 27 192l81 427h44l-128 -674h-41l-190 450c-35 79 -48 117 -61 170l-3 -2c-7 -61 -15 -111 -30 -194zM460 823h77l-140 -113h-44z" />
    <glyph glyph-name="Ncaron" unicode="&#x147;" horiz-adv-x="611" 
d="M83 0h-44l128 674h43l195 -458c31 -71 44 -114 57 -162l2 1c4 56 10 101 27 192l81 427h44l-128 -674h-41l-190 450c-35 79 -48 117 -61 170l-3 -2c-7 -61 -15 -111 -30 -194zM416 710h-37l-80 113h49l52 -78h4l79 78h51z" />
    <glyph glyph-name="N_uni0302" unicode="&#xe002;" horiz-adv-x="611" 
d="M83 0h-44l128 674h43l195 -458c31 -71 44 -114 57 -162l2 1c4 56 10 101 27 192l81 427h44l-128 -674h-41l-190 450c-35 79 -48 117 -61 170l-3 -2c-7 -61 -15 -111 -30 -194zM399 823h37l80 -113h-47l-55 78h-2l-81 -78h-51z" />
    <glyph glyph-name="Ncommaaccent" unicode="&#x145;" horiz-adv-x="611" 
d="M83 0h-44l128 674h43l195 -458c31 -71 44 -114 57 -162l2 1c4 56 10 101 27 192l81 427h44l-128 -674h-41l-190 450c-35 79 -48 117 -61 170l-3 -2c-7 -61 -15 -111 -30 -194zM176 -209l-8 26c45 7 94 30 94 80c0 21 -13 39 -27 50l42 11c14 -10 29 -32 29 -57
c0 -69 -67 -103 -130 -110z" />
    <glyph glyph-name="Obreve" unicode="&#x14e;" horiz-adv-x="645" 
d="M294 -11h-1c-174 0 -244 136 -244 270c0 117 47 255 131 338c54 54 136 88 213 88c184 0 244 -139 244 -273c0 -114 -42 -248 -124 -330c-58 -58 -132 -93 -219 -93zM299 28h1c67 0 130 29 179 79c71 70 112 198 112 302c0 102 -32 237 -205 237c-69 0 -130 -30 -177 -78
c-72 -72 -114 -199 -114 -301c0 -119 52 -239 204 -239zM328 828h35c-1 -29 15 -56 66 -56c48 0 72 24 81 56h38c-9 -49 -49 -95 -120 -95c-79 0 -107 46 -100 95z" />
    <glyph glyph-name="Ohungarumlaut" unicode="&#x150;" horiz-adv-x="645" 
d="M294 -11h-1c-174 0 -244 136 -244 270c0 117 47 255 131 338c54 54 136 88 213 88c184 0 244 -139 244 -273c0 -114 -42 -248 -124 -330c-58 -58 -132 -93 -219 -93zM299 28h1c67 0 130 29 179 79c71 70 112 198 112 302c0 102 -32 237 -205 237c-69 0 -130 -30 -177 -78
c-72 -72 -114 -199 -114 -301c0 -119 52 -239 204 -239zM417 823h67l-131 -110h-39zM543 823h68l-131 -110h-39z" />
    <glyph glyph-name="Omacron" unicode="&#x14c;" horiz-adv-x="645" 
d="M294 -11h-1c-174 0 -244 136 -244 270c0 117 47 255 131 338c54 54 136 88 213 88c184 0 244 -139 244 -273c0 -114 -42 -248 -124 -330c-58 -58 -132 -93 -219 -93zM299 28h1c67 0 130 29 179 79c71 70 112 198 112 302c0 102 -32 237 -205 237c-69 0 -130 -30 -177 -78
c-72 -72 -114 -199 -114 -301c0 -119 52 -239 204 -239zM320 772h217l-7 -39h-217z" />
    <glyph glyph-name="Oslashacute" unicode="&#x1fe;" horiz-adv-x="645" 
d="M40 -28l-24 24l81 90c-34 51 -48 101 -48 176c0 116 44 242 120 322c61 64 145 101 226 101c76 0 131 -22 171 -66l78 83l27 -23l-82 -89c36 -53 48 -113 48 -173c0 -116 -45 -249 -119 -329c-58 -62 -141 -99 -223 -99c-75 0 -133 23 -177 68zM130 123l408 462
c-32 37 -76 61 -151 61c-126 0 -233 -107 -273 -249c-25 -89 -27 -190 14 -274h2zM556 549l-407 -460c35 -39 80 -61 157 -61c110 0 217 96 261 236c26 84 36 194 -9 285h-2zM481 827h77l-140 -112h-44z" />
    <glyph glyph-name="Racute" unicode="&#x154;" horiz-adv-x="486" 
d="M39 0l126 666c39 8 87 13 127 13c69 0 122 -20 151 -55c24 -28 34 -64 34 -100c0 -96 -80 -176 -164 -197v-2c51 -15 76 -69 80 -143c7 -105 11 -155 18 -182h-47c-3 12 -10 90 -14 165c-4 100 -42 146 -115 146h-92l-59 -311h-45zM205 632l-55 -283h84
c122 0 196 81 196 172c0 83 -60 120 -147 120c-37 0 -61 -3 -78 -9zM381 823h77l-139 -113h-44z" />
    <glyph glyph-name="Rcaron" unicode="&#x158;" horiz-adv-x="486" 
d="M39 0l126 666c39 8 87 13 127 13c69 0 122 -20 151 -55c24 -28 34 -64 34 -100c0 -96 -80 -176 -164 -197v-2c51 -15 76 -69 80 -143c7 -105 11 -155 18 -182h-47c-3 12 -10 90 -14 165c-4 100 -42 146 -115 146h-92l-59 -311h-45zM205 632l-55 -283h84
c122 0 196 81 196 172c0 83 -60 120 -147 120c-37 0 -61 -3 -78 -9zM323 710h-37l-80 113h49l52 -78h3l80 78h51z" />
    <glyph glyph-name="Rcommaaccent" unicode="&#x156;" horiz-adv-x="486" 
d="M39 0l126 666c39 8 87 13 127 13c69 0 122 -20 151 -55c24 -28 34 -64 34 -100c0 -96 -80 -176 -164 -197v-2c51 -15 76 -69 80 -143c7 -105 11 -155 18 -182h-47c-3 12 -10 90 -14 165c-4 100 -42 146 -115 146h-92l-59 -311h-45zM205 632l-55 -283h84
c122 0 196 81 196 172c0 83 -60 120 -147 120c-37 0 -61 -3 -78 -9zM102 -209l-8 26c45 7 94 30 94 80c0 21 -12 39 -26 50l41 11c14 -10 29 -32 29 -57c0 -69 -67 -103 -130 -110z" />
    <glyph glyph-name="Sacute" unicode="&#x15a;" horiz-adv-x="438" 
d="M19 36l19 36c34 -25 81 -43 133 -43c89 0 170 57 170 156c0 58 -27 103 -103 145c-95 52 -131 106 -131 170c0 111 94 185 204 185c56 0 106 -20 125 -37l-19 -35c-21 13 -60 33 -112 33c-93 0 -153 -68 -153 -135c0 -64 30 -99 109 -143c83 -45 125 -98 125 -182
c0 -96 -71 -197 -224 -197c-51 0 -117 21 -143 47zM374 823h77l-140 -112h-44z" />
    <glyph glyph-name="Scedilla" unicode="&#x15e;" horiz-adv-x="438" 
d="M436 648l-19 -35c-21 13 -60 33 -112 33c-93 0 -153 -68 -153 -135c0 -64 30 -99 109 -143c83 -45 125 -98 125 -182c0 -82 -53 -168 -164 -191l-38 -50c31 -7 50 -30 50 -63c0 -46 -41 -80 -98 -80c-25 0 -48 7 -59 15l15 35c14 -9 32 -14 51 -14c26 0 48 16 48 41
c0 24 -25 36 -62 41l52 70c-6 0 -13 -1 -19 -1c-51 0 -117 21 -143 47l19 36c34 -25 81 -43 133 -43c89 0 170 57 170 156c0 58 -27 103 -103 145c-95 52 -131 106 -131 170c0 111 94 185 204 185c56 0 106 -20 125 -37z" />
    <glyph glyph-name="Scircumflex" unicode="&#x15c;" horiz-adv-x="438" 
d="M19 36l19 36c34 -25 81 -43 133 -43c89 0 170 57 170 156c0 58 -27 103 -103 145c-95 52 -131 106 -131 170c0 111 94 185 204 185c56 0 106 -20 125 -37l-19 -35c-21 13 -60 33 -112 33c-93 0 -153 -68 -153 -135c0 -64 30 -99 109 -143c83 -45 125 -98 125 -182
c0 -96 -71 -197 -224 -197c-51 0 -117 21 -143 47zM313 823h37l80 -113h-47l-55 78h-2l-81 -78h-51z" />
    <glyph glyph-name="Scommaaccent" unicode="&#x218;" horiz-adv-x="438" 
d="M19 36l19 36c34 -25 81 -43 133 -43c89 0 170 57 170 156c0 58 -27 103 -103 145c-95 52 -131 106 -131 170c0 111 94 185 204 185c56 0 106 -20 125 -37l-19 -35c-21 13 -60 33 -112 33c-93 0 -153 -68 -153 -135c0 -64 30 -99 109 -143c83 -45 125 -98 125 -182
c0 -96 -71 -197 -224 -197c-51 0 -117 21 -143 47zM78 -209l-8 26c45 7 94 30 94 80c0 21 -12 39 -26 50l41 11c14 -10 29 -32 29 -57c0 -69 -67 -103 -130 -110z" />
    <glyph glyph-name="Tcaron" unicode="&#x164;" horiz-adv-x="441" 
d="M152 0l121 635h-209l8 39h462l-7 -39h-209l-121 -635h-45zM328 710h-37l-80 113h49l52 -78h4l79 78h51z" />
    <glyph glyph-name="Tcommaaccent" unicode="&#x162;" horiz-adv-x="441" 
d="M152 0l121 635h-209l8 39h462l-7 -39h-209l-121 -635h-45zM78 -209l-8 26c45 7 94 30 94 80c0 21 -13 39 -27 50l42 11c14 -10 29 -32 29 -57c0 -69 -67 -103 -130 -110z" />
    <glyph glyph-name="Ubreve" unicode="&#x16c;" horiz-adv-x="600" 
d="M167 674h46l-78 -407c-6 -30 -8 -60 -8 -87c0 -106 60 -151 142 -151c102 0 180 70 212 237l78 408h45l-79 -415c-39 -200 -145 -270 -264 -270c-94 0 -180 54 -180 189c0 29 3 61 9 92zM302 826h36c-1 -30 15 -57 65 -57c49 0 73 25 82 57h37c-8 -50 -48 -95 -119 -95
c-79 0 -107 45 -101 95z" />
    <glyph glyph-name="Uhungarumlaut" unicode="&#x170;" horiz-adv-x="600" 
d="M167 674h46l-78 -407c-6 -30 -8 -60 -8 -87c0 -106 60 -151 142 -151c102 0 180 70 212 237l78 408h45l-79 -415c-39 -200 -145 -270 -264 -270c-94 0 -180 54 -180 189c0 29 3 61 9 92zM397 823h68l-131 -110h-39zM524 823h67l-131 -110h-39z" />
    <glyph glyph-name="Umacron" unicode="&#x16a;" horiz-adv-x="600" 
d="M167 674h46l-78 -407c-6 -30 -8 -60 -8 -87c0 -106 60 -151 142 -151c102 0 180 70 212 237l78 408h45l-79 -415c-39 -200 -145 -270 -264 -270c-94 0 -180 54 -180 189c0 29 3 61 9 92zM295 772h217l-7 -39h-217z" />
    <glyph glyph-name="Uogonek" unicode="&#x172;" horiz-adv-x="600" 
d="M355 -132l5 -31c-18 -10 -37 -14 -58 -14c-45 0 -72 24 -72 64c0 38 29 74 60 103c-9 0 -19 -1 -29 -1c-94 0 -180 54 -180 189c0 29 3 61 9 92l77 404h46l-78 -407c-6 -30 -8 -60 -8 -87c0 -106 60 -151 142 -151c102 0 180 70 212 237l78 408h45l-79 -415
c-25 -128 -77 -202 -142 -239c-23 -14 -52 -33 -67 -47c-24 -22 -40 -49 -40 -76c0 -25 16 -37 37 -37c15 0 27 2 42 8z" />
    <glyph glyph-name="Uring" unicode="&#x16e;" horiz-adv-x="600" 
d="M167 674h46l-78 -407c-6 -30 -8 -60 -8 -87c0 -106 60 -151 142 -151c102 0 180 70 212 237l78 408h45l-79 -415c-39 -200 -145 -270 -264 -270c-94 0 -180 54 -180 189c0 29 3 61 9 92zM398 863h1c51 0 86 -36 86 -84c0 -51 -42 -85 -90 -85c-51 0 -87 36 -87 81
c0 49 37 88 90 88zM397 836h-1c-29 0 -48 -26 -48 -60c0 -29 19 -53 47 -53c29 0 50 24 50 57c0 31 -19 56 -48 56z" />
    <glyph glyph-name="Utilde" unicode="&#x168;" horiz-adv-x="600" 
d="M167 674h46l-78 -407c-6 -30 -8 -60 -8 -87c0 -106 60 -151 142 -151c102 0 180 70 212 237l78 408h45l-79 -415c-39 -200 -145 -270 -264 -270c-94 0 -180 54 -180 189c0 29 3 61 9 92zM315 716h-32c8 44 34 85 71 85c27 0 40 -8 59 -21c15 -9 29 -17 46 -17
c16 0 27 14 34 38h32c-9 -46 -31 -80 -72 -80c-24 0 -36 7 -58 20c-17 10 -27 19 -44 18c-18 -1 -29 -18 -36 -43z" />
    <glyph glyph-name="Wacute" unicode="&#x1e82;" horiz-adv-x="807" 
d="M183 0h-45l-37 674h45l23 -468c4 -91 2 -118 2 -149h3c11 30 22 59 63 143l227 474h46l24 -441c5 -92 7 -145 6 -176h3c18 51 35 93 60 148l222 469h47l-322 -674h-45l-25 449c-6 78 -6 98 -1 176h-3c-21 -60 -36 -99 -60 -146zM559 823h77l-139 -113h-44z" />
    <glyph glyph-name="Wcircumflex" unicode="&#x174;" horiz-adv-x="807" 
d="M183 0h-45l-37 674h45l23 -468c4 -91 2 -118 2 -149h3c11 30 22 59 63 143l227 474h46l24 -441c5 -92 7 -145 6 -176h3c18 51 35 93 60 148l222 469h47l-322 -674h-45l-25 449c-6 78 -6 98 -1 176h-3c-21 -60 -36 -99 -60 -146zM495 823h37l80 -113h-47l-55 78h-2
l-80 -78h-51z" />
    <glyph glyph-name="Wdieresis" unicode="&#x1e84;" horiz-adv-x="807" 
d="M183 0h-45l-37 674h45l23 -468c4 -91 2 -118 2 -149h3c11 30 22 59 63 143l227 474h46l24 -441c5 -92 7 -145 6 -176h3c18 51 35 93 60 148l222 469h47l-322 -674h-45l-25 449c-6 78 -6 98 -1 176h-3c-21 -60 -36 -99 -60 -146zM418 726h-1c-20 0 -35 19 -35 39
c0 19 17 40 38 40c23 0 37 -21 37 -39c0 -19 -16 -40 -39 -40zM589 726h-1c-21 0 -36 19 -36 39c0 19 17 40 39 40c23 0 37 -21 37 -39c0 -19 -16 -40 -39 -40z" />
    <glyph glyph-name="Wgrave" unicode="&#x1e80;" horiz-adv-x="807" 
d="M183 0h-45l-37 674h45l23 -468c4 -91 2 -118 2 -149h3c11 30 22 59 63 143l227 474h46l24 -441c5 -92 7 -145 6 -176h3c18 51 35 93 60 148l222 469h47l-322 -674h-45l-25 449c-6 78 -6 98 -1 176h-3c-21 -60 -36 -99 -60 -146zM377 823h70l73 -113h-36z" />
    <glyph glyph-name="Ycircumflex" unicode="&#x176;" horiz-adv-x="484" 
d="M212 0h-45l54 283l-129 391h48l79 -247c20 -61 27 -86 31 -107h2c14 23 38 61 74 111l172 243h52l-285 -392zM321 823h37l80 -113h-47l-55 78h-2l-80 -78h-51z" />
    <glyph glyph-name="Ygrave" unicode="&#x1ef2;" horiz-adv-x="484" 
d="M212 0h-45l54 283l-129 391h48l79 -247c20 -61 27 -86 31 -107h2c14 23 38 61 74 111l172 243h52l-285 -392zM213 823h70l73 -113h-36z" />
    <glyph glyph-name="uni0232" unicode="&#x232;" horiz-adv-x="484" 
d="M212 0h-45l54 283l-129 391h48l79 -247c20 -61 27 -86 31 -107h2c14 23 38 61 74 111l172 243h52l-285 -392zM238 772h217l-7 -39h-217z" />
    <glyph glyph-name="Zacute" unicode="&#x179;" horiz-adv-x="504" 
d="M-16 0l6 32l498 600v3h-350l8 39h410l-6 -32l-498 -600l2 -3h386l-7 -39h-449zM425 823h77l-140 -113h-44z" />
    <glyph glyph-name="Zdotaccent" unicode="&#x17b;" horiz-adv-x="504" 
d="M-16 0l6 32l498 600v3h-350l8 39h410l-6 -32l-498 -600l2 -3h386l-7 -39h-449zM354 726h-1c-20 0 -35 19 -35 39c0 19 17 40 38 40c23 0 37 -21 37 -39c0 -19 -16 -40 -39 -40z" />
    <glyph glyph-name="AEacute" unicode="&#x1fc;" horiz-adv-x="728" 
d="M-5 0h-48l469 674h317l-8 -39h-248l-31 -261h236l-8 -39h-233l-34 -296h260l-8 -39h-299l30 271h-207zM210 309h186l25 213c4 34 10 82 15 117h-4c-19 -32 -44 -71 -71 -111zM601 823h77l-139 -113h-44z" />
    <glyph glyph-name="abreve" unicode="&#x103;" horiz-adv-x="503" 
d="M402 0h-43c-1 30 5 83 13 142h-2c-56 -112 -126 -153 -201 -153c-84 0 -133 68 -133 153c0 171 132 349 324 349c39 0 82 -6 111 -14l-48 -250c-18 -97 -23 -178 -21 -227zM389 277l31 166c-12 5 -32 9 -69 9c-145 0 -268 -140 -269 -302c0 -58 18 -122 97 -122
c86 0 184 115 210 249zM228 678h36c-4 -41 19 -74 60 -74c53 0 79 39 89 74h38c-12 -69 -66 -114 -125 -114c-87 0 -106 62 -98 114z" />
    <glyph glyph-name="amacron" unicode="&#x101;" horiz-adv-x="503" 
d="M402 0h-43c-1 30 5 83 13 142h-2c-56 -112 -126 -153 -201 -153c-84 0 -133 68 -133 153c0 171 132 349 324 349c39 0 82 -6 111 -14l-48 -250c-18 -97 -23 -178 -21 -227zM389 277l31 166c-12 5 -32 9 -69 9c-145 0 -268 -140 -269 -302c0 -58 18 -122 97 -122
c86 0 184 115 210 249zM232 636h202l-7 -39h-202z" />
    <glyph glyph-name="aogonek" unicode="&#x105;" horiz-adv-x="503" 
d="M471 477l-48 -250c-18 -97 -23 -178 -21 -227h-7c-36 -39 -64 -84 -64 -120c0 -25 16 -41 38 -41c13 0 27 4 41 11l10 -28c-19 -16 -44 -20 -66 -20c-44 0 -69 29 -69 70c0 54 57 113 74 134c0 30 6 81 13 136h-2c-56 -112 -126 -153 -201 -153c-84 0 -133 68 -133 153
c0 171 132 349 324 349c39 0 82 -6 111 -14zM389 277l31 166c-12 5 -32 9 -69 9c-145 0 -268 -140 -269 -302c0 -58 18 -122 97 -122c86 0 184 115 210 249z" />
    <glyph glyph-name="uni01FB" unicode="&#x1fb;" horiz-adv-x="503" 
d="M402 0h-43c-1 30 5 83 13 142h-2c-56 -112 -126 -153 -201 -153c-84 0 -133 68 -133 153c0 171 132 349 324 349c39 0 82 -6 111 -14l-48 -250c-18 -97 -23 -178 -21 -227zM389 277l31 166c-12 5 -32 9 -69 9c-145 0 -268 -140 -269 -302c0 -58 18 -122 97 -122
c86 0 184 115 210 249zM448 835h78l-155 -111h-44zM351 700h1c51 0 88 -38 88 -90c0 -53 -46 -90 -91 -90c-52 0 -90 38 -90 87c0 52 41 93 92 93zM350 670h-1c-29 0 -51 -27 -51 -62c0 -31 21 -58 50 -58c30 0 54 27 54 64c0 31 -21 56 -52 56z" />
    <glyph glyph-name="cacute" unicode="&#x107;" horiz-adv-x="416" 
d="M341 60l12 -38c-20 -11 -71 -33 -141 -33c-127 0 -174 91 -174 179c0 160 117 323 283 323c47 0 91 -16 101 -25l-16 -38c-21 10 -51 22 -92 22c-140 0 -229 -147 -229 -275c0 -85 40 -146 135 -146c54 0 96 18 121 31zM351 678h73l-134 -138h-41z" />
    <glyph glyph-name="ccaron" unicode="&#x10d;" horiz-adv-x="416" 
d="M341 60l12 -38c-20 -11 -71 -33 -141 -33c-127 0 -174 91 -174 179c0 160 117 323 283 323c47 0 91 -16 101 -25l-16 -38c-21 10 -51 22 -92 22c-140 0 -229 -147 -229 -275c0 -85 40 -146 135 -146c54 0 96 18 121 31zM317 540h-36l-66 138h43l45 -100h3l79 100h45z" />
    <glyph glyph-name="ccircumflex" unicode="&#x109;" horiz-adv-x="416" 
d="M341 60l12 -38c-20 -11 -71 -33 -141 -33c-127 0 -174 91 -174 179c0 160 117 323 283 323c47 0 91 -16 101 -25l-16 -38c-21 10 -51 22 -92 22c-140 0 -229 -147 -229 -275c0 -85 40 -146 135 -146c54 0 96 18 121 31zM296 678h35l65 -138h-43l-44 100h-2l-77 -100h-47z
" />
    <glyph glyph-name="cdotaccent" unicode="&#x10b;" horiz-adv-x="416" 
d="M341 60l12 -38c-20 -11 -71 -33 -141 -33c-127 0 -174 91 -174 179c0 160 117 323 283 323c47 0 91 -16 101 -25l-16 -38c-21 10 -51 22 -92 22c-140 0 -229 -147 -229 -275c0 -85 40 -146 135 -146c54 0 96 18 121 31zM320 580h-1c-21 0 -34 18 -34 38c0 21 17 40 38 40
c22 0 35 -18 35 -38c0 -21 -13 -40 -38 -40z" />
    <glyph glyph-name="dcaron" unicode="&#x10f;" horiz-adv-x="513" 
d="M471 710h45l-111 -579c-8 -43 -16 -91 -19 -131h-41l16 106h-2c-45 -71 -106 -117 -183 -117c-99 0 -140 84 -140 171c0 173 131 331 294 331c37 0 76 -8 97 -19zM381 237l37 192c-20 13 -51 23 -93 23c-134 0 -243 -139 -243 -288c0 -59 17 -136 106 -136
c78 0 171 90 193 209zM530 546l-8 26c28 10 59 32 59 76c0 22 -12 43 -26 54l41 11c14 -9 29 -34 29 -59c0 -67 -52 -100 -95 -108z" />
    <glyph glyph-name="ebreve" unicode="&#x115;" horiz-adv-x="423" 
d="M336 63l13 -35c-24 -16 -74 -39 -145 -39c-122 0 -167 93 -167 188c0 143 108 314 251 314c87 0 124 -54 124 -110c0 -129 -156 -155 -325 -152c-6 -26 -5 -85 7 -118c19 -55 61 -82 116 -82c60 0 102 20 126 34zM366 378v1c0 48 -37 73 -86 73c-87 0 -159 -91 -186 -185
c142 -2 272 17 272 111zM187 678h36c-4 -41 20 -74 61 -74c52 0 78 39 88 74h38c-12 -69 -66 -114 -125 -114c-86 0 -106 62 -98 114z" />
    <glyph glyph-name="ecaron" unicode="&#x11b;" horiz-adv-x="423" 
d="M336 63l13 -35c-24 -16 -74 -39 -145 -39c-122 0 -167 93 -167 188c0 143 108 314 251 314c87 0 124 -54 124 -110c0 -129 -156 -155 -325 -152c-6 -26 -5 -85 7 -118c19 -55 61 -82 116 -82c60 0 102 20 126 34zM366 378v1c0 48 -37 73 -86 73c-87 0 -159 -91 -186 -185
c142 -2 272 17 272 111zM292 540h-36l-66 138h43l45 -100h3l79 100h46z" />
    <glyph glyph-name="edotaccent" unicode="&#x117;" horiz-adv-x="423" 
d="M336 63l13 -35c-24 -16 -74 -39 -145 -39c-122 0 -167 93 -167 188c0 143 108 314 251 314c87 0 124 -54 124 -110c0 -129 -156 -155 -325 -152c-6 -26 -5 -85 7 -118c19 -55 61 -82 116 -82c60 0 102 20 126 34zM366 378v1c0 48 -37 73 -86 73c-87 0 -159 -91 -186 -185
c142 -2 272 17 272 111zM301 580h-1c-21 0 -35 18 -35 38c0 21 17 40 38 40c22 0 35 -18 35 -38c0 -21 -13 -40 -37 -40z" />
    <glyph glyph-name="emacron" unicode="&#x113;" horiz-adv-x="423" 
d="M336 63l13 -35c-24 -16 -74 -39 -145 -39c-122 0 -167 93 -167 188c0 143 108 314 251 314c87 0 124 -54 124 -110c0 -129 -156 -155 -325 -152c-6 -26 -5 -85 7 -118c19 -55 61 -82 116 -82c60 0 102 20 126 34zM366 378v1c0 48 -37 73 -86 73c-87 0 -159 -91 -186 -185
c142 -2 272 17 272 111zM192 636h202l-7 -39h-202z" />
    <glyph glyph-name="eogonek" unicode="&#x119;" horiz-adv-x="423" 
d="M366 378v1c0 48 -37 73 -86 73c-87 0 -159 -91 -186 -185c142 -2 272 17 272 111zM292 -139l5 -31c-21 -10 -44 -14 -64 -14c-42 0 -66 28 -66 66c0 44 36 85 70 109v1c-11 -2 -21 -3 -33 -3c-122 0 -167 93 -167 188c0 143 108 314 251 314c87 0 124 -54 124 -110
c0 -129 -156 -155 -325 -152c-6 -26 -5 -85 7 -118c19 -55 61 -82 116 -82c60 0 102 20 126 34l13 -35c-5 -4 -14 -8 -23 -13c-42 -21 -113 -68 -113 -123c0 -25 13 -40 35 -40c15 0 27 1 44 9z" />
    <glyph glyph-name="gbreve" unicode="&#x11f;" horiz-adv-x="503" 
d="M8 -173l17 37c31 -20 72 -35 128 -35c88 0 158 47 192 199l20 92h-2c-45 -82 -113 -122 -186 -122c-97 0 -141 84 -141 163c0 167 123 330 294 330c48 0 110 -17 139 -33l-74 -398c-21 -110 -49 -175 -94 -216c-46 -42 -108 -53 -157 -53c-55 0 -107 14 -136 36zM384 251
l35 180c-18 9 -54 21 -98 21c-142 0 -238 -145 -239 -281c0 -56 17 -134 109 -134c87 0 174 112 193 214zM228 678h36c-4 -41 19 -74 60 -74c53 0 79 39 89 74h38c-12 -69 -66 -114 -125 -114c-87 0 -106 62 -98 114z" />
    <glyph glyph-name="gcircumflex" unicode="&#x11d;" horiz-adv-x="503" 
d="M8 -173l17 37c31 -20 72 -35 128 -35c88 0 158 47 192 199l20 92h-2c-45 -82 -113 -122 -186 -122c-97 0 -141 84 -141 163c0 167 123 330 294 330c48 0 110 -17 139 -33l-74 -398c-21 -110 -49 -175 -94 -216c-46 -42 -108 -53 -157 -53c-55 0 -107 14 -136 36zM384 251
l35 180c-18 9 -54 21 -98 21c-142 0 -238 -145 -239 -281c0 -56 17 -134 109 -134c87 0 174 112 193 214zM319 678h35l65 -138h-43l-44 100h-2l-77 -100h-46z" />
    <glyph glyph-name="gcommaaccent" unicode="&#x123;" horiz-adv-x="503" 
d="M8 -173l17 37c31 -20 72 -35 128 -35c88 0 158 47 192 199l20 92h-2c-45 -82 -113 -122 -186 -122c-97 0 -141 84 -141 163c0 167 123 330 294 330c48 0 110 -17 139 -33l-74 -398c-21 -110 -49 -175 -94 -216c-46 -42 -108 -53 -157 -53c-55 0 -107 14 -136 36zM384 251
l35 180c-18 9 -54 21 -98 21c-142 0 -238 -145 -239 -281c0 -56 17 -134 109 -134c87 0 174 112 193 214zM405 698l8 -26c-45 -8 -94 -30 -94 -80c0 -22 12 -39 26 -50l-40 -11c-14 10 -29 32 -29 56c0 70 67 103 129 111z" />
    <glyph glyph-name="gdotaccent" unicode="&#x121;" horiz-adv-x="503" 
d="M8 -173l17 37c31 -20 72 -35 128 -35c88 0 158 47 192 199l20 92h-2c-45 -82 -113 -122 -186 -122c-97 0 -141 84 -141 163c0 167 123 330 294 330c48 0 110 -17 139 -33l-74 -398c-21 -110 -49 -175 -94 -216c-46 -42 -108 -53 -157 -53c-55 0 -107 14 -136 36zM384 251
l35 180c-18 9 -54 21 -98 21c-142 0 -238 -145 -239 -281c0 -56 17 -134 109 -134c87 0 174 112 193 214zM326 580h-1c-21 0 -34 18 -34 38c0 21 17 40 37 40c23 0 36 -18 36 -38c0 -21 -14 -40 -38 -40z" />
    <glyph glyph-name="g_tildecomb" unicode="&#xe005;" horiz-adv-x="503" 
d="M245 575h-34c5 43 26 83 65 83c25 0 37 -10 61 -23c14 -8 27 -16 41 -16c17 0 24 9 28 42h34c-6 -47 -21 -80 -64 -80c-21 0 -40 9 -57 20c-13 8 -27 18 -44 18c-20 0 -26 -18 -30 -44zM8 -173l17 37c31 -20 72 -35 128 -35c88 0 158 47 192 199l20 92h-2
c-45 -82 -113 -122 -186 -122c-97 0 -141 84 -141 163c0 167 123 330 294 330c48 0 110 -17 139 -33l-74 -398c-21 -110 -49 -175 -94 -216c-46 -42 -108 -53 -157 -53c-55 0 -107 14 -136 36zM384 251l35 180c-18 9 -54 21 -98 21c-142 0 -238 -145 -239 -281
c0 -56 17 -134 109 -134c87 0 174 112 193 214z" />
    <glyph glyph-name="hcircumflex" unicode="&#x125;" horiz-adv-x="516" 
d="M83 0h-45l135 710h46l-65 -329h2c43 68 105 110 184 110c42 0 118 -24 118 -128c0 -27 -2 -55 -7 -78l-54 -285h-45l54 287c4 16 7 40 7 70c0 52 -26 94 -91 94c-73 0 -171 -83 -192 -197zM193 845h37l80 -112h-47l-55 78h-2l-80 -78h-51z" />
    <glyph glyph-name="ibreve" unicode="&#x12d;" horiz-adv-x="206" 
d="M83 0h-45l92 480h45zM80 678h36c-4 -41 19 -74 60 -74c52 0 79 39 88 74h39c-13 -69 -67 -114 -126 -114c-86 0 -105 62 -97 114z" />
    <glyph glyph-name="imacron" unicode="&#x12b;" horiz-adv-x="206" 
d="M83 0h-45l92 480h45zM84 636h202l-7 -39h-202z" />
    <glyph glyph-name="iogonek" unicode="&#x12f;" horiz-adv-x="206" 
d="M176 582h-1c-21 0 -34 19 -34 41c1 22 17 42 38 42c23 0 36 -19 36 -42c-1 -22 -15 -41 -39 -41zM175 480l-92 -480h-7c-36 -39 -65 -84 -65 -120c0 -25 16 -41 38 -41c13 0 27 4 41 11l10 -28c-18 -16 -44 -20 -66 -20c-44 0 -69 29 -69 70c0 54 57 113 74 134l91 474
h45z" />
    <glyph glyph-name="itilde" unicode="&#x129;" horiz-adv-x="206" 
d="M83 0h-45l92 480h45zM97 575h-34c5 43 26 83 65 83c25 0 37 -10 61 -23c14 -8 27 -16 41 -16c17 0 24 9 28 42h34c-6 -47 -21 -80 -64 -80c-21 0 -40 9 -57 20c-13 8 -27 18 -44 18c-20 0 -26 -18 -30 -44z" />
    <glyph glyph-name="jcircumflex" unicode="&#x135;" horiz-adv-x="197" 
d="M129 480h45l-94 -488c-15 -78 -30 -128 -57 -157c-26 -29 -62 -44 -98 -44c-20 0 -34 1 -46 5l6 38c8 -3 23 -5 42 -5c48 0 83 31 104 139zM165 678h36l64 -138h-43l-44 100h-2l-77 -100h-46z" />
    <glyph glyph-name="kcommaaccent" unicode="&#x137;" horiz-adv-x="411" 
d="M83 0h-45l136 710h45l-88 -458h2c15 16 34 34 46 45l198 183h57l-213 -196l149 -284h-48l-135 257l-66 -56zM64 -209l-8 26c45 7 94 30 94 80c0 21 -12 39 -26 50l41 11c14 -10 29 -32 29 -57c0 -69 -67 -103 -130 -110z" />
    <glyph glyph-name="lacute" unicode="&#x13a;" horiz-adv-x="206" 
d="M83 0h-45l135 710h46zM270 852h77l-140 -112h-44z" />
    <glyph glyph-name="lcaron" unicode="&#x13e;" horiz-adv-x="214" 
d="M83 0h-45l135 710h46zM231 546l-8 26c28 10 59 32 59 76c0 22 -12 43 -26 54l41 11c14 -9 29 -34 29 -59c0 -67 -52 -100 -95 -108z" />
    <glyph glyph-name="lcommaaccent" unicode="&#x13c;" horiz-adv-x="206" 
d="M83 0h-45l135 710h46zM-38 -209l-8 26c45 7 94 30 94 80c0 21 -12 39 -26 50l41 11c14 -10 29 -32 29 -57c0 -69 -67 -103 -130 -110z" />
    <glyph glyph-name="ldot" unicode="&#x140;" horiz-adv-x="209" 
d="M83 0h-45l135 710h46zM233 330h-1c-21 0 -34 18 -34 38c0 21 17 40 37 40c23 0 36 -18 36 -38c0 -21 -14 -40 -38 -40z" />
    <glyph glyph-name="m_uni0302" unicode="&#xe006;" horiz-adv-x="794" 
d="M464 678h35l65 -138h-43l-44 100h-2l-77 -100h-47zM83 0h-45l66 351c10 49 16 91 21 129h42l-15 -97h2c46 70 107 108 173 108c71 0 108 -45 111 -117c43 74 104 116 183 117c44 0 116 -28 116 -124c0 -23 -2 -52 -7 -81l-55 -286h-45l54 286c4 18 7 44 7 65
c0 62 -22 100 -88 100c-68 0 -154 -73 -175 -187l-49 -264h-45l56 293c5 23 7 41 7 61c0 45 -12 97 -89 97c-67 0 -158 -87 -177 -194z" />
    <glyph glyph-name="nacute" unicode="&#x144;" horiz-adv-x="516" 
d="M83 0h-45l66 351c10 49 16 91 21 129h42l-15 -103h2c42 70 110 114 185 114c43 0 120 -23 120 -134c0 -22 -4 -49 -9 -76l-53 -281h-45l54 285c3 20 7 44 7 66c0 57 -23 100 -92 100c-68 0 -170 -78 -193 -205zM388 678h74l-135 -138h-40z" />
    <glyph glyph-name="ncaron" unicode="&#x148;" horiz-adv-x="516" 
d="M83 0h-45l66 351c10 49 16 91 21 129h42l-15 -103h2c42 70 110 114 185 114c43 0 120 -23 120 -134c0 -22 -4 -49 -9 -76l-53 -281h-45l54 285c3 20 7 44 7 66c0 57 -23 100 -92 100c-68 0 -170 -78 -193 -205zM322 540h-36l-66 138h43l45 -100h3l79 100h45z" />
    <glyph glyph-name="n_uni0302" unicode="&#xe007;" horiz-adv-x="516" 
d="M325 678h35l65 -138h-43l-44 100h-2l-77 -100h-47zM83 0h-45l66 351c10 49 16 91 21 129h42l-15 -103h2c42 70 110 114 185 114c43 0 120 -23 120 -134c0 -22 -4 -49 -9 -76l-53 -281h-45l54 285c3 20 7 44 7 66c0 57 -23 100 -92 100c-68 0 -170 -78 -193 -205z" />
    <glyph glyph-name="ncommaaccent" unicode="&#x146;" horiz-adv-x="516" 
d="M83 0h-45l66 351c10 49 16 91 21 129h42l-15 -103h2c42 70 110 114 185 114c43 0 120 -23 120 -134c0 -22 -4 -49 -9 -76l-53 -281h-45l54 285c3 20 7 44 7 66c0 57 -23 100 -92 100c-68 0 -170 -78 -193 -205zM117 -209l-8 26c45 7 94 30 94 80c0 21 -12 39 -26 50
l41 11c14 -10 29 -32 29 -57c0 -69 -67 -103 -130 -110z" />
    <glyph glyph-name="obreve" unicode="&#x14f;" horiz-adv-x="500" 
d="M217 -11h-1c-119 0 -178 96 -178 196c0 154 107 306 254 306c130 0 178 -104 178 -201c0 -131 -96 -301 -253 -301zM221 28h1c109 0 201 133 201 263c0 64 -30 162 -134 162c-118 0 -204 -132 -204 -264c0 -92 53 -161 136 -161zM220 678h36c-4 -41 20 -74 61 -74
c52 0 78 39 88 74h38c-12 -69 -66 -114 -125 -114c-86 0 -106 62 -98 114z" />
    <glyph glyph-name="ohungarumlaut" unicode="&#x151;" horiz-adv-x="500" 
d="M217 -11h-1c-119 0 -178 96 -178 196c0 154 107 306 254 306c130 0 178 -104 178 -201c0 -131 -96 -301 -253 -301zM221 28h1c109 0 201 133 201 263c0 64 -30 162 -134 162c-118 0 -204 -132 -204 -264c0 -92 53 -161 136 -161zM303 678h66l-128 -138h-37zM430 678h66
l-129 -138h-37z" />
    <glyph glyph-name="omacron" unicode="&#x14d;" horiz-adv-x="500" 
d="M217 -11h-1c-119 0 -178 96 -178 196c0 154 107 306 254 306c130 0 178 -104 178 -201c0 -131 -96 -301 -253 -301zM221 28h1c109 0 201 133 201 263c0 64 -30 162 -134 162c-118 0 -204 -132 -204 -264c0 -92 53 -161 136 -161zM231 636h202l-7 -39h-202z" />
    <glyph glyph-name="oslashacute" unicode="&#x1ff;" horiz-adv-x="501" 
d="M49 -27l-25 23l54 62c-31 39 -40 87 -40 135c0 149 107 298 251 298c55 0 93 -16 119 -40l49 56l27 -22l-53 -60c31 -43 40 -92 40 -131c0 -158 -116 -305 -248 -305c-57 0 -95 17 -124 43zM111 95l268 322c-19 22 -51 36 -94 36c-120 0 -200 -138 -200 -258
c0 -43 6 -71 24 -101zM400 386l-271 -320c22 -24 55 -38 97 -38c97 0 198 124 198 260c0 38 -8 69 -23 98h-1zM369 678h74l-135 -138h-40z" />
    <glyph glyph-name="racute" unicode="&#x155;" horiz-adv-x="287" 
d="M83 0h-45l62 324c10 57 18 110 24 156h41c-5 -34 -9 -68 -16 -108h3c30 67 80 119 143 119c7 0 17 -1 22 -2l-9 -46c-5 2 -12 2 -22 2c-60 0 -137 -90 -159 -212zM288 678h74l-135 -138h-40z" />
    <glyph glyph-name="rcaron" unicode="&#x159;" horiz-adv-x="287" 
d="M83 0h-45l62 324c10 57 18 110 24 156h41c-5 -34 -9 -68 -16 -108h3c30 67 80 119 143 119c7 0 17 -1 22 -2l-9 -46c-5 2 -12 2 -22 2c-60 0 -137 -90 -159 -212zM236 540h-35l-67 138h43l45 -100h3l79 100h46z" />
    <glyph glyph-name="rcommaaccent" unicode="&#x157;" horiz-adv-x="287" 
d="M83 0h-45l62 324c10 57 18 110 24 156h41c-5 -34 -9 -68 -16 -108h3c30 67 80 119 143 119c7 0 17 -1 22 -2l-9 -46c-5 2 -12 2 -22 2c-60 0 -137 -90 -159 -212zM2 -209l-8 26c45 7 94 30 94 80c0 21 -12 39 -26 50l41 11c14 -10 29 -32 29 -57
c0 -69 -67 -103 -130 -110z" />
    <glyph glyph-name="sacute" unicode="&#x15b;" horiz-adv-x="346" 
d="M16 20l17 37c20 -14 54 -28 90 -28c65 0 110 46 110 100c0 46 -17 74 -71 106c-55 33 -77 76 -77 119c0 74 63 137 151 137c35 0 70 -12 85 -23l-17 -39c-14 10 -42 23 -74 23c-58 0 -100 -41 -100 -91c0 -45 25 -70 70 -97c55 -33 79 -77 79 -123
c0 -95 -75 -152 -160 -152c-46 0 -85 17 -103 31zM295 678h74l-135 -138h-40z" />
    <glyph glyph-name="scedilla" unicode="&#x15f;" horiz-adv-x="346" 
d="M321 468l-17 -39c-14 10 -42 23 -74 23c-58 0 -100 -41 -100 -91c0 -45 25 -70 70 -97c55 -33 79 -77 79 -123c0 -77 -50 -129 -114 -146l-38 -50c31 -7 50 -30 50 -63c0 -46 -41 -80 -98 -80c-24 0 -47 7 -59 15l16 35c14 -9 31 -14 50 -14c26 0 49 16 49 41
c0 24 -26 36 -63 41l52 69h-5c-46 0 -85 17 -103 31l17 37c20 -14 54 -28 90 -28c65 0 110 46 110 100c0 46 -17 74 -71 106c-55 33 -77 76 -77 119c0 74 63 137 151 137c35 0 70 -12 85 -23z" />
    <glyph glyph-name="scircumflex" unicode="&#x15d;" horiz-adv-x="346" 
d="M16 20l17 37c20 -14 54 -28 90 -28c65 0 110 46 110 100c0 46 -17 74 -71 106c-55 33 -77 76 -77 119c0 74 63 137 151 137c35 0 70 -12 85 -23l-17 -39c-14 10 -42 23 -74 23c-58 0 -100 -41 -100 -91c0 -45 25 -70 70 -97c55 -33 79 -77 79 -123
c0 -95 -75 -152 -160 -152c-46 0 -85 17 -103 31zM237 678h36l65 -138h-43l-45 100h-2l-77 -100h-46z" />
    <glyph glyph-name="scommaaccent" unicode="&#x219;" horiz-adv-x="346" 
d="M16 20l17 37c20 -14 54 -28 90 -28c65 0 110 46 110 100c0 46 -17 74 -71 106c-55 33 -77 76 -77 119c0 74 63 137 151 137c35 0 70 -12 85 -23l-17 -39c-14 10 -42 23 -74 23c-58 0 -100 -41 -100 -91c0 -45 25 -70 70 -97c55 -33 79 -77 79 -123
c0 -95 -75 -152 -160 -152c-46 0 -85 17 -103 31zM32 -209l-8 26c45 7 93 30 93 80c0 21 -12 39 -26 50l41 11c15 -10 29 -32 29 -57c0 -69 -67 -103 -129 -110z" />
    <glyph glyph-name="tcaron" unicode="&#x165;" horiz-adv-x="292" 
d="M164 568l49 18l-20 -106h122l-7 -37h-123l-52 -278c-6 -32 -10 -56 -10 -86c0 -32 16 -51 48 -51c16 0 29 2 39 5l4 -36c-13 -5 -32 -8 -52 -8c-64 0 -86 45 -86 87c0 29 4 58 11 91l53 276h-73l7 37h74zM283 546l-8 26c27 10 58 32 58 76c0 22 -12 43 -26 54l41 11
c15 -9 29 -34 29 -59c0 -67 -52 -100 -94 -108z" />
    <glyph glyph-name="tcommaaccent" unicode="&#x163;" horiz-adv-x="292" 
d="M164 568l49 18l-20 -106h122l-7 -37h-123l-52 -278c-6 -32 -10 -56 -10 -86c0 -32 16 -51 48 -51c16 0 29 2 39 5l4 -36c-13 -5 -32 -8 -52 -8c-64 0 -86 45 -86 87c0 29 4 58 11 91l53 276h-73l7 37h74zM15 -209l-8 26c45 7 93 30 93 80c0 21 -12 39 -26 50l41 11
c15 -10 29 -32 29 -57c0 -69 -67 -103 -129 -110z" />
    <glyph glyph-name="ubreve" unicode="&#x16d;" horiz-adv-x="506" 
d="M428 480h45l-67 -351c-9 -48 -15 -91 -18 -129h-43l15 99h-2c-39 -63 -105 -110 -172 -110c-52 0 -129 21 -129 142c0 21 3 45 9 76l52 273h45l-52 -274c-6 -30 -9 -52 -9 -75c0 -61 25 -101 95 -101c67 0 161 78 182 189zM208 678h36c-4 -41 19 -74 60 -74
c53 0 79 39 89 74h38c-12 -69 -66 -114 -125 -114c-87 0 -106 62 -98 114z" />
    <glyph glyph-name="uhungarumlaut" unicode="&#x171;" horiz-adv-x="506" 
d="M428 480h45l-67 -351c-9 -48 -15 -91 -18 -129h-43l15 99h-2c-39 -63 -105 -110 -172 -110c-52 0 -129 21 -129 142c0 21 3 45 9 76l52 273h45l-52 -274c-6 -30 -9 -52 -9 -75c0 -61 25 -101 95 -101c67 0 161 78 182 189zM308 678h66l-129 -138h-36zM434 678h66
l-128 -138h-37z" />
    <glyph glyph-name="umacron" unicode="&#x16b;" horiz-adv-x="506" 
d="M428 480h45l-67 -351c-9 -48 -15 -91 -18 -129h-43l15 99h-2c-39 -63 -105 -110 -172 -110c-52 0 -129 21 -129 142c0 21 3 45 9 76l52 273h45l-52 -274c-6 -30 -9 -52 -9 -75c0 -61 25 -101 95 -101c67 0 161 78 182 189zM222 636h202l-6 -39h-202z" />
    <glyph glyph-name="uogonek" unicode="&#x173;" horiz-adv-x="506" 
d="M473 480l-67 -351c-9 -48 -15 -91 -18 -129l-4 5c-36 -39 -65 -84 -65 -120c0 -25 16 -40 39 -40c12 0 26 3 41 11l9 -29c-18 -16 -44 -20 -66 -20c-43 0 -68 29 -68 70c0 54 56 114 73 134l13 88h-2c-39 -63 -105 -110 -172 -110c-52 0 -129 21 -129 142c0 21 3 45 9 76
l52 273h45l-52 -274c-6 -30 -9 -52 -9 -75c0 -61 25 -101 95 -101c67 0 161 78 182 189l49 261h45z" />
    <glyph glyph-name="uring" unicode="&#x16f;" horiz-adv-x="506" 
d="M428 480h45l-67 -351c-9 -48 -15 -91 -18 -129h-43l15 99h-2c-39 -63 -105 -110 -172 -110c-52 0 -129 21 -129 142c0 21 3 45 9 76l52 273h45l-52 -274c-6 -30 -9 -52 -9 -75c0 -61 25 -101 95 -101c67 0 161 78 182 189zM331 712h1c50 0 88 -38 88 -90
c0 -53 -46 -90 -91 -90c-52 0 -90 38 -90 87c0 52 41 93 92 93zM330 682h-1c-30 0 -52 -27 -52 -62c0 -31 22 -58 51 -58c30 0 53 27 53 64c0 31 -20 56 -51 56z" />
    <glyph glyph-name="utilde" unicode="&#x169;" horiz-adv-x="506" 
d="M428 480h45l-67 -351c-9 -48 -15 -91 -18 -129h-43l15 99h-2c-39 -63 -105 -110 -172 -110c-52 0 -129 21 -129 142c0 21 3 45 9 76l52 273h45l-52 -274c-6 -30 -9 -52 -9 -75c0 -61 25 -101 95 -101c67 0 161 78 182 189zM247 575h-34c4 43 26 83 65 83
c25 0 37 -10 61 -23c14 -8 27 -16 41 -16c16 0 24 9 28 42h33c-5 -47 -21 -80 -63 -80c-22 0 -41 9 -57 20c-13 8 -28 18 -44 18c-21 0 -26 -18 -30 -44z" />
    <glyph glyph-name="wacute" unicode="&#x1e83;" horiz-adv-x="691" 
d="M67 480h43l27 -311c6 -63 6 -85 6 -115h3c8 19 23 56 49 104l173 322h44l42 -318c7 -51 11 -88 12 -108h2c11 30 22 61 41 100l160 326h47l-240 -480h-41l-43 320c-6 41 -10 79 -9 112h-2c-17 -33 -32 -70 -55 -112l-173 -320h-42zM468 678h73l-134 -138h-41z" />
    <glyph glyph-name="wcircumflex" unicode="&#x175;" horiz-adv-x="691" 
d="M67 480h43l27 -311c6 -63 6 -85 6 -115h3c8 19 23 56 49 104l173 322h44l42 -318c7 -51 11 -88 12 -108h2c11 30 22 61 41 100l160 326h47l-240 -480h-41l-43 320c-6 41 -10 79 -9 112h-2c-17 -33 -32 -70 -55 -112l-173 -320h-42zM408 678h36l64 -138h-43l-44 100h-2
l-77 -100h-46z" />
    <glyph glyph-name="wdieresis" unicode="&#x1e85;" horiz-adv-x="691" 
d="M67 480h43l27 -311c6 -63 6 -85 6 -115h3c8 19 23 56 49 104l173 322h44l42 -318c7 -51 11 -88 12 -108h2c11 30 22 61 41 100l160 326h47l-240 -480h-41l-43 320c-6 41 -10 79 -9 112h-2c-17 -33 -32 -70 -55 -112l-173 -320h-42zM331 580h-1c-22 0 -35 18 -35 38
c0 21 17 40 38 40c22 0 36 -18 36 -38s-14 -40 -38 -40zM500 580h-1c-22 0 -34 18 -34 38c0 21 16 40 37 40c22 0 35 -18 35 -38s-13 -40 -37 -40z" />
    <glyph glyph-name="wgrave" unicode="&#x1e81;" horiz-adv-x="691" 
d="M67 480h43l27 -311c6 -63 6 -85 6 -115h3c8 19 23 56 49 104l173 322h44l42 -318c7 -51 11 -88 12 -108h2c11 30 22 61 41 100l160 326h47l-240 -480h-41l-43 320c-6 41 -10 79 -9 112h-2c-17 -33 -32 -70 -55 -112l-173 -320h-42zM303 678h66l61 -138h-33z" />
    <glyph glyph-name="ycircumflex" unicode="&#x177;" horiz-adv-x="406" 
d="M51 480h46l59 -289c12 -59 19 -95 25 -134h3c14 32 30 67 56 121l146 302h48l-186 -377c-44 -90 -87 -173 -153 -240c-52 -54 -106 -77 -131 -83l-13 39c19 7 57 22 92 51c33 27 72 72 102 128c5 9 4 14 3 22zM259 678h36l64 -138h-43l-44 100h-2l-77 -100h-46z" />
    <glyph glyph-name="ygrave" unicode="&#x1ef3;" horiz-adv-x="406" 
d="M51 480h46l59 -289c12 -59 19 -95 25 -134h3c14 32 30 67 56 121l146 302h48l-186 -377c-44 -90 -87 -173 -153 -240c-52 -54 -106 -77 -131 -83l-13 39c19 7 57 22 92 51c33 27 72 72 102 128c5 9 4 14 3 22zM141 678h66l61 -138h-33z" />
    <glyph glyph-name="uni0233" unicode="&#x233;" horiz-adv-x="406" 
d="M183 636h202l-7 -39h-202zM51 480h46l59 -289c12 -59 19 -95 25 -134h3c14 32 30 67 56 121l146 302h48l-186 -377c-44 -90 -87 -173 -153 -240c-52 -54 -106 -77 -131 -83l-13 39c19 7 57 22 92 51c33 27 72 72 102 128c5 9 4 14 3 22z" />
    <glyph glyph-name="zacute" unicode="&#x17a;" horiz-adv-x="393" 
d="M-19 0l5 29l282 317c41 47 65 69 89 93v4h-272l8 37h326l-7 -32l-279 -314c-43 -48 -65 -70 -88 -93v-3h292l-8 -38h-348zM326 678h74l-135 -138h-40z" />
    <glyph glyph-name="zdotaccent" unicode="&#x17c;" horiz-adv-x="393" 
d="M-19 0l5 29l282 317c41 47 65 69 89 93v4h-272l8 37h326l-7 -32l-279 -314c-43 -48 -65 -70 -88 -93v-3h292l-8 -38h-348zM271 580h-1c-21 0 -34 18 -34 38c0 21 16 40 37 40c22 0 35 -18 35 -38c0 -21 -13 -40 -37 -40z" />
    <glyph glyph-name="aeacute" unicode="&#x1fd;" horiz-adv-x="691" 
d="M602 63l14 -34c-23 -16 -70 -40 -146 -40c-81 0 -139 44 -155 120h-2c-37 -77 -108 -120 -184 -120c-82 0 -121 56 -122 117c0 119 116 193 316 184l4 23c10 59 -9 139 -101 139c-44 0 -79 -12 -119 -37l-14 33c56 36 107 43 139 43c81 0 128 -42 134 -116h2
c44 80 121 116 190 116c81 0 121 -50 121 -104c0 -131 -153 -141 -322 -136c-10 -49 -13 -99 3 -144c19 -53 63 -79 117 -79c67 0 101 21 125 35zM304 191l11 60c-103 6 -261 -17 -261 -141c0 -51 32 -82 82 -82c71 0 148 55 168 163zM633 385v1c0 34 -29 67 -80 67
c-99 0 -166 -96 -186 -163c140 -3 266 1 266 95zM476 678h73l-135 -138h-40z" />
    <glyph glyph-name="space_uni0326" unicode="&#xf6c3;" 
d="M46 -209l-8 26c45 7 94 30 94 80c0 21 -12 39 -26 50l41 11c14 -10 29 -32 29 -57c0 -69 -67 -103 -130 -110z" />
    <glyph glyph-name="acute.cap" unicode="&#xf6c9;" 
d="M354 823h77l-139 -113h-44z" />
    <glyph glyph-name="breve.cap" unicode="&#xefee;" 
d="M192 828h35c0 -29 15 -56 66 -56c48 0 73 24 82 56h37c-9 -49 -48 -95 -120 -95c-79 0 -107 46 -100 95z" />
    <glyph glyph-name="caron.cap" unicode="&#xf6ca;" 
d="M300 710h-37l-80 113h50l51 -78h4l80 78h51z" />
    <glyph glyph-name="cedilla.cap" unicode="&#xeff2;" 
d="M139 1h38l-42 -56c32 -7 49 -33 49 -62c0 -50 -44 -81 -97 -81c-24 0 -48 7 -59 16l14 34c14 -9 30 -14 49 -14c26 0 49 14 49 40c0 24 -24 37 -61 42z" />
    <glyph glyph-name="circumflex.cap" unicode="&#xeff7;" 
d="M281 823h37l80 -113h-47l-55 78h-2l-81 -78h-51z" />
    <glyph glyph-name="space_uni0326.cap" unicode="&#xf634;" 
d="M46 -209l-8 26c45 7 94 30 94 80c0 21 -12 39 -26 50l41 11c14 -10 29 -32 29 -57c0 -69 -67 -103 -130 -110z" />
    <glyph glyph-name="dieresis.cap" unicode="&#xf6cb;" 
d="M204 726h-1c-20 0 -35 19 -35 39c0 19 17 40 38 40c23 0 37 -21 37 -39c0 -19 -16 -40 -39 -40zM375 726h-1c-21 0 -36 19 -36 39c0 19 17 40 39 40c23 0 37 -21 37 -39c0 -19 -16 -40 -39 -40z" />
    <glyph glyph-name="dotaccent.cap" unicode="&#xefed;" 
d="M290 726h-1c-21 0 -36 19 -36 39c0 19 17 40 39 40c23 0 36 -21 36 -39c0 -19 -15 -40 -38 -40z" />
    <glyph glyph-name="grave.cap" unicode="&#xf6ce;" 
d="M166 823h69l74 -113h-37z" />
    <glyph glyph-name="hungarumlaut.cap" unicode="&#xf6cf;" 
d="M292 823h68l-131 -110h-39zM418 823h68l-131 -110h-39z" />
    <glyph glyph-name="macron.cap" unicode="&#xf6d0;" 
d="M184 772h217l-7 -39h-217z" />
    <glyph glyph-name="ogonek.cap" unicode="&#xeff1;" 
d="M145 2h48c-42 -29 -91 -83 -91 -127c0 -23 14 -36 35 -36c15 0 29 4 43 11l9 -30c-22 -13 -42 -18 -66 -18c-41 0 -67 27 -67 64c0 62 61 114 89 136z" />
    <glyph glyph-name="ring.cap" unicode="&#xeff3;" 
d="M294 863h1c51 0 86 -36 86 -84c0 -51 -42 -85 -90 -85c-51 0 -87 36 -87 81c0 49 37 88 90 88zM293 836h-1c-29 0 -48 -26 -48 -60c0 -29 19 -53 47 -53c29 0 50 24 50 57c0 31 -19 56 -48 56z" />
    <glyph glyph-name="tilde.cap" unicode="&#xeff5;" 
d="M202 716h-32c8 44 34 85 72 85c26 0 39 -8 58 -21c15 -9 29 -17 46 -17c16 0 28 14 34 38h32c-8 -46 -31 -80 -72 -80c-24 0 -36 7 -57 20c-18 10 -28 19 -45 18s-29 -18 -36 -43z" />
    <glyph glyph-name="Alpha" unicode="&#x391;" horiz-adv-x="537" 
d="M402 237h-257l-124 -237h-47l361 674h44l102 -674h-44zM168 276h227l-34 225c-4 34 -10 81 -13 119h-3c-18 -39 -34 -75 -56 -117z" />
    <glyph glyph-name="Beta" unicode="&#x392;" horiz-adv-x="479" 
d="M40 4l125 662c37 7 77 13 125 13c68 0 118 -18 148 -53c23 -27 30 -58 30 -94c0 -85 -73 -154 -151 -173v-3c59 -16 114 -65 113 -151c0 -67 -34 -122 -73 -154c-51 -41 -119 -56 -196 -56c-47 0 -91 3 -121 9zM204 634l-49 -257h71c107 0 194 60 194 157
c0 75 -55 107 -139 107c-34 0 -63 -2 -77 -7zM148 340l-57 -300c24 -4 53 -5 76 -5c111 -1 216 46 216 174c0 87 -73 131 -154 131h-81z" />
    <glyph glyph-name="Gamma" unicode="&#x393;" horiz-adv-x="411" 
d="M167 674h314l-7 -39h-269l-121 -635h-45z" />
    <glyph glyph-name="uni0394" unicode="&#x394;" horiz-adv-x="571" 
d="M-20 0l6 33l359 641h46l124 -641l-6 -33h-529zM39 39h432l-82 418c-10 50 -22 119 -29 164h-2c-17 -36 -48 -89 -76 -141z" />
    <glyph glyph-name="Epsilon" unicode="&#x395;" horiz-adv-x="441" 
d="M404 375l-8 -39h-248l-56 -297h280l-8 -39h-325l128 674h310l-8 -39h-264l-50 -260h249z" />
    <glyph glyph-name="Zeta" unicode="&#x396;" horiz-adv-x="504" 
d="M-16 0l6 32l498 600v3h-350l8 39h410l-6 -32l-498 -600l2 -3h386l-7 -39h-449z" />
    <glyph glyph-name="Eta" unicode="&#x397;" horiz-adv-x="603" 
d="M167 674h46l-58 -297h351l57 297h45l-129 -674h-45l64 338h-350l-64 -338h-45z" />
    <glyph glyph-name="Theta" unicode="&#x398;" horiz-adv-x="645" 
d="M294 -11h-1c-174 0 -244 136 -244 270c0 114 45 243 121 327c56 60 141 99 223 99c184 0 244 -139 244 -273c0 -109 -40 -238 -114 -320c-59 -65 -138 -103 -229 -103zM299 28h1c161 0 291 196 291 381c0 102 -32 237 -205 237c-171 0 -291 -208 -291 -379
c0 -119 52 -239 204 -239zM192 370h309l-6 -39h-309z" />
    <glyph glyph-name="Iota" unicode="&#x399;" horiz-adv-x="208" 
d="M167 674h46l-129 -674h-45z" />
    <glyph glyph-name="Kappa" unicode="&#x39a;" horiz-adv-x="469" 
d="M39 0l128 674h46l-66 -344l5 1c25 28 49 52 70 74l268 269h57l-290 -289l184 -385h-49l-169 354l-86 -79l-53 -275h-45z" />
    <glyph glyph-name="Lambda" unicode="&#x39b;" horiz-adv-x="538" 
d="M483 0h-44l-78 501c-6 47 -10 81 -13 120h-2c-17 -40 -34 -75 -57 -118l-267 -503h-47l360 674h45z" />
    <glyph glyph-name="Mu" unicode="&#x39c;" horiz-adv-x="754" 
d="M649 0h-45l53 417c7 59 22 161 31 206h-3c-27 -56 -62 -128 -99 -194l-239 -429h-33l-66 419c-13 79 -20 148 -26 204h-2c-11 -45 -33 -147 -48 -206l-107 -417h-45l178 674h52l73 -467c9 -53 17 -106 19 -141h3c16 35 41 84 70 137l261 471h55z" />
    <glyph glyph-name="Nu" unicode="&#x39d;" horiz-adv-x="611" 
d="M83 0h-44l128 674h43l195 -458c31 -71 44 -114 57 -162l2 1c4 56 10 101 27 192l81 427h44l-128 -674h-41l-190 450c-35 79 -48 117 -61 170l-3 -2c-7 -61 -15 -111 -30 -194z" />
    <glyph glyph-name="Xi" unicode="&#x39e;" horiz-adv-x="518" 
d="M135 674h418l-7 -39h-418zM114 371h348l-7 -39h-348zM10 39h435l-7 -39h-435z" />
    <glyph glyph-name="Omicron" unicode="&#x39f;" horiz-adv-x="645" 
d="M294 -11h-1c-174 0 -244 136 -244 270c0 114 45 243 121 327c56 60 141 99 223 99c184 0 244 -139 244 -273c0 -109 -40 -238 -114 -320c-59 -65 -138 -103 -229 -103zM299 28h1c161 0 291 196 291 381c0 102 -32 237 -205 237c-171 0 -291 -208 -291 -379
c0 -119 52 -239 204 -239z" />
    <glyph glyph-name="Pi" unicode="&#x3a0;" horiz-adv-x="601" 
d="M605 674l-127 -674h-45l119 635h-348l-120 -635h-45l128 674h438z" />
    <glyph glyph-name="Rho" unicode="&#x3a1;" horiz-adv-x="476" 
d="M39 0l127 666c35 7 80 13 128 13c68 0 126 -20 157 -57c23 -29 34 -63 34 -109c0 -69 -36 -132 -75 -166c-50 -45 -125 -66 -197 -66c-26 0 -49 1 -75 6l-54 -287h-45zM204 632l-58 -304c28 -7 50 -8 74 -8c131 0 219 80 219 192c0 90 -64 128 -154 128
c-36 0 -64 -3 -81 -8z" />
    <glyph glyph-name="Sigma" unicode="&#x3a3;" horiz-adv-x="519" 
d="M57 43v-4h413l-7 -39h-477l5 32l311 308l-183 301l5 33h426l-7 -39h-368v-3l180 -296z" />
    <glyph glyph-name="Tau" unicode="&#x3a4;" horiz-adv-x="441" 
d="M152 0l121 635h-209l8 39h462l-7 -39h-209l-121 -635h-45z" />
    <glyph glyph-name="Upsilon" unicode="&#x3a5;" horiz-adv-x="537" 
d="M81 643l10 37c35 -5 90 -44 122 -91c40 -60 72 -151 67 -267h2c42 122 118 216 178 269c52 46 110 79 147 89l6 -36c-59 -29 -199 -115 -291 -317c-16 -35 -33 -74 -45 -138l-34 -189h-46l36 191c8 49 12 101 9 138c-11 210 -105 294 -161 314z" />
    <glyph glyph-name="Phi" unicode="&#x3a6;" horiz-adv-x="645" 
d="M251 -25l11 52c-116 8 -213 98 -213 248c0 238 182 377 331 374l10 50h44l-9 -50c119 -8 212 -99 212 -252c0 -224 -167 -369 -331 -370l-10 -52h-45zM270 65l102 546c-121 1 -277 -125 -277 -331c0 -123 73 -205 175 -215zM416 611l-102 -546c170 7 277 168 277 331
c0 129 -76 208 -175 215z" />
    <glyph glyph-name="Chi" unicode="&#x3a7;" horiz-adv-x="492" 
d="M435 0h-48l-76 187c-20 46 -36 88 -47 119h-2c-20 -28 -48 -66 -85 -114l-147 -192h-54l270 343l-131 331h48l78 -200c16 -39 27 -70 36 -96h2c19 26 45 62 71 95l160 201h54l-268 -330z" />
    <glyph glyph-name="Psi" unicode="&#x3a8;" horiz-adv-x="620" 
d="M654 674l-38 -203c-28 -156 -121 -247 -286 -251l-40 -220h-46l41 220c-84 4 -197 46 -197 193c0 32 4 55 9 88l33 173h45l-34 -182c-6 -31 -8 -59 -8 -75c0 -96 48 -150 160 -158l76 415h45l-76 -415c116 4 205 61 233 214l38 201h45z" />
    <glyph glyph-name="uni03A9" unicode="&#x3a9;" horiz-adv-x="655" 
d="M151 39l1 4c-52 51 -95 141 -95 241c0 223 143 401 338 401c152 0 248 -117 248 -267c0 -174 -102 -309 -199 -375v-4h145l-7 -39h-218l6 34c102 58 226 202 226 378c0 112 -64 235 -206 235c-188 0 -287 -203 -287 -349c0 -131 53 -220 112 -264l-7 -34h-218l8 39h153z
" />
    <glyph glyph-name="Alphatonos" unicode="&#x386;" horiz-adv-x="537" 
d="M402 237h-257l-124 -237h-47l361 674h44l102 -674h-44zM168 276h227l-34 225c-4 34 -10 81 -13 119h-3c-18 -39 -34 -75 -56 -117zM118 674h54l-40 -143h-30z" />
    <glyph glyph-name="Epsilontonos" unicode="&#x388;" horiz-adv-x="441" 
d="M404 375l-8 -39h-248l-56 -297h280l-8 -39h-325l128 674h310l-8 -39h-264l-50 -260h249zM39 674h53l-40 -143h-29z" />
    <glyph glyph-name="Etatonos" unicode="&#x389;" horiz-adv-x="603" 
d="M167 674h46l-58 -297h351l57 297h45l-129 -674h-45l64 338h-350l-64 -338h-45zM37 674h54l-40 -143h-30z" />
    <glyph glyph-name="Iotatonos" unicode="&#x38a;" horiz-adv-x="208" 
d="M167 674h46l-129 -674h-45zM41 674h54l-40 -143h-30z" />
    <glyph glyph-name="Iotadieresis" unicode="&#x3aa;" horiz-adv-x="208" 
d="M110 710h-1c-22 0 -35 18 -35 39s17 40 39 40s36 -18 36 -39c0 -20 -14 -40 -39 -40zM280 710h-1c-22 0 -36 18 -36 39s17 40 39 40c23 0 37 -18 37 -39c0 -20 -15 -40 -39 -40zM167 674h46l-129 -674h-45z" />
    <glyph glyph-name="Omicrontonos" unicode="&#x38c;" horiz-adv-x="645" 
d="M294 -11h-1c-174 0 -244 136 -244 270c0 114 45 243 121 327c56 60 141 99 223 99c184 0 244 -139 244 -273c0 -109 -40 -238 -114 -320c-59 -65 -138 -103 -229 -103zM299 28h1c161 0 291 196 291 381c0 102 -32 237 -205 237c-171 0 -291 -208 -291 -379
c0 -119 52 -239 204 -239zM34 674h54l-40 -143h-30z" />
    <glyph glyph-name="Upsilontonos" unicode="&#x38e;" horiz-adv-x="557" 
d="M101 643l10 37c35 -5 90 -44 122 -91c40 -60 72 -151 67 -267h2c42 122 118 216 178 269c52 46 110 79 147 89l6 -36c-59 -29 -199 -115 -291 -317c-16 -35 -33 -74 -45 -138l-34 -189h-46l36 191c8 49 12 101 9 138c-11 210 -105 294 -161 314zM14 674h54l-40 -143h-30z
" />
    <glyph glyph-name="Upsilondieresis" unicode="&#x3ab;" horiz-adv-x="537" 
d="M265 706h-1c-22 0 -35 18 -35 39s17 40 38 40c23 0 37 -18 37 -38c0 -21 -14 -41 -39 -41zM435 706h-1c-22 0 -36 18 -36 39s17 40 39 40c23 0 36 -18 36 -38c0 -21 -14 -41 -38 -41zM81 643l10 37c35 -5 90 -44 122 -91c40 -60 72 -151 67 -267h2
c42 122 118 216 178 269c52 46 110 79 147 89l6 -36c-59 -29 -199 -115 -291 -317c-16 -35 -33 -74 -45 -138l-34 -189h-46l36 191c8 49 12 101 9 138c-11 210 -105 294 -161 314z" />
    <glyph glyph-name="Omegatonos" unicode="&#x38f;" horiz-adv-x="658" 
d="M154 39v4c-51 51 -95 141 -95 241c0 223 144 401 338 401c153 0 248 -117 248 -267c0 -175 -100 -309 -198 -375v-4h145l-7 -39h-218l5 34c103 58 227 202 227 378c0 112 -64 235 -207 235c-187 0 -286 -203 -286 -349c0 -131 53 -220 112 -264l-7 -34h-218l7 39h154z
M40 674h54l-40 -143h-30z" />
    <glyph glyph-name="alpha" unicode="&#x3b1;" horiz-adv-x="519" 
d="M373 98h-3c-34 -60 -96 -109 -179 -109c-95 0 -154 71 -154 172c0 179 116 330 254 330c85 0 125 -54 134 -109h4c11 46 19 72 27 98h37c-5 -18 -17 -68 -28 -117c-16 -73 -34 -159 -46 -225c-15 -74 -12 -110 28 -110l-11 -38c-6 -1 -11 -1 -15 -1c-32 0 -60 29 -48 109
zM83 171v-1c0 -81 40 -142 122 -142c75 0 142 76 173 151c10 24 14 44 20 77c4 21 6 42 6 64c0 65 -40 133 -120 133c-97 0 -201 -126 -201 -282z" />
    <glyph glyph-name="beta" unicode="&#x3b2;" horiz-adv-x="515" 
d="M59 -198h-44c-6 33 4 98 17 170l89 479c24 128 63 190 102 224c36 31 72 46 122 46c73 0 132 -54 132 -139c0 -92 -57 -166 -117 -192l-1 -4c65 -12 121 -75 121 -167c0 -162 -129 -230 -222 -230c-74 0 -125 28 -161 77h-2l-15 -79c-9 -54 -25 -144 -21 -185zM248 363
l7 38c6 0 13 1 19 1c100 5 157 85 157 173c0 67 -37 108 -93 108c-91 0 -145 -87 -172 -234l-60 -323c17 -42 69 -99 154 -99c81 0 173 68 173 186c0 91 -63 149 -156 150h-29z" />
    <glyph glyph-name="gamma" unicode="&#x3b3;" horiz-adv-x="412" 
d="M142 -198h-47c16 77 40 182 36 269c-7 139 -64 331 -100 409h50c34 -72 87 -246 90 -404h4c72 94 167 243 191 375c2 9 4 21 4 29h45c1 -7 -1 -21 -3 -33c-22 -123 -105 -270 -224 -412c-7 -11 -9 -15 -11 -26c-10 -69 -23 -139 -35 -207z" />
    <glyph glyph-name="delta" unicode="&#x3b4;" horiz-adv-x="504" 
d="M473 646l-25 -29c-28 34 -78 66 -134 66c-49 0 -74 -27 -74 -56c0 -32 27 -54 64 -88l73 -71c62 -59 94 -120 94 -204c0 -131 -96 -275 -244 -275c-104 0 -190 76 -190 204c0 156 115 264 235 312v4l-20 20c-25 26 -55 54 -55 97c0 46 42 95 118 95c82 0 133 -43 158 -75
zM347 436l-47 44c-99 -41 -217 -135 -217 -282c0 -112 73 -170 150 -170c105 0 192 113 192 235c0 63 -16 116 -78 173z" />
    <glyph glyph-name="epsilon" unicode="&#x3b5;" horiz-adv-x="388" 
d="M305 239h-73c-86 0 -164 -40 -164 -120c0 -57 53 -91 128 -91c59 0 123 22 145 37l9 -37c-22 -18 -93 -39 -158 -39c-91 0 -169 37 -169 127c0 75 64 135 140 145l1 4c-56 12 -85 48 -85 93c0 64 69 133 187 133c49 0 101 -14 119 -32l-15 -33c-12 8 -50 27 -111 27
c-82 0 -134 -42 -134 -95c0 -55 57 -81 130 -81h57z" />
    <glyph glyph-name="zeta" unicode="&#x3b6;" horiz-adv-x="371" 
d="M436 709l2 -38c-165 -95 -347 -292 -347 -466c0 -87 39 -131 126 -160c29 -10 67 -17 112 -21c5 -1 7 -3 7 -7c0 -32 -45 -121 -77 -155l-35 10c19 22 52 87 59 118c-28 4 -63 9 -101 24c-82 30 -138 84 -138 187c0 169 165 368 327 468v2h-85c-44 0 -83 0 -115 9l10 35
c30 -6 70 -6 108 -6h147z" />
    <glyph glyph-name="eta" unicode="&#x3b7;" horiz-adv-x="516" 
d="M152 377h2c42 70 110 114 185 114c43 0 120 -23 120 -134c0 -22 -4 -49 -9 -76l-55 -294c-10 -54 -26 -144 -23 -185h-42c-7 22 7 117 18 179l58 304c3 20 7 44 7 66c0 57 -23 100 -92 100c-68 0 -169 -78 -192 -205l-45 -246h-46l66 351c9 49 17 97 12 129h42
c5 -23 4 -46 -6 -103z" />
    <glyph glyph-name="theta" unicode="&#x3b8;" horiz-adv-x="492" 
d="M212 -11h-1c-93 0 -162 79 -162 235c0 40 5 102 21 175c35 172 119 322 257 322c99 0 159 -90 158 -223c0 -47 -5 -100 -15 -148c-41 -212 -117 -361 -258 -361zM115 388h316c7 43 8 76 8 112c0 102 -38 183 -119 183c-107 0 -177 -142 -205 -295zM423 350h-315
c-9 -50 -12 -90 -12 -128c0 -124 50 -194 121 -194c105 0 171 133 206 322z" />
    <glyph glyph-name="iota" unicode="&#x3b9;" horiz-adv-x="206" 
d="M174 480l-73 -384c-9 -50 -5 -69 33 -67l-11 -38c-4 -1 -12 -2 -20 -2c-28 0 -51 14 -52 65c1 27 10 67 22 129l57 297h44z" />
    <glyph glyph-name="kappa" unicode="&#x3ba;" horiz-adv-x="424" 
d="M187 258v-3c63 -16 97 -74 136 -141l66 -114h-50l-61 106c-42 71 -79 119 -140 119h-14l-41 -225h-45l72 388c7 33 11 75 8 92h41c4 -11 5 -42 -2 -81l-26 -140h5c113 96 197 167 265 221h54v-3c-74 -61 -154 -125 -268 -219z" />
    <glyph glyph-name="lambda" unicode="&#x3bb;" horiz-adv-x="414" 
d="M324 0l-59 311c-6 30 -13 69 -17 99l-4 1c-12 -24 -31 -65 -48 -96l-170 -315h-49l245 448c7 13 10 23 10 28s0 12 -2 22c-20 104 -41 184 -109 184c-4 0 -7 -1 -11 -1l8 38c7 1 13 2 21 2c78 -2 103 -76 134 -220l97 -501h-46z" />
    <glyph glyph-name="uni03BC" unicode="&#x3bc;" horiz-adv-x="505" 
d="M165 480l-55 -293c-16 -88 8 -157 98 -157c60 0 117 61 147 117c13 24 22 49 27 74l49 259h45l-67 -353c-13 -73 -6 -96 27 -99l-12 -38c-9 -1 -6 -1 -14 -1c-32 0 -59 22 -48 106h-3c-31 -54 -91 -105 -160 -105c-50 0 -96 24 -114 75l-14 -78
c-10 -54 -24 -144 -20 -185h-41c-6 31 1 99 16 179l95 499h44z" />
    <glyph glyph-name="nu" unicode="&#x3bd;" horiz-adv-x="414" 
d="M41 480h46c17 -97 35 -194 52 -291c9 -53 15 -91 23 -139h3c64 90 176 255 204 375c5 22 8 41 8 55h44c1 -9 1 -25 -3 -41c-23 -129 -129 -291 -247 -439h-42c-29 160 -59 320 -88 480z" />
    <glyph glyph-name="xi" unicode="&#x3be;" horiz-adv-x="397" 
d="M361 396h-25c-156 -1 -251 -88 -251 -198c0 -80 51 -125 146 -152c45 -12 92 -21 128 -23c5 0 7 -4 7 -8c0 -33 -51 -125 -78 -153l-34 10c18 23 53 89 60 119c-33 3 -87 13 -128 27c-80 28 -148 79 -148 175c0 122 102 202 191 224v4c-54 18 -96 66 -96 127
c0 85 78 173 206 173c52 0 94 -14 113 -30l-16 -33c-14 11 -52 25 -101 25c-98 0 -157 -60 -157 -135c0 -74 65 -113 146 -114h43z" />
    <glyph glyph-name="omicron" unicode="&#x3bf;" horiz-adv-x="500" 
d="M217 -11h-1c-119 0 -178 96 -178 196c0 154 107 306 254 306c130 0 178 -104 178 -201c0 -131 -96 -301 -253 -301zM221 28h1c109 0 201 133 201 263c0 64 -30 162 -134 162c-118 0 -204 -132 -204 -264c0 -92 53 -161 136 -161z" />
    <glyph glyph-name="rho" unicode="&#x3c1;" horiz-adv-x="520" 
d="M52 -198h-41c-3 30 6 99 20 179l41 221c22 115 51 174 89 216c39 45 92 73 163 73c105 0 166 -85 166 -188c0 -171 -111 -314 -248 -314c-61 0 -121 31 -145 89h-3l-16 -91c-10 -54 -26 -144 -26 -185zM121 220l-5 -27c-2 -10 -4 -24 -4 -37c0 -56 46 -128 132 -128
c105 0 200 116 200 272c0 79 -42 153 -129 153c-81 0 -163 -64 -194 -233z" />
    <glyph glyph-name="sigma" unicode="&#x3c3;" horiz-adv-x="509" 
d="M389 459v-5c64 -36 81 -117 81 -163c0 -132 -96 -302 -253 -302c-120 0 -179 96 -179 196c0 154 107 306 254 306h104h40h90l-6 -39c-20 0 -73 2 -131 7zM220 28h1c110 0 202 134 202 263c0 64 -30 162 -134 162c-118 0 -204 -132 -204 -264c0 -91 54 -161 135 -161z" />
    <glyph glyph-name="tau" unicode="&#x3c4;" horiz-adv-x="363" 
d="M234 30l-6 -36c-8 -3 -20 -5 -30 -5c-39 0 -75 23 -75 87c0 15 3 33 7 55l57 311h-52c-55 0 -83 -5 -105 -9v27c15 10 49 20 108 20h260l-10 -38h-155l-58 -316c-4 -20 -5 -34 -5 -45c0 -42 20 -52 44 -52c8 0 13 1 20 1z" />
    <glyph glyph-name="upsilon" unicode="&#x3c5;" horiz-adv-x="479" 
d="M390 480h44c7 -15 11 -47 11 -85c0 -177 -68 -406 -250 -406c-73 0 -139 52 -139 147c0 13 2 28 5 45l25 136c18 92 24 140 21 163h41c6 -9 6 -42 -2 -87l-39 -212c-3 -15 -4 -29 -4 -40c0 -81 56 -113 101 -113c117 0 195 164 195 368c0 41 -5 72 -9 84z" />
    <glyph glyph-name="phi" unicode="&#x3c6;" horiz-adv-x="569" 
d="M225 26l62 338c15 86 50 127 112 127c69 0 140 -70 140 -186c0 -190 -129 -312 -276 -316l-35 -187h-45l35 187c-95 13 -179 79 -179 206c0 179 133 275 193 297l17 -29c-56 -25 -164 -110 -164 -260c0 -84 41 -159 140 -177zM332 369l-62 -342c120 6 222 117 222 272
c0 79 -38 153 -98 153c-32 0 -52 -27 -62 -83z" />
    <glyph glyph-name="chi" unicode="&#x3c7;" horiz-adv-x="393" 
d="M52 480h49l55 -169c13 -37 25 -78 36 -117h4c24 39 45 73 77 120c36 55 72 110 108 166h52c-75 -110 -150 -220 -224 -330l119 -341l-44 -15l-57 171c-17 50 -33 98 -49 149h-4c-19 -28 -40 -64 -64 -102c-47 -72 -93 -145 -140 -218l-40 18c77 117 154 233 231 348z" />
    <glyph glyph-name="psi" unicode="&#x3c8;" horiz-adv-x="583" 
d="M492 480h45c7 -16 13 -46 13 -85c0 -232 -110 -401 -278 -406l-34 -187h-45l34 187c-94 6 -163 60 -164 174c0 22 3 46 8 73l26 145c7 36 13 80 10 99h42c4 -9 4 -40 -4 -83l-29 -161c-5 -26 -7 -50 -7 -70c2 -96 59 -135 126 -139l107 580h45l-108 -580
c99 1 225 118 225 363c0 47 -7 79 -12 90z" />
    <glyph glyph-name="omega" unicode="&#x3c9;" horiz-adv-x="651" 
d="M518 489h44c28 -29 54 -97 54 -168c0 -191 -99 -332 -205 -332c-65 0 -101 35 -111 93h-3c-27 -56 -64 -93 -131 -93c-65 0 -130 57 -130 176c0 155 85 283 137 324h48v-2c-56 -45 -139 -167 -139 -319c0 -99 49 -140 94 -140c55 0 101 60 115 140l33 188h45l-32 -174
c-5 -23 -6 -38 -6 -53c0 -43 20 -101 84 -101c68 0 155 122 155 283c0 78 -23 145 -52 176v2z" />
    <glyph glyph-name="uni03C2" unicode="&#x3c2;" horiz-adv-x="390" 
d="M266 -138l-34 11c18 24 50 88 57 117c-25 3 -71 13 -103 24c-72 26 -146 83 -146 192c0 147 115 285 268 285c42 0 77 -9 97 -23l-16 -35c-24 12 -46 20 -84 20c-118 0 -218 -101 -218 -245c0 -89 52 -136 133 -161c41 -14 71 -19 112 -25c6 -1 8 -4 8 -9
c0 -39 -52 -126 -74 -151z" />
    <glyph glyph-name="alphatonos" unicode="&#x3ac;" horiz-adv-x="519" 
d="M355 678h74l-135 -138h-40zM373 98h-3c-34 -60 -96 -109 -179 -109c-96 0 -154 70 -154 172c0 179 116 330 254 330c85 0 125 -54 134 -109h4c11 46 19 72 27 98h37c-5 -18 -17 -68 -28 -117c-16 -73 -34 -159 -46 -225c-15 -74 -12 -110 28 -110l-11 -38
c-6 -1 -11 -1 -15 -1c-32 0 -60 29 -48 109zM83 171v-1c0 -81 40 -142 122 -142c75 0 142 76 173 151c10 24 14 44 20 77c4 21 6 42 6 64c0 65 -40 133 -120 133c-97 0 -201 -126 -201 -282z" />
    <glyph glyph-name="epsilontonos" unicode="&#x3ad;" horiz-adv-x="388" 
d="M301 678h73l-135 -138h-40zM305 239h-73c-86 0 -164 -40 -164 -120c0 -57 53 -91 128 -91c59 0 123 22 145 36l9 -35c-22 -18 -96 -40 -158 -40c-91 0 -169 37 -169 127c0 75 64 135 140 145l1 4c-56 12 -85 48 -85 93c0 64 69 133 187 133c49 0 101 -14 119 -32l-15 -33
c-12 8 -50 27 -111 27c-82 0 -134 -42 -134 -95c0 -55 57 -81 130 -81h57z" />
    <glyph glyph-name="etatonos" unicode="&#x3ae;" horiz-adv-x="516" 
d="M377 678h73l-134 -138h-41zM152 377h2c42 70 110 114 185 114c43 0 120 -23 120 -134c0 -22 -4 -49 -9 -76l-55 -294c-10 -54 -26 -144 -23 -185h-42c-7 22 7 117 18 179l58 304c3 20 7 44 7 66c0 57 -23 100 -92 100c-68 0 -169 -78 -192 -205l-45 -246h-46l66 351
c9 49 17 97 12 129h42c5 -23 4 -46 -6 -103z" />
    <glyph glyph-name="iotatonos" unicode="&#x3af;" horiz-adv-x="206" 
d="M234 678h74l-135 -138h-40zM174 480l-73 -384c-9 -50 -5 -69 33 -67l-11 -38c-4 -1 -12 -2 -20 -2c-28 0 -52 16 -52 65c0 24 10 68 20 121l59 305h44z" />
    <glyph glyph-name="iotadieresis" unicode="&#x3ca;" horiz-adv-x="206" 
d="M79 564h-1c-22 0 -35 18 -35 39c0 20 17 40 39 40s36 -19 36 -39s-14 -40 -39 -40zM249 564h-1c-22 0 -36 18 -36 39c0 20 17 40 39 40c23 0 37 -19 37 -39s-15 -40 -39 -40zM174 480l-73 -384c-9 -50 -5 -69 33 -67l-11 -38c-4 -1 -12 -2 -20 -2c-28 0 -52 16 -52 65
c0 23 11 68 20 121l59 305h44z" />
    <glyph glyph-name="omicrontonos" unicode="&#x3cc;" horiz-adv-x="500" 
d="M355 678h73l-134 -138h-41zM217 -11h-1c-119 0 -178 96 -178 196c0 154 107 306 254 306c130 0 178 -104 178 -201c0 -131 -96 -301 -253 -301zM221 28h1c109 0 201 133 201 263c0 64 -30 162 -134 162c-118 0 -204 -132 -204 -264c0 -92 53 -161 136 -161z" />
    <glyph glyph-name="upsilontonos" unicode="&#x3cd;" horiz-adv-x="479" 
d="M331 678h74l-135 -138h-40zM390 480h44c7 -15 11 -47 11 -85c0 -177 -71 -406 -253 -406c-72 0 -136 52 -136 147c0 13 2 28 5 45l25 136c18 92 24 140 21 163h41c6 -9 6 -42 -2 -87l-39 -212c-3 -15 -4 -29 -4 -40c0 -81 55 -113 100 -113c117 0 196 164 196 368
c0 41 -5 72 -9 84z" />
    <glyph glyph-name="upsilondieresis" unicode="&#x3cb;" horiz-adv-x="479" 
d="M200 564h-1c-22 0 -35 18 -35 39c0 20 17 40 38 40c23 0 37 -19 37 -39s-14 -40 -39 -40zM370 564h-1c-22 0 -36 18 -36 39c0 20 17 40 39 40c23 0 36 -19 36 -39s-14 -40 -38 -40zM390 480h44c7 -15 11 -47 11 -85c0 -177 -71 -406 -253 -406c-72 0 -136 52 -136 147
c0 13 2 28 5 45l25 136c18 92 24 140 21 163h41c6 -9 6 -42 -2 -87l-39 -212c-3 -15 -4 -29 -4 -40c0 -81 55 -113 100 -113c117 0 196 164 196 368c0 41 -5 72 -9 84z" />
    <glyph glyph-name="omegatonos" unicode="&#x3ce;" horiz-adv-x="651" 
d="M441 678h73l-134 -138h-41zM518 489h44c28 -29 54 -97 54 -168c0 -191 -99 -332 -205 -332c-65 0 -101 35 -111 93h-3c-27 -56 -64 -93 -131 -93c-65 0 -130 57 -130 176c0 155 85 283 137 324h48v-2c-56 -45 -139 -167 -139 -319c0 -99 49 -140 94 -140
c55 0 101 60 115 140l33 188h45l-32 -174c-5 -23 -6 -38 -6 -53c0 -43 20 -101 83 -101c69 0 156 122 156 283c0 78 -23 145 -52 176v2z" />
    <glyph glyph-name="iotadieresistonos" unicode="&#x390;" horiz-adv-x="206" 
d="M174 480l-73 -384c-9 -50 -5 -69 33 -67l-11 -38c-4 -1 -12 -2 -20 -2c-28 0 -52 16 -52 66c0 24 11 68 21 121l58 304h44zM190 682h59l-95 -146h-30zM76 564h-1c-20 0 -33 17 -33 37c0 19 16 38 36 38c22 0 35 -18 35 -37s-13 -38 -37 -38zM282 564h-1
c-20 0 -33 17 -33 37c0 19 16 38 36 38c22 0 35 -18 35 -37s-14 -38 -37 -38z" />
    <glyph glyph-name="upsilondieresistonos" unicode="&#x3b0;" horiz-adv-x="479" 
d="M390 480h44c7 -15 11 -47 11 -85c0 -177 -71 -406 -253 -406c-72 0 -136 52 -136 147c0 13 2 28 5 45l25 136c18 92 24 140 21 163h41c6 -9 6 -42 -2 -87l-39 -212c-3 -15 -4 -29 -4 -40c0 -81 55 -113 100 -113c117 0 196 164 196 368c0 41 -5 72 -9 84zM298 682h59
l-95 -146h-30zM184 564h-1c-20 0 -33 17 -33 37c0 19 16 38 36 38c22 0 35 -18 35 -37s-13 -38 -37 -38zM390 564h-1c-20 0 -33 17 -33 37c0 19 16 38 36 38c22 0 35 -18 35 -37s-14 -38 -37 -38z" />
    <glyph glyph-name="uni037E" unicode="&#x37e;" horiz-adv-x="181" 
d="M13 -121l-39 -5c21 42 64 150 81 212l63 2c-28 -67 -87 -181 -105 -209zM133 346h-1c-24 0 -41 21 -41 46c0 27 19 48 44 48c26 0 42 -20 42 -47c0 -24 -18 -47 -44 -47z" />
    <glyph glyph-name="anoteleia" unicode="&#x387;" horiz-adv-x="181" 
d="M109 277h-1c-23 0 -39 21 -39 44c0 27 18 47 42 47c25 0 40 -20 40 -45c0 -23 -17 -46 -42 -46z" />
    <glyph glyph-name="tonos" unicode="&#x384;" 
d="M317 678h74l-135 -138h-40z" />
    <glyph glyph-name="dieresistonos" unicode="&#x385;" horiz-adv-x="290" 
d="M220 694h60l-96 -146h-30zM107 576h-1c-21 0 -33 17 -33 36c0 20 16 38 36 38c22 0 34 -17 34 -36c0 -20 -13 -38 -36 -38zM313 576h-1c-21 0 -33 17 -33 36c0 20 16 38 36 38c22 0 34 -17 34 -36c0 -20 -13 -38 -36 -38z" />
    <glyph glyph-name="dieresis_acutecomb" unicode="&#xf6d7;" 
d="M168 584h-1c-16 0 -32 10 -32 33c0 20 17 38 38 38c25 0 32 -17 32 -32c0 -24 -20 -39 -37 -39zM279 678h57l-107 -132h-32zM366 584h-1c-16 0 -32 10 -32 33c0 20 17 38 38 38c25 0 32 -17 32 -32c0 -24 -20 -39 -37 -39z" />
    <glyph glyph-name="dieresis_gravecomb" unicode="&#xf6d8;" 
d="M153 584h-1c-16 0 -32 10 -32 33c0 20 17 38 38 38c25 0 32 -17 32 -32c0 -24 -20 -39 -37 -39zM185 678h57l82 -132h-32zM350 584h-1c-15 0 -31 10 -31 33c0 20 17 38 38 38c25 0 32 -17 32 -32c0 -24 -20 -39 -38 -39z" />
    <glyph glyph-name="space_uni030F" unicode="&#xf6d6;" 
d="M72 661h69l91 -127h-38zM202 661h69l91 -127h-38z" />
    <glyph glyph-name="dieresis_acutecomb.cap" unicode="&#xf6cc;" 
d="M212 731h-1c-15 0 -31 10 -31 33c0 20 17 38 38 38c25 0 32 -17 32 -32c0 -24 -20 -39 -38 -39zM336 815h65l-126 -105h-41zM421 731h-1c-15 0 -31 10 -31 33c0 20 17 38 38 38c25 0 32 -17 32 -32c0 -24 -20 -39 -38 -39z" />
    <glyph glyph-name="dieresis_gravecomb.cap" unicode="&#xf6cd;" 
d="M193 731h-1c-15 0 -31 10 -31 33c0 20 17 38 38 38c25 0 32 -17 32 -32c0 -24 -19 -39 -38 -39zM221 815h65l102 -105h-41zM402 731h-1c-15 0 -31 10 -31 33c0 20 17 38 38 38c25 0 32 -17 32 -32c0 -24 -19 -39 -38 -39z" />
    <glyph glyph-name="space_uni030F.cap" unicode="&#xf6d3;" horiz-adv-x="381" 
d="M127 815h65l102 -105h-41zM250 815h65l102 -105h-41z" />
    <glyph glyph-name="afii10017" unicode="&#x410;" horiz-adv-x="537" 
d="M402 237h-257l-124 -237h-47l361 674h44l102 -674h-44zM168 276h227l-34 225c-4 34 -10 81 -13 119h-3c-18 -39 -34 -75 -56 -117z" />
    <glyph glyph-name="afii10018" unicode="&#x411;" horiz-adv-x="486" 
d="M167 674h297l-6 -39h-252l-43 -225c19 4 58 6 78 6c118 0 204 -59 204 -184c0 -74 -28 -130 -73 -168c-56 -48 -139 -69 -222 -69c-49 0 -87 3 -111 6zM155 371l-63 -332c18 -3 43 -5 77 -5c113 0 230 66 230 190c0 106 -66 153 -167 153c-21 0 -55 -3 -77 -6z" />
    <glyph glyph-name="afii10019" unicode="&#x412;" horiz-adv-x="479" 
d="M40 4l125 662c37 7 77 13 125 13c68 0 118 -18 148 -53c23 -27 30 -58 30 -94c0 -85 -73 -154 -151 -173v-3c59 -16 114 -65 113 -151c0 -67 -34 -122 -73 -154c-51 -41 -119 -56 -196 -56c-47 0 -91 3 -121 9zM204 634l-49 -257h71c107 0 194 60 194 157
c0 75 -55 107 -139 107c-34 0 -63 -2 -77 -7zM148 340l-57 -300c24 -4 53 -5 76 -5c111 -1 216 46 216 174c0 87 -73 131 -154 131h-81z" />
    <glyph glyph-name="afii10020" unicode="&#x413;" horiz-adv-x="354" 
d="M167 674h281l-8 -40h-235l-121 -634h-45z" />
    <glyph glyph-name="afii10050" unicode="&#x490;" horiz-adv-x="371" 
d="M165 674h255l38 123h39l-40 -163h-253l-119 -634h-46z" />
    <glyph glyph-name="afii10021" unicode="&#x414;" horiz-adv-x="565" 
d="M226 674h320l-120 -635h53l-46 -197h-39l28 158h-424l-36 -158h-38l31 197h44c50 66 87 130 117 197c34 82 57 166 76 263zM262 635l-30 -159c-16 -80 -39 -167 -72 -248c-29 -69 -66 -135 -111 -189h331l113 596h-231z" />
    <glyph glyph-name="afii10022" unicode="&#x415;" horiz-adv-x="441" 
d="M404 375l-8 -39h-248l-56 -297h280l-8 -39h-325l128 674h310l-8 -39h-264l-50 -260h249z" />
    <glyph glyph-name="afii10024" unicode="&#x416;" horiz-adv-x="726" 
d="M119 674h48l175 -316h22l59 316h43l-59 -315h26l287 315h55l-301 -320c98 -8 136 -76 157 -173c12 -60 15 -122 32 -181h-46c-13 52 -17 112 -29 172c-20 103 -56 151 -162 151h-26l-61 -323h-43l60 323h-23c-107 0 -163 -48 -223 -170c-23 -50 -49 -100 -77 -153h-51
c32 50 63 117 95 178c61 113 112 168 225 176z" />
    <glyph glyph-name="afii10025" unicode="&#x417;" horiz-adv-x="414" 
d="M120 338l7 40h22c90 0 202 50 202 159c0 67 -45 110 -110 110c-47 0 -91 -17 -126 -39l-14 31c40 28 91 46 147 46c82 0 149 -51 149 -145c0 -96 -74 -158 -156 -179v-2c74 -17 127 -73 127 -160c0 -127 -96 -210 -229 -210c-63 0 -116 20 -153 44l19 36
c24 -16 81 -41 137 -41c100 0 180 63 180 173c0 94 -90 140 -174 138z" />
    <glyph glyph-name="afii10026" unicode="&#x418;" horiz-adv-x="611" 
d="M167 674h44l-68 -362c-18 -93 -32 -168 -53 -247l1 -1c43 65 90 128 157 211l324 399h44l-128 -674h-43l71 376c17 92 31 160 50 233l-3 2c-45 -70 -106 -147 -168 -224l-311 -387h-45z" />
    <glyph glyph-name="afii10027" unicode="&#x419;" horiz-adv-x="611" 
d="M167 674h44l-68 -362c-18 -93 -32 -168 -53 -247l1 -1c43 65 90 128 157 211l324 399h44l-128 -674h-43l71 376c17 92 31 160 50 233l-3 2c-45 -70 -106 -147 -168 -224l-311 -387h-45zM304 824h40c1 -30 19 -60 66 -60c48 0 71 24 80 60h44c-10 -49 -54 -95 -125 -95
c-78 0 -106 46 -105 95z" />
    <glyph glyph-name="afii10028" unicode="&#x41a;" horiz-adv-x="485" 
d="M167 674h44l-59 -316h23l309 316h56l-319 -321c109 -10 154 -75 174 -184c8 -48 13 -113 30 -169h-47c-14 44 -21 112 -28 156c-22 119 -65 167 -186 167h-19l-61 -323h-45z" />
    <glyph glyph-name="afii10029" unicode="&#x41b;" horiz-adv-x="560" 
d="M221 674h343l-129 -674h-45l122 635h-254l-43 -234c-35 -189 -84 -303 -146 -359c-17 -19 -55 -47 -106 -50l-5 38c29 4 60 22 81 43c59 54 99 158 130 324z" />
    <glyph glyph-name="afii10030" unicode="&#x41c;" horiz-adv-x="754" 
d="M649 0h-45l53 417c7 59 22 161 31 206h-3c-27 -56 -62 -128 -99 -194l-239 -429h-33l-66 419c-13 79 -20 148 -26 204h-2c-11 -45 -33 -147 -48 -206l-107 -417h-45l178 674h52l73 -467c9 -53 17 -106 19 -141h3c16 35 41 84 70 137l261 471h55z" />
    <glyph glyph-name="afii10031" unicode="&#x41d;" horiz-adv-x="603" 
d="M167 674h46l-58 -297h351l57 297h45l-129 -674h-45l64 338h-350l-64 -338h-45z" />
    <glyph glyph-name="afii10032" unicode="&#x41e;" horiz-adv-x="645" 
d="M294 -11h-1c-174 0 -244 136 -244 270c0 114 45 243 121 327c56 60 141 99 223 99c184 0 244 -139 244 -273c0 -109 -40 -238 -114 -320c-59 -65 -138 -103 -229 -103zM299 28h1c161 0 291 196 291 381c0 102 -32 237 -205 237c-171 0 -291 -208 -291 -379
c0 -119 52 -239 204 -239z" />
    <glyph glyph-name="afii10033" unicode="&#x41f;" horiz-adv-x="586" 
d="M167 674h424l-129 -674h-45l122 635h-334l-121 -635h-45z" />
    <glyph glyph-name="afii10034" unicode="&#x420;" horiz-adv-x="476" 
d="M39 0l127 666c35 7 80 13 128 13c68 0 126 -20 157 -57c23 -29 34 -63 34 -109c0 -69 -36 -132 -75 -166c-50 -45 -125 -66 -197 -66c-26 0 -49 1 -75 6l-54 -287h-45zM204 632l-58 -304c28 -7 50 -8 74 -8c131 0 219 80 219 192c0 90 -64 128 -154 128
c-36 0 -64 -3 -81 -8z" />
    <glyph glyph-name="afii10035" unicode="&#x421;" horiz-adv-x="538" 
d="M470 62l10 -38c-39 -18 -101 -35 -173 -35c-164 0 -259 108 -259 277c0 111 42 234 128 316c70 66 158 103 258 103c76 0 130 -20 145 -35l-19 -36c-28 18 -77 31 -138 31c-78 0 -159 -33 -217 -90c-68 -67 -110 -174 -110 -281c0 -128 52 -245 221 -245
c53 0 114 11 154 33z" />
    <glyph glyph-name="afii10036" unicode="&#x422;" horiz-adv-x="441" 
d="M152 0l121 635h-209l8 39h462l-7 -39h-209l-121 -635h-45z" />
    <glyph glyph-name="afii10037" unicode="&#x423;" horiz-adv-x="457" 
d="M94 674h48l98 -338c9 -33 20 -73 30 -110h1c28 55 49 101 68 141l150 307h48l-152 -308c-50 -102 -125 -254 -185 -318c-43 -45 -84 -59 -123 -59c-21 0 -39 4 -51 11l12 39c10 -4 24 -8 42 -8c70 0 119 73 151 135c5 10 7 18 2 35z" />
    <glyph glyph-name="afii10038" unicode="&#x424;" horiz-adv-x="658" 
d="M259 -25l11 55c-116 14 -213 104 -213 260c0 251 183 362 331 359l11 50h44l-10 -52c119 -13 212 -101 212 -268c0 -217 -142 -351 -331 -352l-10 -52h-45zM278 67l103 546c-122 -1 -278 -102 -278 -316c0 -131 74 -212 175 -230zM425 611l-103 -548
c190 6 277 155 277 321c0 136 -76 215 -174 227z" />
    <glyph glyph-name="afii10039" unicode="&#x425;" horiz-adv-x="492" 
d="M435 0h-48l-76 187c-20 46 -36 88 -47 119h-2c-20 -28 -48 -66 -85 -114l-147 -192h-54l270 343l-131 331h48l78 -200c16 -39 27 -70 36 -96h2c19 26 45 62 71 95l160 201h55l-269 -330z" />
    <glyph glyph-name="afii10040" unicode="&#x426;" horiz-adv-x="590" 
d="M167 674h46l-121 -635h332l122 635h44l-121 -635h53l-46 -197h-39l28 158h-426z" />
    <glyph glyph-name="afii10041" unicode="&#x427;" horiz-adv-x="525" 
d="M140 674h45l-37 -195c-4 -21 -12 -60 -12 -90c0 -74 48 -111 125 -111c69 0 134 32 160 52l65 344h44l-128 -680h-45l55 290h-2c-29 -18 -91 -45 -161 -45c-100 0 -159 55 -159 144c0 34 7 69 14 102z" />
    <glyph glyph-name="afii10042" unicode="&#x428;" horiz-adv-x="770" 
d="M167 674h46l-121 -635h235l120 635h46l-121 -635h236l120 635h46l-129 -674h-606z" />
    <glyph glyph-name="afii10043" unicode="&#x429;" horiz-adv-x="774" 
d="M167 674h46l-121 -635h235l120 635h46l-121 -635h236l120 635h46l-121 -635h52l-46 -197h-39l29 158h-610z" />
    <glyph glyph-name="afii10044" unicode="&#x42a;" horiz-adv-x="577" 
d="M72 674h239l-50 -265c20 4 49 7 79 7c116 0 204 -58 204 -184c0 -71 -27 -127 -70 -166c-55 -49 -135 -71 -225 -71c-49 0 -87 3 -112 6l121 634h-194zM253 368l-62 -329c17 -3 43 -5 77 -5c113 0 230 62 230 193c0 105 -67 150 -167 150c-28 0 -57 -5 -78 -9z" />
    <glyph glyph-name="afii10045" unicode="&#x42b;" horiz-adv-x="662" 
d="M167 674h46l-50 -265c20 4 53 7 78 7c117 0 204 -58 204 -184c0 -71 -26 -124 -67 -163c-58 -52 -138 -74 -228 -74c-49 0 -87 3 -111 6zM154 369l-62 -329c18 -4 43 -6 77 -6c113 0 230 67 230 191c0 107 -66 152 -168 152c-25 0 -55 -4 -77 -8zM620 674h47l-129 -674
h-47z" />
    <glyph glyph-name="afii10046" unicode="&#x42c;" horiz-adv-x="484" 
d="M167 674h46l-50 -265c18 4 50 7 78 7c117 0 204 -58 204 -184c0 -72 -26 -126 -67 -164c-58 -51 -138 -73 -228 -73c-49 0 -87 3 -111 6zM154 369l-62 -329c18 -4 43 -6 77 -6c117 0 230 67 230 191c0 107 -66 152 -168 152c-29 0 -60 -4 -77 -8z" />
    <glyph glyph-name="afii10047" unicode="&#x42d;" horiz-adv-x="520" 
d="M135 326l8 39h320c2 13 2 25 2 46c0 128 -74 234 -215 234c-47 0 -106 -12 -145 -31l-11 34c29 16 93 37 162 37c162 0 257 -108 257 -284c0 -106 -35 -230 -120 -317c-65 -64 -143 -95 -241 -95c-68 0 -129 19 -165 42l18 37c37 -22 94 -39 145 -39
c178 0 285 133 309 297h-324z" />
    <glyph glyph-name="afii10048" unicode="&#x42e;" horiz-adv-x="814" 
d="M167 674h46l-58 -297h112c17 78 51 153 100 209c53 60 133 99 210 99c172 0 230 -139 230 -273c0 -109 -39 -238 -108 -320c-55 -65 -129 -103 -215 -103c-163 0 -231 136 -231 270c0 26 2 52 7 79h-112l-64 -338h-45zM488 28h1c151 0 272 196 272 381
c0 102 -28 237 -190 237c-161 0 -273 -208 -273 -379c0 -119 48 -239 190 -239z" />
    <glyph glyph-name="afii10049" unicode="&#x42f;" horiz-adv-x="486" 
d="M491 665l-127 -665h-45l60 311h-69c-126 0 -166 -77 -214 -177c-20 -42 -43 -96 -65 -134h-50c26 41 54 108 76 153c36 74 76 151 157 174v2c-65 21 -112 64 -112 144c0 82 46 137 93 169c52 26 111 37 167 37c41 0 93 -6 129 -14zM385 348l54 285c-16 4 -44 8 -81 8
c-108 0 -209 -50 -209 -166c0 -86 73 -127 160 -127h76z" />
    <glyph glyph-name="afii10023" unicode="&#x401;" horiz-adv-x="441" 
d="M404 375l-8 -39h-248l-56 -297h280l-8 -39h-325l128 674h310l-8 -39h-264l-50 -260h249zM253 726h-1c-21 0 -36 19 -36 39c0 19 17 40 39 40c23 0 36 -21 36 -39c0 -19 -15 -40 -38 -40zM423 726h-1c-20 0 -35 19 -35 39c0 19 17 40 39 40s36 -21 36 -39
c0 -19 -16 -40 -39 -40z" />
    <glyph glyph-name="afii10051" unicode="&#x402;" horiz-adv-x="600" 
d="M72 674h471l-8 -39h-238l-44 -231h2c33 23 89 45 139 45c100 0 165 -80 165 -203c0 -107 -39 -219 -108 -290c-56 -57 -114 -78 -160 -88l-9 36c45 13 96 37 136 81c59 67 93 164 93 267c0 87 -43 157 -130 157c-49 0 -93 -19 -136 -48l-69 -361h-45l122 635h-189z" />
    <glyph glyph-name="afii10052" unicode="&#x403;" horiz-adv-x="354" 
d="M167 674h281l-8 -40h-235l-121 -634h-45zM373 823h77l-140 -113h-44z" />
    <glyph glyph-name="afii10053" unicode="&#x404;" horiz-adv-x="537" 
d="M578 651l-18 -37c-20 12 -66 31 -133 31c-164 0 -292 -119 -320 -279h349l-7 -38h-349c-3 -12 -5 -34 -5 -51c0 -143 75 -249 227 -249c55 0 109 17 148 38l12 -36c-36 -19 -90 -41 -181 -41c-165 0 -253 122 -253 288c0 111 43 221 113 294c66 68 158 114 273 114
c80 0 126 -23 144 -34z" />
    <glyph glyph-name="afii10054" unicode="&#x405;" horiz-adv-x="438" 
d="M19 36l19 36c34 -25 81 -43 133 -43c89 0 170 57 170 156c0 58 -27 103 -103 145c-95 52 -131 106 -131 170c0 111 94 185 204 185c56 0 106 -20 125 -37l-19 -35c-21 13 -60 33 -112 33c-93 0 -153 -68 -153 -135c0 -64 30 -99 109 -143c83 -45 125 -98 125 -182
c0 -96 -71 -197 -224 -197c-51 0 -117 21 -143 47z" />
    <glyph glyph-name="afii10055" unicode="&#x406;" horiz-adv-x="208" 
d="M167 674h46l-129 -674h-45z" />
    <glyph glyph-name="afii10056" unicode="&#x407;" horiz-adv-x="208" 
d="M167 674h46l-129 -674h-45zM121 726h-1c-20 0 -35 19 -35 39c0 19 17 40 38 40c23 0 37 -21 37 -39c0 -19 -16 -40 -39 -40zM292 726h-1c-21 0 -36 19 -36 39c0 19 17 40 39 40c23 0 37 -21 37 -39c0 -19 -16 -40 -39 -40z" />
    <glyph glyph-name="afii10057" unicode="&#x408;" horiz-adv-x="342" 
d="M220 203l89 471h45l-90 -475c-28 -150 -89 -210 -199 -210c-39 0 -79 10 -93 18l12 39c22 -11 50 -16 87 -16c76 0 124 41 149 173z" />
    <glyph glyph-name="afii10058" unicode="&#x409;" horiz-adv-x="831" 
d="M221 674h337l-50 -265c20 5 54 7 79 7c117 0 205 -58 205 -184c0 -68 -27 -124 -71 -163c-57 -51 -143 -74 -226 -74c-49 0 -87 3 -111 6l120 634h-246l-43 -234c-35 -188 -85 -304 -146 -359c-27 -25 -68 -48 -107 -50l-4 39c27 3 62 23 81 42c58 55 98 158 129 324z
M499 370l-62 -330c18 -4 40 -6 74 -6c116 0 235 65 235 195c0 108 -70 148 -168 148c-30 0 -57 -3 -79 -7z" />
    <glyph glyph-name="afii10059" unicode="&#x40a;" horiz-adv-x="836" 
d="M167 674h46l-55 -283h306l54 283h46l-52 -274c20 5 49 7 76 7c113 0 209 -57 209 -184c0 -64 -24 -117 -69 -158c-56 -51 -142 -70 -225 -70c-49 0 -89 3 -113 6l67 354h-307l-66 -355h-45zM504 361l-61 -322c18 -4 46 -5 77 -5c126 0 231 67 231 189
c0 98 -79 145 -173 145c-27 0 -53 -3 -74 -7z" />
    <glyph glyph-name="afii10060" unicode="&#x40b;" horiz-adv-x="622" 
d="M73 674h468l-7 -39h-239l-45 -231h2c25 19 88 49 160 49c99 0 147 -69 147 -147c0 -26 -5 -64 -11 -98l-40 -208h-45l40 207c7 36 12 71 12 91c0 61 -30 114 -122 114c-60 0 -121 -28 -152 -53l-68 -359h-44l121 635h-185z" />
    <glyph glyph-name="afii10061" unicode="&#x40c;" horiz-adv-x="485" 
d="M167 674h44l-59 -316h23l309 316h56l-319 -321c109 -10 154 -75 174 -184c8 -48 13 -113 30 -169h-47c-14 44 -21 112 -28 156c-22 119 -65 167 -186 167h-19l-61 -323h-45zM404 823h77l-140 -113h-44z" />
    <glyph glyph-name="afii10062" unicode="&#x40e;" horiz-adv-x="457" 
d="M94 674h48l98 -338c9 -33 20 -73 30 -110h1c28 55 49 101 68 141l150 307h48l-152 -308c-50 -102 -125 -254 -185 -318c-43 -45 -84 -59 -123 -59c-21 0 -39 4 -51 11l12 39c10 -4 24 -8 42 -8c70 0 119 73 151 135c5 10 7 18 2 35zM223 824h41c0 -30 18 -60 65 -60
c48 0 72 24 81 60h43c-9 -49 -53 -95 -125 -95c-77 0 -106 46 -105 95z" />
    <glyph glyph-name="afii10145" unicode="&#x40f;" horiz-adv-x="585" 
d="M167 674h46l-121 -635h332l122 635h44l-128 -674h-183l-38 -165h-39l25 165h-188z" />
    <glyph glyph-name="afii10065" unicode="&#x430;" horiz-adv-x="503" 
d="M402 0h-43c-1 30 5 83 13 142h-2c-56 -112 -126 -153 -201 -153c-84 0 -133 68 -133 153c0 171 132 349 324 349c39 0 82 -6 111 -14l-48 -250c-18 -97 -23 -178 -21 -227zM389 277l31 166c-12 5 -32 9 -69 9c-145 0 -268 -140 -269 -302c0 -58 18 -122 97 -122
c86 0 184 115 210 249z" />
    <glyph glyph-name="afii10066" unicode="&#x431;" horiz-adv-x="487" 
d="M517 721l-8 -45c-18 -8 -38 -12 -58 -17c-108 -18 -196 -36 -266 -131c-27 -39 -53 -95 -69 -156h3c39 63 104 108 184 108c100 0 154 -78 154 -181c0 -137 -83 -310 -247 -310c-115 0 -162 93 -162 218c0 128 42 257 107 342c77 106 173 131 290 152c25 4 48 11 72 20z
M217 27h1c125 0 192 152 192 266c0 81 -34 148 -116 148c-60 0 -119 -41 -157 -97c-25 -38 -42 -94 -42 -156c0 -81 37 -161 122 -161z" />
    <glyph glyph-name="afii10067" unicode="&#x432;" horiz-adv-x="441" 
d="M289 491h1c58 0 112 -33 112 -106c0 -67 -64 -107 -115 -125v-2c48 -7 100 -41 100 -112c0 -106 -100 -157 -194 -157c-79 0 -144 35 -144 135c0 87 41 261 125 327c31 24 67 40 115 40zM279 453h-1c-101 0 -142 -111 -164 -194c64 8 143 18 189 46c29 18 55 44 55 78
c0 48 -35 70 -79 70zM222 236h-1c-49 0 -90 -9 -114 -15c-5 -25 -11 -60 -11 -91c0 -67 34 -102 103 -102c70 0 142 40 142 115c0 66 -53 93 -119 93z" />
    <glyph glyph-name="afii10068" unicode="&#x433;" horiz-adv-x="335" 
d="M117 425l-13 33c25 16 63 33 110 32c74 -2 111 -47 111 -107c0 -80 -66 -116 -138 -151c-66 -32 -122 -63 -122 -124c0 -43 25 -77 84 -78c41 -1 83 16 105 29l12 -33c-27 -19 -79 -37 -128 -36c-74 2 -119 47 -119 118c0 82 65 121 135 157c54 26 127 56 127 117
c0 37 -23 68 -74 69c-33 1 -64 -12 -90 -26z" />
    <glyph glyph-name="afii10098" unicode="&#x491;" horiz-adv-x="352" 
d="M129 480h216l37 107h38l-42 -145h-213l-83 -442h-44z" />
    <glyph glyph-name="afii10069" unicode="&#x434;" horiz-adv-x="470" 
d="M142 679l-3 42c28 -5 56 -8 77 -10c80 -8 131 -26 173 -74c45 -51 65 -139 65 -213c0 -150 -61 -435 -258 -435c-107 0 -160 77 -160 185c0 133 79 306 231 306c77 0 126 -45 143 -113h2c0 15 1 33 1 54c0 60 -16 144 -58 190c-34 38 -71 52 -140 59c-19 2 -44 4 -73 9z
M203 27h1c110 0 184 167 184 263c0 76 -41 151 -122 151c-125 0 -182 -155 -182 -263c0 -78 34 -151 119 -151z" />
    <glyph glyph-name="afii10070" unicode="&#x435;" horiz-adv-x="423" 
d="M336 63l13 -35c-24 -16 -74 -39 -145 -39c-122 0 -167 93 -167 188c0 143 108 314 251 314c87 0 124 -54 124 -110c0 -129 -156 -155 -325 -152c-6 -26 -5 -85 7 -118c19 -55 61 -82 116 -82c60 0 102 20 126 34zM366 378v1c0 48 -37 73 -86 73c-87 0 -159 -91 -186 -185
c142 -2 272 17 272 111z" />
    <glyph glyph-name="afii10072" unicode="&#x436;" horiz-adv-x="581" 
d="M72 480h51l136 -221h20l43 221h41l-43 -221h22l215 221h53l-226 -223c61 -6 93 -52 109 -123c11 -43 19 -102 32 -134h-42c-14 37 -21 84 -29 121c-18 85 -52 105 -127 105h-15l-44 -226h-42l46 227h-12c-83 0 -134 -29 -178 -108c-28 -50 -46 -87 -64 -119h-47
c19 31 38 68 65 119c44 85 95 134 183 137z" />
    <glyph glyph-name="afii10073" unicode="&#x437;" horiz-adv-x="363" 
d="M92 235l7 38h19c62 0 161 32 161 107c0 48 -38 73 -85 73c-36 0 -75 -12 -112 -36l-14 31c33 26 83 43 127 43c70 0 131 -33 131 -110c0 -69 -63 -112 -129 -125v-1c53 -6 113 -50 113 -114c0 -111 -98 -152 -193 -152c-57 0 -104 16 -135 37l17 36
c32 -20 75 -34 120 -34c62 0 144 31 144 107c0 77 -81 100 -145 100h-26z" />
    <glyph glyph-name="afii10074" unicode="&#x438;" horiz-adv-x="506" 
d="M118 480h45l-52 -274c-6 -30 -9 -52 -9 -75c0 -61 25 -101 95 -101c67 0 161 78 182 189l49 261h45l-67 -351c-9 -48 -15 -91 -18 -129h-43l15 99h-2c-39 -63 -105 -110 -172 -110c-52 0 -129 21 -129 142c0 21 3 45 9 76z" />
    <glyph glyph-name="afii10075" unicode="&#x439;" horiz-adv-x="506" 
d="M118 480h45l-52 -274c-6 -30 -9 -52 -9 -75c0 -61 25 -101 95 -101c67 0 161 78 182 189l49 261h45l-67 -351c-9 -48 -15 -91 -18 -129h-43l15 99h-2c-39 -63 -105 -110 -172 -110c-52 0 -129 21 -129 142c0 21 3 45 9 76zM215 678h42c-4 -42 19 -78 60 -78
c49 0 72 42 83 78h44c-16 -69 -63 -114 -129 -114c-87 0 -107 62 -100 114z" />
    <glyph glyph-name="afii10076" unicode="&#x43a;" horiz-adv-x="424" 
d="M130 480h44l-42 -221h22l237 221h58l-250 -223c57 -11 91 -50 121 -131c23 -53 33 -98 49 -126h-44c-14 28 -27 73 -47 120c-36 86 -70 106 -137 106h-16l-43 -226h-44z" />
    <glyph glyph-name="afii10077" unicode="&#x43b;" horiz-adv-x="488" 
d="M167 480h291l-91 -480h-45l84 441h-201l-27 -142c-26 -135 -65 -242 -143 -284c-24 -13 -39 -17 -67 -18l-4 38c16 1 38 6 50 13c62 37 95 129 118 248z" />
    <glyph glyph-name="afii10078" unicode="&#x43c;" horiz-adv-x="639" 
d="M157 480h52l51 -278c7 -44 19 -110 24 -143h1c19 38 63 116 101 181l143 240h55l-60 -480h-44l33 253c8 58 16 117 25 171h-5c-11 -27 -55 -101 -84 -152l-160 -272h-36l-47 268c-7 42 -21 114 -25 157h-3c-11 -54 -25 -114 -41 -174l-67 -251h-44z" />
    <glyph glyph-name="afii10079" unicode="&#x43d;" horiz-adv-x="511" 
d="M129 480h45l-38 -204h262l39 204h45l-91 -480h-45l45 238h-263l-45 -238h-45z" />
    <glyph glyph-name="afii10080" unicode="&#x43e;" horiz-adv-x="498" 
d="M217 -11h-1c-119 0 -178 96 -178 196c0 154 107 306 254 306c130 0 178 -104 178 -201c0 -131 -96 -301 -253 -301zM221 28h1c109 0 201 133 201 263c0 64 -30 162 -134 162c-118 0 -204 -132 -204 -264c0 -92 53 -161 136 -161z" />
    <glyph glyph-name="afii10081" unicode="&#x43f;" horiz-adv-x="516" 
d="M83 0h-45l66 351c9 49 16 91 21 129h42l-15 -103h2c42 70 110 114 185 114c43 0 120 -23 120 -134c0 -22 -4 -49 -9 -76l-53 -281h-45l54 285c3 20 7 44 7 66c0 57 -23 100 -92 100c-68 0 -170 -78 -193 -205z" />
    </font>
</defs>
</svg>
